<svg id="Layer_1" data-name="Layer 1" xmlns="http://www.w3.org/2000/svg" xmlns:xlink="http://www.w3.org/1999/xlink" viewBox="0 0 844.89 742.25376"><defs><style>.cls-1,.cls-3{fill:#931a1d;stroke:#931a1d;}.cls-1,.cls-10,.cls-13,.cls-14,.cls-15,.cls-16,.cls-2,.cls-3,.cls-4,.cls-5,.cls-6,.cls-7,.cls-8,.cls-9{stroke-miterlimit:10;}.cls-2{fill:#6c130f;stroke:#6c130f;}.cls-3{opacity:0.69;}.cls-4{fill:#52602b;stroke:#52602b;}.cls-5{fill:#3b5125;stroke:#3b5125;}.cls-6{fill:#3d5125;stroke:#3c5124;}.cls-7{fill:#360031;stroke:#360031;}.cls-8{fill:#001140;}.cls-14,.cls-8{stroke:#001140;}.cls-9{fill:#002282;stroke:#002282;}.cls-10{fill:#6d0d00;stroke:#6d0d00;stroke-width:0.5px;}.cls-11{fill:url(#linear-gradient);}.cls-12{fill:url(#linear-gradient-2);}.cls-13{fill:#940310;stroke:#940310;}.cls-14{fill:#fff;}.cls-15{fill:#375000;stroke:#375000;}.cls-16{stroke:#000;}</style><linearGradient id="linear-gradient" x1="352.44288" y1="520.74336" x2="412.91278" y2="520.74336" gradientUnits="userSpaceOnUse"><stop offset="0" stop-color="#001140"/><stop offset="1" stop-color="#08717c"/></linearGradient><linearGradient id="linear-gradient-2" x1="438.44288" y1="520.74336" x2="498.91278" y2="520.74336" gradientUnits="userSpaceOnUse"><stop offset="0" stop-color="#08717c"/><stop offset="0.86559" stop-color="#001140"/></linearGradient></defs><title>bird</title><path class="cls-1" d="M134.07328,735.27727H5.7966V174.49269L117.12993,56.78C84.8385,192.65578,89.35431,279.63581,100.46326,335.01c3.71774,18.5316,11.7421,51.3096,17.70834,102.42537,5.93719,50.867,5.41786,82.03922,7.29166,140.64372C126.642,614.9466,128.96611,668.86851,134.07328,735.27727Z" transform="translate(2.5 0.5)"/><path class="cls-2" d="M127.07328,736.53959H-1.2034V175.755L110.12993,58.04229C77.8385,193.9181,82.35431,280.89813,93.46326,336.27231c3.71774,18.5316,11.7421,51.3096,17.70834,102.42537,5.93719,50.867,5.41786,82.03922,7.29166,140.64372C119.642,616.20892,121.96611,670.13083,127.07328,736.53959Z" transform="translate(2.5 0.5)"/><path class="cls-1" d="M84.78653,512.91762c4.46838,43.818,1.3439,108.02871-35.606,192.50344H12.3252c8.9495-83.68875,5.18094-148.94383,0-193.34041C8.35626,478.06994,1.16813,435.81708-1.41746,368.95852c-1.51477-39.169-1.0616-76.74366,13.74267-115.5021a186.01464,186.01464,0,0,1,19.98933-38.50067A947.01628,947.01628,0,0,0,48.55587,357.24092C63.8125,436.49928,79.57026,461.76556,84.78653,512.91762Z" transform="translate(2.5 0.5)"/><path class="cls-3" d="M75.79186,174.82553c6.37458,42.0284-3.36885,51.58888,3.748,86.204,4.70876,22.90256,9.461,21.08594,14.992,47.47467,5.60863,26.75919,7.98119,63.2612,1.24933,64.9653-7.34357,1.85895-28.05619-37.0498-33.732-79.95731-1.72131-13.01266-.81763-17.00394,0-49.97333,1.8224-73.48442-1.312-108.29153,2.49866-108.692C67.62094,134.52391,73.05837,156.80328,75.79186,174.82553Z" transform="translate(2.5 0.5)"/><path class="cls-4" d="M841.89,303.32564c-1.84521-.53005-22.73352-6.927-29.515-28.30344a45.51047,45.51047,0,0,1,1.04169-29.392c-13.23938-.6296-25.04877-8.1197-30.20837-19.59468-6.96521-15.49058-.90118-36.217,15.625-46.80952-4.12634.90393-31.80078,6.45869-56.25-13.06312C721.656,149.45317,717.37651,125.777,716.54167,120.442c-3.0506,2.243-35.97589,25.56643-75,10.88593C606.59422,118.181,594.25133,84.89917,592.5833,80.164c-16.84253,37.99426-55.23334,60.06122-93.75,54.42967-35.31561-5.16354-64.649-32.72288-73.95834-69.67-9.20667,42.49426-46.15332,69.31583-81.25,64.227-26.70029-3.87138-49.6441-25.82184-58.33334-55.51826-0.80032,39.80265-27.58173,73.7049-63.54166,81.64449-38.70612,8.54593-78.95465-14.995-92.70833-55.51825,16.87708,25.48277,17.50114,58.36828,2.08333,81.64449-19.084,28.811-59.76092,38.3928-92.70833,18.5061,1.3012,1.60856,18.1317,23.15859,10.41666,50.07528C42.56794,271.84362,24.72607,281.15323,21.75,282.64238c3.6928,7.3231,1.73155,16.20111-4.16667,20.68326a14.877,14.877,0,0,1-17.58333,0V0H841.89V303.32564Z" transform="translate(2.5 0.5)"/><path class="cls-5" d="M839.89,238.81915c-1.84521-.41733-22.73352-5.45385-29.515-22.28431-4.35583-10.81035-.36481-20.215,1.04169-23.14138-13.23938-.49571-25.04877-6.39293-30.20837-15.42759-6.96521-12.19629-.90118-28.51492,15.625-36.85481-4.12634.71169-31.80078,5.08515-56.25-10.28506-20.92731-13.15615-25.20679-31.79723-26.04163-35.99772-3.0506,1.766-35.97589,20.12937-75,8.57088-34.94745-10.351-47.29034-36.555-48.95837-40.28316-16.84253,29.91424-55.23334,47.28836-93.75,42.85443-35.31561-4.06544-64.649-25.7639-73.95834-54.85367-9.20666,33.45726-46.15332,54.57484-81.25,50.56823-26.70029-3.04808-49.6441-20.33046-58.33334-43.71152C282.49133,89.31152,255.70993,116.004,219.75,122.25511c-38.70612,6.72852-78.95465-11.80608-92.70833-43.71151,16.87708,20.0635,17.50114,45.95544,2.08333,64.28163-19.084,22.68394-59.76092,30.228-92.70833,14.57051,1.3012,1.26647,18.1317,18.23359,10.41666,39.42606C40.568,214.03223,22.72609,221.362,19.75,222.53448c3.6928,5.76574,1.73155,12.75571-4.16667,16.28467a18.201,18.201,0,0,1-17.58333,0V0H839.89V238.81915Z" transform="translate(2.5 0.5)"/><path class="cls-6" d="M606.8396,691.45646c-17.01978-1.57747-22.36621-4.14772-22.60175-6.78591-0.36273-4.063,11.29761-9.39645,11.07928-9.91788-0.21289-.50851-10.00793,7.65583-18.61322,4.17595-3.87561-1.56727-7.28772-5.4066-6.78851-7.47057,0.34314-1.4187,2.38464-1.37982,6.03491-3.18648a28.53518,28.53518,0,0,0,6.51483-4.48076l-9.74976-4.69794a12.0414,12.0414,0,0,0-6.33771,4.03131c-1.94153,2.40326-1.74738,4.0864-2.96887,5.36457-4.4494,4.65592-20.58118-3.492-20.38593-10.43987,0.0517-1.84029,1.27155-4.40194,6.64758-7.30791l-4.47565-1.00716a16.29779,16.29779,0,0,0-5.27411,1.52916c-4.00531,1.94118-4.86243,4.36322-7.4635,5.97848-5.60913,3.48329-14.41443.16327-14.98334-3.43159-0.21991-1.38965.68475-3.49115,5.16315-6.72283l-11.07928,1.566a23.25623,23.25623,0,0,1-6.64758,5.21993c-10.25278,5.2649-20.46118-.326-22.60175-1.566a130.57337,130.57337,0,0,1,32.79468-12.52784c12.93774-3.001,31.57831-5.15467,32.35156-1.566,0.20892,0.96956-.80383,2.7415-6.64758,6.26392h9.30658a17.16448,17.16448,0,0,1,8.86346-6.26392c6.36884-1.67406,13.656,1.41712,13.73828,4.17595,0.10083,3.38006-10.612,6.30671-12.40881,6.78592l4.19818,1.93861a32.83,32.83,0,0,1,18.40356-4.02658c10.40112,0.94494,21.33258,7.48008,20.8291,11.48386-0.20508,1.63089-2.38831,3.48451-10.63611,4.69794l6.20435,4.17595c5.15771-4.10716,11.65912-4.52643,16.3974-1.044,6.25751,4.599,8.668,15.43537,4.4317,24.53369Z" transform="translate(2.5 0.5)"/><path class="cls-6" d="M605.83954,691.45646c-17.01978-1.57747-22.36621-4.14772-22.60175-6.78591-0.36273-4.063,11.29761-9.39645,11.07928-9.91788-0.21289-.50851-10.00793,7.65583-18.61322,4.17595-3.87561-1.56727-7.28772-5.4066-6.78851-7.47057,0.34314-1.4187,2.38464-1.37982,6.03491-3.18648a28.53518,28.53518,0,0,0,6.51483-4.48076l-9.74976-4.69794a12.0414,12.0414,0,0,0-6.33771,4.03131c-1.94153,2.40326-1.74738,4.0864-2.96887,5.36457-4.4494,4.65592-20.58118-3.492-20.38593-10.43987,0.0517-1.84029,1.27155-4.40194,6.64758-7.30791l-4.47565-1.00716a16.29779,16.29779,0,0,0-5.27411,1.52916c-4.00531,1.94118-4.86243,4.36322-7.4635,5.97848-5.60913,3.48329-14.41443.16327-14.98334-3.43159-0.21991-1.38965.68475-3.49115,5.16315-6.72283l-11.07928,1.566a23.25623,23.25623,0,0,1-6.64758,5.21993c-10.25278,5.2649-20.46118-.326-22.60175-1.566A130.57337,130.57337,0,0,1,514.103,639.77911c12.93774-3.001,31.57831-5.15467,32.35156-1.566,0.20892,0.96956-.80383,2.7415-6.64758,6.26392h9.30658a17.16448,17.16448,0,0,1,8.86346-6.26392c6.36884-1.67406,13.656,1.41712,13.73828,4.17595,0.10083,3.38006-10.612,6.30671-12.40881,6.78592l4.19818,1.93861a32.83,32.83,0,0,1,18.40356-4.02658c10.40112,0.94494,21.33258,7.48008,20.8291,11.48386-0.20508,1.63089-2.38831,3.48451-10.63611,4.69794l6.20435,4.17595c5.15771-4.10716,11.65912-4.52643,16.3974-1.044,6.25751,4.599,8.668,15.43537,4.4317,24.53369Z" transform="translate(2.5 0.5)"/><path class="cls-6" d="M641.48015,727.93457c16.65639-5.18745,21.55493-9.07106,21.36456-11.98536-0.29319-4.48823-12.73638-7.90291-12.60334-8.514,0.12972-.59591,11.175,6.275,19.16508.73808,3.59853-2.49373,6.37106-7.36133,5.54305-9.50182-0.56915-1.4713-2.59125-1.0124-6.50863-2.23023a26.79093,26.79093,0,0,1-7.19366-3.53844q4.46565-3.547,8.93123-7.0939a11.24221,11.24221,0,0,1,6.94537,3.0863c2.31562,2.21474,2.39347,4.083,3.81271,5.22236,5.16971,4.15028,19.88688-7.99429,18.57523-15.50293-0.3474-1.98881-1.97146-4.52293-7.78033-6.58287l4.2848-2.00767a14.88585,14.88585,0,0,1,5.48612.58493c4.29177,1.29152,5.533,3.748,8.37714,4.972,6.13333,2.6396,14.34785-2.76451,14.33481-6.78623-0.005-1.55465-1.24194-3.65318-6.21134-6.25019l11.25983-.55987a22.10317,22.10317,0,0,0,7.44446,4.31442c11.03366,3.62747,20.277-4.53015,22.20426-6.31422a119.32492,119.32492,0,0,0-34.5987-6.91756c-13.33715-.61985-32.2041.84469-32.39509,4.90141-0.05161,1.096,1.23966,2.81442,7.6124,5.44865l-9.24663,1.89941c-1.723-1.71469-5.18641-4.63239-9.814-4.9964-6.59711-.51892-13.34008,4.32672-12.978,7.34081,0.44355,3.69281,11.55816,4.686,13.42049,4.83993l-3.85929,2.963a30.1212,30.1212,0,0,0-18.93275-.61859c-10.18212,3.14943-19.99191,12.4805-18.84761,16.72761,0.46611,1.73,2.93345,3.29827,11.32332,2.93327l-5.49263,5.80318c-5.78518-3.40953-12.31215-2.53814-16.45972,2.21238-5.47739,6.27367-6.12916,18.53868-.4566,27.55887Z" transform="translate(2.5 0.5)"/><path class="cls-6" d="M657.34619,734.193c17.01978-1.57747,22.36621-4.14772,22.60175-6.78591,0.36273-4.063-11.29761-9.39645-11.07928-9.91788,0.21289-.50851,10.00793,7.65583,18.61322,4.17595,3.87561-1.56727,7.28772-5.4066,6.78851-7.47057-0.34314-1.4187-2.38464-1.37982-6.03491-3.18648a28.53518,28.53518,0,0,1-6.51483-4.48076l9.74976-4.69794a12.0414,12.0414,0,0,1,6.33771,4.03131c1.94153,2.40326,1.74738,4.0864,2.96887,5.36457,4.4494,4.65592,20.58118-3.492,20.38593-10.43987-0.0517-1.84029-1.27155-4.40194-6.64758-7.30791l4.47565-1.00716a16.29779,16.29779,0,0,1,5.27411,1.52916c4.00531,1.94118,4.86243,4.36322,7.4635,5.97848,5.60913,3.48329,14.41443.16327,14.98334-3.43159,0.21991-1.38965-.68475-3.49115-5.16315-6.72283l11.07928,1.566a23.25624,23.25624,0,0,0,6.64758,5.21993c10.25278,5.2649,20.46118-.326,22.60175-1.566A130.57337,130.57337,0,0,0,749.0827,682.5156c-12.93774-3.001-31.57831-5.15467-32.35156-1.566-0.20892.96956,0.80383,2.7415,6.64758,6.26392h-9.30658a17.16448,17.16448,0,0,0-8.86346-6.26392c-6.36884-1.67406-13.656,1.41712-13.73828,4.17595-0.10083,3.38006,10.612,6.30671,12.40881,6.78592l-4.19818,1.93861a32.83,32.83,0,0,0-18.40356-4.02658c-10.40112.94494-21.33258,7.48008-20.8291,11.48386,0.20508,1.63089,2.38831,3.48451,10.63611,4.69794l-6.20435,4.17595c-5.15771-4.10716-11.65912-4.52643-16.3974-1.044-6.25751,4.599-8.668,15.43537-4.4317,24.53369Z" transform="translate(2.5 0.5)"/><path class="cls-6" d="M628.6471,723.61526c-9.22025-16.924-10.71334-23.49443-9.07133-25.31,2.52882-2.79615,13.184,4.92171,13.4047,4.40168,0.21526-.50712-11.22718-4.76361-14.07477-14.94175-1.28248-4.584-.74805-10.10636.94967-10.88544,1.167-.53551,2.3746,1.40364,5.80288,3.7369a26.79526,26.79526,0,0,0,6.96836,3.40494q-1.35776-5.99417-2.71548-11.98829a11.8099,11.8099,0,0,0-6.55731-3.51039c-2.799-.36925-3.82006.83027-5.42287,0.45663-5.83843-1.361-10.078-21.42307-5.26062-25.43936,1.276-1.06381,3.74587-1.46749,8.96078,1.8207l-2.024-4.8085a19.59732,19.59732,0,0,0-4.22207-4.02472c-3.73386-2.5851-5.8901-1.92544-8.55476-3.38986-5.74627-3.158-8.82288-13.42716-6.73531-16.13383,0.807-1.04629,2.77517-1.4676,7.66782.78141l-7.75578-9.44978a20.833,20.833,0,0,1-7.54855-3.08273c-9.758-6.4385-12.14679-19.39688-12.6019-22.155a147.10116,147.10116,0,0,1,28.29533,23.20089c9.84964,10.32634,22.57318,26.516,20.61329,29.41072-0.5295.78207-2.34011,0.90275-8.25466-2.45172l5.62514,8.73287a15.86688,15.86688,0,0,1,9.594,4.531c4.98176,4.96438,7.29555,13.67072,5.47931,15.41543-2.22521,2.13761-10.6798-6.14588-12.09-7.54229q0.61316,2.55559,1.22628,5.11113a40.47284,40.47284,0,0,1,13.847,14.8353c5.64758,10.33109,7.8347,24.53868,4.82238,26.48622-1.227.79331-3.80035-.135-9.60626-7.14089l0.92561,8.34593A17.42391,17.42391,0,0,1,650.95118,716.788c0.67159,8.65153-5.20079,17.46317-13.91508,18.9873Z" transform="translate(2.5 0.5)"/><path class="cls-6" d="M615.32709,729.46582c-14.25262-.8704-18.46948-3.08828-18.77325-5.40373-0.59686-4.54959,12.837-11.59563,12.45087-15.0844-0.099-.89453-10.98553,11.41823-18.413,4.188-3.34515-3.25635-5.79687-10.29012-4.91156-13.70945,0.60858-2.35033,2.5285-1.96782,6.33759-4.4625a32.09561,32.09561,0,0,0,7.05035-6.58083q-4.13187-4.73569-8.26379-9.47138c-1.73187.52962-4.3515,1.87106-6.793,5.84685-2.31531,3.77045-2.4696,6.65214-3.87933,8.62814-5.13519,7.19792-18.73315-9.10814-17.15515-20.84895,0.41791-3.10979,2.08362-7.26052,7.7428-11.35q-2.01205-1.20024-4.024-2.40049a10.45311,10.45311,0,0,0-5.2868,1.77267c-4.17133,2.66752-5.46649,6.638-8.24658,8.97111-5.995,5.0314-13.64337-1.959-13.45953-8.13766,0.07111-2.38844,1.34686-5.80848,6.22382-10.589l-3.87976-2.208c-1.16656,1.97492-6.45972,10.50545-14.21985,10.95524-9.7475.565-20.73077-11.77363-21.9314-30.69037,26.41071-9.62312,43.13965-4.92486,51.209-1.44359,4.56189,1.96807,14.00635,6.04257,14.03577,12.20185,0.02258,4.73379-5.52722,8.37656-7.53345,9.58124l8.78772,1.44344c1.72565-2.908,5.17175-7.941,9.62567-9.23758,6.34955-1.84837,12.61029,4.51889,12.13458,9.20563-0.58276,5.74212-11.28528,9.03888-13.078,9.57206q1.78766,1.96775,3.5752,3.9355c4.11255-2.93437,10.80585-6.42992,18.18512-3.96744,9.63159,3.21411,18.6427,15.98133,17.36414,22.68639-0.52075,2.73123-2.954,5.533-10.98535,6.30958q2.51038,4.01856,5.02081,8.03714c3.42181-3.70092,7.03473-5.0701,10.19263-4.13351,2.98706,0.88592,4.68036,3.59835,5.49988,4.908,6.42279,10.264,1.144,28.25884.3139,30.988Z" transform="translate(2.5 0.5)"/><path class="cls-6" d="M431.0702,729.66108c0.57507-1.51,5.11176-13.96395-.458-25.8958-5.01828-10.75036-16.14682-16.59139-27.48187-14.02689,3.60693-3.11329,8.93939-6.58537,14.657-5.395,8.5546,1.78107,12.73077,12.90828,15.573,11.32941,2.03037-1.12787,2.18735-8.077,0-12.9479-3.69638-8.23129-14.62744-11.72986-27.48184-9.17143,3.6394-3.87988,9.02014-8.25024,15.115-7.55294,6.34158,0.72553,11.3811,6.69989,11.90881,5.93445,0.62061-.9002-7.559-7.41-6.41245-11.32941,1.3223-4.52012,14.75977-4.60732,16.0311-.5395,0.61047,1.95329-2.07394,3.29771-3.66425,8.63193-1.63248,5.47578-1.406,12.788.916,14.02689,2.70691,1.4442,5.81873-6.66793,12.82486-8.09244,4.83008-.98206,9.21136,1.68193,11.90881,3.77647a87.51461,87.51461,0,0,0-11.45078,3.77647c-6.81818,2.77679-10.27005,4.23294-12.36682,7.55294-3.662,5.79837-3.43124,15.37478-.458,17.26386,2.73834,1.73986,5.9444-4.222,12.82486-5.93445,6.77533-1.68631,13.13019,1.73932,17.40518,4.85546a41.858,41.858,0,0,0-16.94714,1.61849c-5.93585,1.84857-10.43927,3.251-12.82486,8.09244-2.98544,6.05878-.61179,13.35862,0,15.10588Z" transform="translate(2.5 0.5)"/><path class="cls-7" d="M446.93489,648.53441c0.5481,4.895-6.01764,12.40251-13.05389,12.4084-6.95807.00582-13.39545-7.32508-13.05386-12.4084,0.07462-1.11024.54367-3.17128,1.80371-3.69464,1.17957-.48994,2.80374.47094,4.02682,2.422-0.5415-2.49385.662-4.89508,2.399-5.44944a3.39643,3.39643,0,0,1,3.76981,1.71557c0.20026-2.30918,2.01666-3.67663,3.42706-3.2293,1.12683,0.35739,2.00964,1.87795,1.88492,3.633a1.50808,1.50808,0,0,1,2.05624.50457,2.18461,2.18461,0,0,1-.77109,2.82564c1.53156-2.19142,3.57407-3.18214,5.14063-2.52289C445.94508,645.32,446.775,647.10691,446.93489,648.53441Z" transform="translate(2.5 0.5)"/><path class="cls-6" d="M168.08018,733.20281c0.48606-1.30521,4.32056-12.07049-.38714-22.38442-4.24155-9.29265-13.64761-14.34165-23.22822-12.12489,3.04865-2.69114,7.55575-5.69242,12.3884-4.66342,7.23051,1.53957,10.7603,11.158,13.16263,9.79318,1.7161-.97493,1.84879-6.98181,0-11.19221-3.12425-7.11516-12.3634-10.13934-23.2282-7.92782,3.0761-3.35379,7.624-7.13154,12.77551-6.52879,5.36,0.62715,9.61953,5.79141,10.06556,5.12976,0.52455-.77813-6.389-6.40524-5.41993-9.79318,1.11763-3.90721,12.47525-3.98259,13.5498-.46634,0.516,1.68843-1.75294,2.85055-3.09709,7.46147-1.3798,4.73329-1.18841,11.054.77426,12.1249,2.28793,1.24837,4.9181-5.76378,10.83982-6.99513,4.08248-.8489,7.78563,1.45386,10.06556,3.2644a72.81032,72.81032,0,0,0-9.67842,3.26439c-5.76286,2.40027-8.68045,3.659-10.45268,6.52879-3.09521,5.01214-2.90016,13.29-.38714,14.92295,2.3145,1.50394,5.02432-3.64949,10.83982-5.12976,5.72664-1.45766,11.09789,1.50347,14.7112,4.19708a34.63694,34.63694,0,0,0-14.32406,1.399c-5.0171,1.59791-8.82348,2.81021-10.83982,6.99513-2.52336,5.23723-.51709,11.54724,0,13.05758Z" transform="translate(2.5 0.5)"/><path class="cls-7" d="M181.48932,663.07662c0.46326,4.23123-5.08623,10.72077-11.03341,10.72586-5.8811.005-11.3221-6.33182-11.03338-10.72586,0.06307-.95969.45952-2.74127,1.52453-3.19366,0.997-.4235,2.36978.40708,3.40355,2.09356-0.45769-2.15569.55955-4.23133,2.02765-4.71051a2.84713,2.84713,0,0,1,3.18631,1.48294c0.16926-1.99606,1.70452-3.17809,2.89662-2.79142a3.01671,3.01671,0,0,1,1.59317,3.14034,1.25879,1.25879,0,0,1,1.738.43616,1.91341,1.91341,0,0,1-.65174,2.44249c1.2945-1.89427,3.02087-2.75065,4.345-2.1808A4.139,4.139,0,0,1,181.48932,663.07662Z" transform="translate(2.5 0.5)"/><path class="cls-6" d="M286.15164,735.23146c0.57507-1.8306,5.11176-16.92932-.458-31.395-5.01828-13.0333-16.14682-20.11472-27.48187-17.00563,3.60693-3.77443,8.93939-7.98384,14.657-6.54063,8.5546,2.1593,12.73077,15.64947,15.573,13.73532,2.03037-1.36738,2.18735-9.79225,0-15.6975-3.69638-9.97928-14.62744-14.22081-27.48184-11.11906,3.6394-4.70381,9.02014-10.00226,15.115-9.15688,6.34158,0.8796,11.3811,8.12267,11.90881,7.19469,0.62061-1.09136-7.559-8.98359-6.41244-13.73531,1.3223-5.48,14.75977-5.58573,16.0311-.65406,0.61047,2.36809-2.07394,3.998-3.66425,10.465-1.63248,6.63861-1.406,15.50365.916,17.00563,2.70691,1.75089,5.81873-8.08393,12.82486-9.81094,4.83008-1.19061,9.21136,2.0391,11.90881,4.57844a77.16409,77.16409,0,0,0-11.45078,4.57844c-6.81818,3.36647-10.27,5.13184-12.36682,9.15688-3.662,7.02971-3.43124,18.63976-.458,20.93,2.73834,2.10934,5.9444-5.11855,12.82486-7.19469,6.77533-2.04442,13.13019,2.10868,17.40518,5.88656a34.96351,34.96351,0,0,0-16.94714,1.96219c-5.93585,2.24113-10.43927,3.94143-12.82486,9.81094-2.98544,7.34542-.61179,16.19545,0,18.31375Z" transform="translate(2.5 0.5)"/><path class="cls-7" d="M302.01633,636.87681c0.5481,5.93446-6.01764,15.0363-13.05389,15.04343-6.95807.00705-13.39545-8.88063-13.05386-15.04343,0.07462-1.346.54367-3.84473,1.80371-4.47923,1.17957-.594,2.80374.57095,4.02682,2.9363-0.5415-3.02344.662-5.93459,2.399-6.60668,1.31931-.51049,2.8349.31394,3.76981,2.07988,0.20026-2.79955,2.01666-4.4574,3.42706-3.91507,1.12683,0.43328,2.00964,2.27675,1.88492,4.40445a1.36859,1.36859,0,0,1,2.05624.61173,2.99265,2.99265,0,0,1-.77109,3.42569c1.53156-2.65679,3.57407-3.85789,5.14063-3.05865C301.02652,632.97975,301.85648,635.14617,302.01633,636.87681Z" transform="translate(2.5 0.5)"/><path class="cls-6" d="M359.15461,740.15683c0.57507-1.4204,5.11176-13.13582-.458-24.36a24.71675,24.71675,0,0,0-27.48187-13.195c3.60693-2.92866,8.93939-6.19483,14.657-5.075,8.5546,1.67545,12.73077,12.14276,15.573,10.65752,2.03037-1.061,2.18735-7.598,0-12.18-3.69638-7.74313-14.62744-11.03422-27.48184-8.62752,3.6394-3.64979,9.02014-7.761,15.115-7.105,6.34158,0.6825,11.3811,6.30255,11.90881,5.58251,0.62061-.84681-7.559-6.97056-6.41245-10.65752,1.3223-4.25206,14.75977-4.33409,16.0311-.5075,0.61047,1.83745-2.07394,3.10214-3.66425,8.12-1.63248,5.151-1.406,12.02961.916,13.195,2.70691,1.35855,5.81873-6.27249,12.82486-7.61251,4.83008-.92382,9.21136,1.58218,11.90881,3.55251a91.48063,91.48063,0,0,0-11.45078,3.5525c-6.81818,2.61211-10.27,3.9819-12.36682,7.105-3.662,5.4545-3.43124,14.463-.458,16.24,2.73834,1.63668,5.9444-3.97159,12.82486-5.58251,6.77533-1.58631,13.13019,1.63617,17.40518,4.56751a44.35825,44.35825,0,0,0-16.94714,1.5225c-5.93585,1.73894-10.43927,3.05824-12.82486,7.61251-2.98544,5.69946-.61179,12.56639,0,14.21Z" transform="translate(2.5 0.5)"/><path class="cls-7" d="M375.0193,663.84138c0.5481,4.60468-6.01764,11.667-13.05389,11.67252-6.95807.00547-13.39545-6.89066-13.05386-11.67252,0.07462-1.04439.54367-2.98321,1.80371-3.47553,1.17957-.46088,2.80374.443,4.02682,2.27834-0.5415-2.34595.662-4.60478,2.399-5.12626a3.48062,3.48062,0,0,1,3.76981,1.61382c0.20026-2.17223,2.01666-3.45859,3.42706-3.03778a3.2321,3.2321,0,0,1,1.88492,3.4175,1.56283,1.56283,0,0,1,2.05624.47465,1.98575,1.98575,0,0,1-.77109,2.65807c1.53156-2.06146,3.57407-2.99342,5.14063-2.37327A4.47378,4.47378,0,0,1,375.0193,663.84138Z" transform="translate(2.5 0.5)"/><path class="cls-5" d="M840.89,739.1378H-1.22993V716.67225q2.53635-2.6038,5.07271-5.20755-0.69786,20.15573,1.1319,20.343,1.95423,0.19975,6.7914-22.3773,0.566,7.96765,1.1319,15.93535,3.3957-6.781,6.7914-13.562-1.30344,18.08216.3773,18.30871,1.88869,0.25488,7.546-22.03829,0.46942,12.53247,3.0184,12.88391,2.11439,0.29149,5.6595-7.79811-2.85947,20.01834-1.1319,20.343,2.00475,0.377,10.1871-25.76781-1.16183,16.74962.3773,16.9525,1.14243,0.15056,3.773-8.81532,2.45873,11.6316,3.773,11.52769,1.53633-.12094,1.5092-16.27442,3.825,14.7519,6.4141,14.57919,2.10746-.14093,3.3957-10.17153,2.60211,13.99674,3.773,13.90105,1.39874-.11469.7546-20.343,4.40844,18.817,7.546,18.64778,2.75324-.14883,4.5276-14.9182,2.08349,16.31712,2.6411,16.27442,0.6459-.04862-0.7546-22.03829,7.11835,23.793,9.80981,23.39445,2.09388-.30942,1.50919-15.25721,3.71262,14.72714,6.41411,14.57913,3.13234-.17195,4.9049-20.343c-1.27179,7.94993.80612,13.61782,3.773,14.24012,3.14671,0.66,7.03693-4.40947,7.546-5.08579q-0.21541,12.66666,1.5092,12.884,2.19771,0.27651,7.546-19.66493,0.19723,16.83008,1.8865,16.9525,1.797,0.12958,5.28221-18.64778,3.76147,16.44587,5.6595,16.27442,2.23231-.20214,1.88649-23.39445,4.86394,26.27589,7.92331,26.10688,2.47865-.13657,3.773-17.63063,3.93736,18.78,6.79141,18.64778,2.486-.115,4.1503-14.57919,2.32519,8.75449,4.90489,8.81532,3.86451,0.0914,8.3006-19.32586,0.56614,22.56274,4.5276,23.05544,2.6412,0.3281,6.79141-9.15438,1.10916,10.11978,2.6411,10.17153,2.20372,0.0747,5.2822-20.68207c0.17242,3.97464,1.05934,21.25984,5.2822,21.69922,3.51183,0.36539,7.75954-11.08326,9.43251-15.93535q0.12252,13.18093,2.6411,13.562,2.0422,0.30868,5.6595-7.79817,2.127,11.20412,4.1503,11.18868,2.53377-.01892,4.90491-17.63063c0.65791,3.72974,2.69185,14.19986,5.6595,14.24012,2.23167,0.03028,4.15359-5.84889,5.2822-10.17153q2.71362,14.60011,5.2822,14.57919,2.92351-.02337,5.6595-18.98679,1.25739,12.14637,3.0184,12.20577,2.23544,0.0752,5.28221-19.32586,2.17744,16.97191,4.1503,16.9525,1.57425-.0153,3.0184-10.84961,0.96483,19.91254,3.0184,20.004,1.831,0.0812,4.52759-15.59634,2.42606,11.57549,4.52762,11.52775,2.725-.06146,4.90488-19.66493,1.91336,21.2362,4.90491,21.36015,2.75107,0.11337,6.41409-17.63063c0.0918,1.37881,1.10965,15.73713,4.1503,15.9354,2.85376,0.1861,5.99094-12.19837,6.41412-13.90105q1.28874,13.89562,2.64108,13.90105,1.65051,0.00609,3.39572-20.68207,2.75793,17.21058,6.0368,17.29156,2.32178,0.057,4.90488-8.47625,1.65578,12.875,3.39572,12.88391,2.01837,0.0107,4.1503-17.29156,1.849,20.93566,4.52759,21.02109,2.32791,0.07487,5.2822-15.59628,3.67456,16.42514,6.0368,16.27442,2.82527-.18067,3.773-24.07258c0.24335,6.15121,1.00607,16.99873,3.773,17.29156,2.25717,0.23886,5.07364-6.62816,7.1687-12.88391,0.52948,6.48353,1.59268,16.21825,3.39569,16.27442,1.72623,0.05381,3.46686-8.78493,4.52759-15.25727-0.37582,8.11409,2.5748,14.17332,5.65952,14.57913,3.19672,0.42052,8.32-4.99584,10.1871-13.90105q0.11151,13.84618,1.1319,13.90105,1.13525,0.06039,3.39569-16.9525,1.88466,19.325,3.773,19.32586,1.69643,0.00025,3.39569-15.59628,1.77681,10.5304,3.39572,10.51054,2.00789-.02427,3.773-16.27442,0.84924,15.61551,3.773,15.93535,2.104,0.23044,5.2822-7.4591,2.52425,12.97369,4.1503,12.88391,2.00066-.11107,2.64111-20.00394,2.065,13.5036,4.52759,13.562,2.11693,0.0506,4.52762-9.83246,1.54747,11.1485,3.39569,11.18868,2.07426,0.04533,4.52759-13.90105c-0.79791,4.91.58255,8.50965,2.26379,8.81532,1.58563,0.28828,4.10031-2.23317,5.65952-6.10294q0.36667,13.79813,1.88651,13.90105,1.817,0.12357,5.2822-19.32586,0.11124,22.07528,3.0184,22.37736,2.52768,0.26212,7.1687-15.9354,0.54048,8.02688,1.88651,8.13724,1.54477,0.12694,4.1503-10.17153c-0.3017,11.4757.489,13.49112,1.1319,13.562,0.64978,0.07163,1.99454-1.75008,4.90491-13.562,0.662,7.99518,3.23062,13.49535,5.65948,13.562,2.29718,0.06307,4.9556-4.72073,6.41412-11.18868,0.32919,1.822,1.83939,9.67774,4.52759,9.83246,3.41721,0.19668,6.61191-12.17314,6.79141-12.88391,0.49072,2.91783,2.50232,14.23491,5.2822,14.24012,2.33627,0.00439,4.17874-7.98289,4.90491-11.52775q2.15652,8.89361,3.773,8.81532,1.87111-.091,3.01843-12.20577,4.8912,17.521,8.3006,17.29151,2.74384-.18495,4.52759-11.86676,0.42645,11.41967,1.88647,11.52775,1.72824,0.12752,4.90491-15.59634,1.22379,17.47344,3.773,17.63063,2.16376,0.13377,5.28223-12.20583,2.31116,12.93741,4.15027,12.88391,2.23526-.06557,3.773-19.32586,3.108,18.73433,5.28223,18.64778,1.56125-.06253,2.64105-9.83246,2.70383,8.95745,4.52765,8.81532,2.08365-.16273,3.01837-12.20583,3.26541,14.31694,6.0368,14.24012,2.236-.062,4.15027-9.4934,1.72229,10.1777,3.39575,10.17148,2.11414-.00823,4.15027-16.27442,3.96194,15.77215,5.28223,15.59634,1.09113-.14595.37726-11.18868c0.549,1.86487,3.01935,9.95017,5.65955,9.83246,3.23944-.14441,4.78436-12.55115,4.90491-13.562q1.53113,11.66574,4.15027,11.86676,3.16663,0.24262,7.92328-16.27442,1.26837,16.91268,3.01843,16.9525,1.36313,0.03143,3.01837-10.17148c1.59155,6.83867,3.22821,10.14619,4.90491,10.17148,2.01923,0.03044,4.155-4.69862,6.41412-14.57913q0.88852,16.19914,2.64111,16.27442,1.27908,0.05537,3.01837-8.4763,3.19,6.733,4.90491,6.442,2.45773-.41679,1.88654-15.25721,3.912,8.81035,5.65948,8.47625,2.03851-.38964,1.1319-13.223,7.25638,19.49781,10.18707,18.98679,2.42752-.42378,1.88654-14.57913c0.20282,0.38706,4.06482,7.64081,6.79138,7.12,2.09381-.39989,3.25531-5.33442,2.64111-12.20577q4.39481,17.47138,7.546,17.29156,2.73065-.15533,4.52759-13.562c0.31842,0.7496,2.88635,6.67506,5.28217,6.442,1.97949-.19262,3.53571-4.55964,3.773-10.84961q1.049,20.15787,3.773,20.343,2.37946,0.16109,6.0368-14.9182,2.06113,14.11117,4.90491,14.24012,2.36929,0.10712,5.28217-9.4934,3.98676,8.48308,6.41412,8.13718,3.651-.52078,3.773-21.02109,5.24689,23.58118,9.05518,23.39445,3.40457-.16635,5.65955-19.32586,4.356,19.11936,5.28217,18.98679,0.75119-.1081-0.75458-12.88391c3.48151,6.41612,7.90387,10.81917,10.56439,10.17153,2.87488-.6998,4.4024-7.46947,2.64111-16.61348,0.533,1.49964,5.30505,14.72322,8.67786,14.24012,2.86481-.41031,3.31348-10.508,3.39575-12.88391q2.58215,19.69024,4.90491,19.66493,1.77347-.01884,3.39569-11.52769,3.455,11.34645,6.0368,11.18862,3.39743-.20831,5.28217-20.343,6.42883,23.04452,10.56439,22.71637,3.42929-.27166,5.28223-16.61348,3.21176,11.0339,4.90491,10.84961,1.90192-.2079,1.88647-14.57913c2.71606,7.831,6.6347,17.30336,9.80981,16.9525,1.30579-.1443,3.329-2.04318,4.52759-13.223q5.90488,13.70237,8.3006,13.223,2.83759-.56693.75464-21.02109,5.38,3.96,10.76007,7.91993V739.1378Z" transform="translate(2.5 0.5)"/><ellipse class="cls-8" cx="428.07084" cy="523.35047" rx="73.10132" ry="82.58297"/><ellipse class="cls-9" cx="428.15535" cy="565.06678" rx="36.07228" ry="41.1224"/><path class="cls-10" d="M398.6065,609.56611c-1.39041.057-2.34933,4.42972-2.7099,6.07391-0.56265,2.56572-.28027,2.81773-0.88773,3.78452-0.99625,1.58555-2.63287,2.30356-2.38284,3.13039a0.74888,0.74888,0,0,0,.56067.51395c1.09967,0.15538,2.09192-3.36177,2.7099-3.22384,0.65652,0.14654.2739,4.28083,0.46722,4.29845,0.19144,0.01745.5502-4.03765,1.21478-4.06484,0.65829-.02694.97314,3.92455,2.24268,4.01812a0.83539,0.83539,0,0,0,.74756-0.4205c0.49725-.91845-1.73614-2.10539-2.523-4.205-1.42191-3.794,2.83325-8.02339,1.26151-9.57809A1.00589,1.00589,0,0,0,398.6065,609.56611Z" transform="translate(2.5 0.5)"/><path class="cls-10" d="M459.46925,608.50324c1.39041,0.057,2.34933,4.42972,2.7099,6.07391,0.56265,2.56572.28027,2.81773,0.88773,3.78452,0.99625,1.58555,2.63287,2.30356,2.38284,3.13039a0.74888,0.74888,0,0,1-.56067.51395c-1.09967.15538-2.09192-3.36177-2.7099-3.22384-0.65652.14654-.2739,4.28083-0.46722,4.29845-0.19144.01745-.5502-4.03765-1.21478-4.06484-0.65829-.02694-0.97314,3.92455-2.24268,4.01812a0.83539,0.83539,0,0,1-.74756-0.4205c-0.49725-.91845,1.73615-2.10539,2.523-4.205,1.42191-3.794-2.83325-8.02339-1.26151-9.57809A1.00588,1.00588,0,0,1,459.46925,608.50324Z" transform="translate(2.5 0.5)"/><path class="cls-8" d="M405.94952,602.26959c-0.04794,1.21678-1.11963,1.88637-1.70364,4.54311a12.62719,12.62719,0,0,0-.284,3.12338c-0.32523.17125-7.56177,3.90544-9.938,1.41972-0.52826-.5526-0.69836-1.28918-0.28394-6.81465,0.55591-7.4115,1.00067-7.93559,1.41971-8.23437C398.12377,594.19322,406.08337,598.8732,405.94952,602.26959Z" transform="translate(2.5 0.5)"/><path class="cls-8" d="M451.69147,600.54682c0.04794,1.21678,1.11963,1.88637,1.70364,4.54311a12.62719,12.62719,0,0,1,.284,3.12338c0.32523,0.17125,7.56177,3.90544,9.938,1.41972,0.52826-.5526.69836-1.28918,0.28394-6.81465-0.55591-7.4115-1.00067-7.93559-1.41971-8.23437C459.51721,592.47045,451.55762,597.15043,451.69147,600.54682Z" transform="translate(2.5 0.5)"/><path class="cls-11" d="M411.53039,504.96155c-2.41968,3.464-8.19919,3.899-14.23941,3.25473,6.7276,8.6127,4.97913,18.65579.59314,21.35916-4.0083,2.47058-12.39645.153-17.68048-7.52657a55.83588,55.83588,0,0,1,8.7471,24.61389c0.78732,7.70786.96552,25.81378-5.10263,27.66519-8.28979,2.52925-31.5723-24.25954-31.40433-53.93359,0.145-25.609,17.76334-54.396,34.21475-53.375C402.44454,467.999,417.63952,496.21568,411.53039,504.96155Z" transform="translate(2.5 0.5)"/><path class="cls-12" d="M439.82526,504.96155c2.41968,3.464,8.19919,3.899,14.23941,3.25473-6.7276,8.6127-4.97913,18.65579-.59314,21.35916,4.0083,2.47058,12.39645.153,17.68048-7.52657a55.83588,55.83588,0,0,0-8.7471,24.61389c-0.78732,7.70786-.96552,25.81378,5.10263,27.66519,8.28979,2.52925,31.5723-24.25954,31.40433-53.93359-0.145-25.609-17.76334-54.396-34.21475-53.375C448.91111,467.999,433.71613,496.21568,439.82526,504.96155Z" transform="translate(2.5 0.5)"/><path class="cls-13" d="M433.52548,476.41985c0.85205,2.20541-2.27506,5.98837-7.20947,9.49094-5.20853-3.25693-8.87195-6.95468-8.12207-9.21716C419.39746,473.06242,432.1007,472.73195,433.52548,476.41985Z" transform="translate(2.5 0.5)"/><ellipse class="cls-14" cx="412.83252" cy="457.32181" rx="7.86826" ry="11.13782"/><ellipse class="cls-14" cx="441.05489" cy="456.92321" rx="7.86826" ry="11.13782"/><ellipse class="cls-15" cx="412.81072" cy="461.65131" rx="5.02059" ry="6.03666"/><ellipse class="cls-15" cx="441.14119" cy="461.12946" rx="5.02059" ry="6.03666"/><ellipse class="cls-16" cx="412.90571" cy="463.9823" rx="2.86891" ry="3.70567"/><ellipse class="cls-16" cx="441.27773" cy="463.70447" rx="2.86891" ry="3.70567"/><path class="cls-8" d="M422.73947,440.608c-4.84174-1.53571-5.12045-6.386-8.9765-6.63483-1.80042-.11618-3.18793.84769-4.34888-0.11151a2.11591,2.11591,0,0,1-.78058-2.23019c0.67023-1.38971,4.76868-1.37515,7.91721.05576,3.63443,1.65173,5.40652,4.91956,5.57547,4.79492,0.32431-.23923-8.38657-10.66983-6.4118-13.04663,0.60233-.72495,2.09476-0.5755,3.0665-0.223,5.44772,1.976,5.24582,14.21848,6.46756,14.16171,1.27017-.059.79694-13.25916,3.51254-13.71567,0.81525-.13705,1.74643.90329,2.17444,1.78415,2.11105,4.34457-4.925,11.17484-3.90283,12.15454,1.00342,0.96173,7.91309-5.49573,9.19955-4.34888,0.59064,0.52655-.24872,2.43787-0.89209,3.45682-1.8161,2.87622-5.18182,3.56921-6.80206,3.90283A10.95078,10.95078,0,0,1,422.73947,440.608Z" transform="translate(2.5 0.5)"/></svg>