<svg id="Layer_1" data-name="Layer 1" xmlns="http://www.w3.org/2000/svg" viewBox="0 0 842.89001 629.28"><defs><style>.cls-1{fill:#52602b;stroke:#52602b;}.cls-1,.cls-2{stroke-miterlimit:10;}.cls-2{fill:#3c5124;stroke:#3c5124;}</style></defs><title>bush</title><path class="cls-1" d="M841.89,304.25c-1.84521-.5072-22.73352-6.62836-29.515-27.08334-4.35583-13.13841-.36481-24.56839,1.04169-28.125-13.23938-.60246-25.04877-7.76968-30.20837-18.75-6.96521-14.82281-.90118-34.65575,15.625-44.79167-4.12634.865-31.80078,6.18027-56.25-12.5-20.92731-15.9894-25.20679-38.64491-26.04163-43.75-3.0506,2.14627-35.97589,24.46433-75,10.41666-34.94745-12.58017-47.29034-44.42729-48.95837-48.95833-16.84253,36.35641-55.23334,57.47213-93.75,52.08334-35.31561-4.94095-64.649-31.31228-73.95834-66.66667-9.20666,40.66244-46.15332,66.32779-81.25,61.45834-26.70029-3.7045-49.6441-24.70873-58.33334-53.125-0.80032,38.08685-27.58173,70.52766-63.54166,78.125-38.70612,8.17754-78.95465-14.34857-92.70833-53.125,16.87708,24.38427,17.50114,55.85217,2.08333,78.125-19.084,27.569-59.76092,36.73778-92.70833,17.70834,1.3012,1.53922,18.1317,22.16028,10.41666,47.91666-6.26538,20.91676-24.10724,29.82506-27.08333,31.25,3.6928,7.00742,1.73155,15.50272-4.16667,19.79166A15.42036,15.42036,0,0,1,0,304.25V14H841.89V304.25Z" transform="translate(0.5 0.5)"/><path class="cls-2" d="M841.89,290.25c-1.84521-.5072-22.73352-6.62836-29.515-27.08334-4.35583-13.13841-.36481-24.56839,1.04169-28.125-13.23938-.60246-25.04877-7.76968-30.20837-18.75-6.96521-14.82281-.90118-34.65575,15.625-44.79167-4.12634.865-31.80078,6.18027-56.25-12.5-20.92731-15.9894-25.20679-38.64491-26.04163-43.75-3.0506,2.14627-35.97589,24.46433-75,10.41666-34.94745-12.58017-47.29034-44.42729-48.95837-48.95833-16.84253,36.35641-55.23334,57.47213-93.75,52.08334-35.31561-4.94095-64.649-31.31228-73.95834-66.66667-9.20666,40.66244-46.15332,66.32779-81.25,61.45834-26.70029-3.7045-49.6441-24.70872-58.33334-53.125-0.80032,38.08685-27.58173,70.52766-63.54166,78.125-38.70612,8.17754-78.95465-14.34857-92.70833-53.125,16.87708,24.38427,17.50114,55.85217,2.08333,78.125-19.084,27.569-59.76092,36.73778-92.70833,17.70834,1.3012,1.53922,18.1317,22.16028,10.41666,47.91666-6.26538,20.91676-24.10724,29.82506-27.08333,31.25,3.6928,7.00742,1.73155,15.50272-4.16667,19.79166A15.42036,15.42036,0,0,1,0,290.25V0H841.89V290.25Z" transform="translate(0.5 0.5)"/><path class="cls-1" d="M841.89,324.03c-1.84521.5072-22.73352,6.62836-29.515,27.08334-4.35583,13.13841-.36481,24.56839,1.04169,28.125-13.23938.60246-25.04877,7.76968-30.20837,18.75-6.96521,14.82281-.90118,34.65575,15.625,44.79167-4.12634-.865-31.80078-6.18027-56.25,12.5-20.92731,15.9894-25.20679,38.64491-26.04163,43.75-3.0506-2.14627-35.97589-24.46432-75-10.41666-34.94745,12.58017-47.29034,44.42729-48.95837,48.95833-16.84253-36.35641-55.23334-57.47213-93.75-52.08334-35.31561,4.94095-64.649,31.31228-73.95834,66.66667-9.20666-40.66244-46.15332-66.32779-81.25-61.45834-26.70029,3.7045-49.6441,24.70872-58.33334,53.125-0.80032-38.08685-27.58173-70.52766-63.54166-78.125-38.70612-8.17754-78.95465,14.34857-92.70833,53.125,16.87708-24.38427,17.50114-55.85217,2.08333-78.125-19.084-27.569-59.76092-36.73778-92.70833-17.70834,1.3012-1.53922,18.1317-22.16028,10.41666-47.91666-6.26538-20.91676-24.10724-29.82506-27.08333-31.25,3.6928-7.00742,1.73155-15.50272-4.16667-19.79166A15.42036,15.42036,0,0,0,0,324.03V614.28H841.89V324.03Z" transform="translate(0.5 0.5)"/><path class="cls-2" d="M841.89,338.03c-1.84521.5072-22.73352,6.62836-29.515,27.08334-4.35583,13.13841-.36481,24.56839,1.04169,28.125-13.23938.60246-25.04877,7.76968-30.20837,18.75-6.96521,14.82281-.90118,34.65575,15.625,44.79167-4.12634-.865-31.80078-6.18027-56.25,12.5-20.92731,15.9894-25.20679,38.64491-26.04163,43.75-3.0506-2.14627-35.97589-24.46432-75-10.41666-34.94745,12.58017-47.29034,44.42729-48.95837,48.95833-16.84253-36.35641-55.23334-57.47213-93.75-52.08334-35.31561,4.94095-64.649,31.31228-73.95834,66.66667-9.20666-40.66244-46.15332-66.32779-81.25-61.45834-26.70029,3.7045-49.6441,24.70872-58.33334,53.125-0.80032-38.08685-27.58173-70.52766-63.54166-78.125-38.70612-8.17754-78.95465,14.34857-92.70833,53.125,16.87708-24.38427,17.50114-55.85217,2.08333-78.125-19.084-27.569-59.76092-36.73778-92.70833-17.70834,1.3012-1.53922,18.1317-22.16028,10.41666-47.91666-6.26538-20.91676-24.10724-29.82506-27.08333-31.25,3.6928-7.00742,1.73155-15.50272-4.16667-19.79166A15.42036,15.42036,0,0,0,0,338.03V628.28H841.89V338.03Z" transform="translate(0.5 0.5)"/></svg>