<svg id="Layer_1" data-name="Layer 1" xmlns="http://www.w3.org/2000/svg" viewBox="0 0 842.89001 875.25076"><defs><style>.cls-1{fill:#52602b;stroke:#52602b;}.cls-1,.cls-2{stroke-miterlimit:10;}.cls-2{fill:#3c5124;stroke:#3c5124;}</style></defs><title>bush2</title><path class="cls-1" d="M841.89,240.75c-1.84521-.5072-22.73352-6.62836-29.515-27.08334-4.35583-13.13841-.36481-24.56839,1.04169-28.125-13.23938-.60246-25.04877-7.76968-30.20837-18.75-6.96521-14.82281-.90118-34.65575,15.625-44.79167-4.12634.865-31.80078,6.18027-56.25-12.5C721.656,93.5106,717.37653,70.85509,716.54169,65.75c-3.0506,2.14627-35.97589,24.46432-75,10.41666-34.94745-12.58017-47.29034-44.42729-48.95837-48.95833-16.84253,36.35641-55.23334,57.47213-93.75,52.08334C463.51773,74.35072,434.1843,47.97939,424.875,12.625c-9.20666,40.66244-46.15332,66.32779-81.25,61.45834-26.70029-3.7045-49.6441-24.70872-58.33334-53.125C284.49133,59.04519,257.70993,91.486,221.75,99.08333c-38.70612,8.17754-78.95465-14.34857-92.70833-53.125,16.87708,24.38427,17.50114,55.85217,2.08333,78.125-19.084,27.569-59.76092,36.73778-92.70833,17.70834,1.3012,1.53922,18.1317,22.16028,10.41666,47.91666-6.26538,20.91676-24.10724,29.82506-27.08333,31.25,3.6928,7.00742,1.73155,15.50272-4.16667,19.79166A15.42036,15.42036,0,0,1,0,240.75V-49.5H841.89V240.75Z" transform="translate(0.5 64)"/><path class="cls-2" d="M841.89,226.75c-1.84521-.5072-22.73352-6.62836-29.515-27.08334-4.35583-13.13841-.36481-24.56839,1.04169-28.125-13.23938-.60246-25.04877-7.76968-30.20837-18.75-6.96521-14.82281-.90118-34.65575,15.625-44.79167-4.12634.865-31.80078,6.18027-56.25-12.5C721.656,79.5106,717.37653,56.85509,716.54169,51.75c-3.0506,2.14627-35.97589,24.46432-75,10.41666-34.94745-12.58017-47.29034-44.42729-48.95837-48.95833-16.84253,36.35641-55.23334,57.47213-93.75,52.08334C463.51773,60.35072,434.1843,33.97939,424.875-1.375c-9.20666,40.66244-46.15332,66.32779-81.25,61.45834-26.70029-3.7045-49.6441-24.70872-58.33334-53.125C284.49133,45.04519,257.70993,77.486,221.75,85.08333c-38.70612,8.17754-78.95465-14.34857-92.70833-53.125,16.87708,24.38427,17.50114,55.85217,2.08333,78.125-19.084,27.569-59.76092,36.73778-92.70833,17.70834,1.3012,1.53921,18.1317,22.16028,10.41666,47.91666-6.26538,20.91676-24.10724,29.82506-27.08333,31.25,3.6928,7.00742,1.73155,15.50272-4.16667,19.79166A15.42036,15.42036,0,0,1,0,226.75V-63.5H841.89V226.75Z" transform="translate(0.5 64)"/><path class="cls-1" d="M841.89,506.50076c-1.84521.5072-22.73352,6.62836-29.515,27.08334-4.35583,13.13841-.36481,24.56839,1.04169,28.125-13.23938.60246-25.04877,7.76968-30.20837,18.75-6.96521,14.82281-.90118,34.65575,15.625,44.79167-4.12634-.865-31.80078-6.18027-56.25,12.5-20.92731,15.9894-25.20679,38.64491-26.04163,43.75-3.0506-2.14627-35.97589-24.46433-75-10.41666-34.94745,12.58017-47.29034,44.42729-48.95837,48.95833-16.84253-36.35641-55.23334-57.47213-93.75-52.08334-35.31561,4.94095-64.649,31.31228-73.95834,66.66667-9.20666-40.66244-46.15332-66.32779-81.25-61.45834-26.70029,3.7045-49.6441,24.70872-58.33334,53.125-0.80032-38.08685-27.58173-70.52766-63.54166-78.125-38.70612-8.17754-78.95465,14.34857-92.70833,53.125,16.87708-24.38427,17.50114-55.85217,2.08333-78.125-19.084-27.569-59.76092-36.73778-92.70833-17.70834,1.3012-1.53922,18.1317-22.16028,10.41666-47.91666-6.26538-20.91676-24.10724-29.82506-27.08333-31.25,3.6928-7.00742,1.73155-15.50272-4.16667-19.79166a15.42036,15.42036,0,0,0-17.58333,0v290.25H841.89v-290.25Z" transform="translate(0.5 64)"/><path class="cls-2" d="M841.89,520.50076c-1.84521.5072-22.73352,6.62836-29.515,27.08334-4.35583,13.13841-.36481,24.56839,1.04169,28.125-13.23938.60246-25.04877,7.76968-30.20837,18.75-6.96521,14.82281-.90118,34.65575,15.625,44.79167-4.12634-.865-31.80078-6.18027-56.25,12.5-20.92731,15.9894-25.20679,38.64491-26.04163,43.75-3.0506-2.14627-35.97589-24.46433-75-10.41666-34.94745,12.58017-47.29034,44.42729-48.95837,48.95833-16.84253-36.35641-55.23334-57.47213-93.75-52.08334-35.31561,4.94095-64.649,31.31228-73.95834,66.66667-9.20666-40.66244-46.15332-66.32779-81.25-61.45834-26.70029,3.7045-49.6441,24.70872-58.33334,53.125-0.80032-38.08685-27.58173-70.52766-63.54166-78.125-38.70612-8.17754-78.95465,14.34857-92.70833,53.125,16.87708-24.38427,17.50114-55.85217,2.08333-78.125-19.084-27.569-59.76092-36.73778-92.70833-17.70834,1.3012-1.53922,18.1317-22.16028,10.41666-47.91666-6.26538-20.91676-24.10724-29.82506-27.08333-31.25,3.6928-7.00742,1.73155-15.50272-4.16667-19.79166a15.42036,15.42036,0,0,0-17.58333,0v290.25H841.89v-290.25Z" transform="translate(0.5 64)"/></svg>