<svg id="Layer_1" data-name="Layer 1" xmlns="http://www.w3.org/2000/svg" viewBox="0 0 842.89008 274.95833"><defs><style>.cls-1{fill:#330f2f;stroke:#330f2f;}.cls-1,.cls-2{stroke-miterlimit:10;}.cls-2{fill:#1f0e1f;stroke:#1f0e1f;opacity:0.49;}</style></defs><title>grass</title><rect class="cls-1" x="0.5" y="0.5" width="841.89" height="273.95833"/><path class="cls-2" d="M841.89008,418.375H0.00006V328.11408A36.48347,36.48347,0,0,1,5.0834,314.8758,29.96251,29.96251,0,0,1,19.66673,302.841q-0.50461,68.30347,3.125,68.5983,2.87226,0.23307,8.33333-42.12178a131.94554,131.94554,0,0,0,2.08333,40.91831c2.80553,13.16628,7.455,24.57343,9.375,24.06956,2.69186-.70643-4.475-23.64547,5.20834-38.5113,5.11813-7.85735,13.196-10.77631,18.75-12.03481-7.88778,23.365-10.66067,41.73933-6.25,44.52875,4.2578,2.69274,15.42605-9.00106,27.08333-26.47656-3.17931,17.37188-2.28767,32.0837,3.125,34.9009,6.58666,3.42826,19.42748-10.98691,25-25.27306,5.94157-15.23231,3.46921-29.93077,2.08334-36.10437,7.90382,4.54376,18.76411,12.67619,22.91666,26.47653,6.31517,20.98746-5.94843,44.89741-4.16667,45.73221,1.54391,0.72336,6.51643-19.214,20.83334-32.49393a52.7597,52.7597,0,0,1,28.125-13.23828c-9.48474,24.43056-11.1411,30.858-10.41667,31.29047,1.43146,0.85459,16.08067-19.3566,17.70833-45.73221a81.91769,81.91769,0,0,0-3.125-27.68c15.89545,21.761,18.22556,37.93184,16.66667,49.34261-1.65132,12.08745-7.99437,21.23321-5.20833,24.06959,2.74709,2.79671,12.94443-1.99188,17.70833-10.83131,4.41112-8.18483,1.14589-14.2431,5.20833-20.45915,2.496-3.81917,7.71964-7.639,19.79167-7.22087-10.6011,12.33652-13.422,25.55213-9.375,31.29047,2.86108,4.05681,9.62939,5.04957,14.58333,2.407,9.13542-4.87317,6.75124-19.25512,15.625-34.9009A54.286,54.286,0,0,1,285.29172,332.928c6.7811,28.67713,12.894,48.79749,16.66669,48.13918,7.04385-1.2291,2.8428-74.35367,6.25-74.61571,3.34985-.25763,6.72409,70.48007,15.625,71.00527,4.77939,0.282,9.89954-19.7536,14.58331-45.73221,4.6701,6.83406,9.40015,16.32626,9.375,27.68-0.024,10.83628-4.3685,18.3321-3.125,19.25565,1.2587,0.93484,7.26862-5.588,27.08334-36.10437-10.03848,41.08282-8.69339,52.187-5.20834,54.15655,3.43677,1.9423,9.73517-4.55754,12.5-8.42434,7.86792-11.00386,4.53149-25.03609,4.16669-26.47656q1.1646,29.16526,8.33331,31.29047,10.61082,3.14473,34.375-52.95309c4.53012,5.65714,9.83893,14.26835,10.41669,25.27306,0.4252,8.09849-2.018,11.6596,0,16.84872,3.92541,10.0936,20.65082,15.8562,27.08331,9.62784,11.20142-10.846-9.61746-57.27144-6.25-58.97049,3.39645-1.71369,21.68185,46.97478,29.16669,44.52875,4.65762-1.5221,4.03455-22.4859,1.04166-50.54612,11.14008,7.046,18.43808,15.70864,22.91666,25.27306,7.25436,15.4923,5.662,30.25529,12.5,32.49393,4.11438,1.347,9.817-2.31949,11.45831-7.22087,4.02844-12.03005-16.33472-31.72224-15.625-32.49393,0.66077-.71849,15.34369,19.58049,19.79169,16.84868,3.86169-2.37175-.84772-21.57723-6.25-39.71481,10.79022,9.40582,22.32263,23.12841,26.04163,42.12178,3.22021,16.44589-.52551,31.18515,0,31.29047,0.50494,0.10119,3.2583-13.64943,12.5-69.8018,5.45886,38.90923,16.20715,65.44876,25,64.98786,8.40533-.44059,16.41241-25.62687,19.79169-58.97046,13.82312,51.4897,21.51587,62.07938,26.04169,61.37743,5.31439-.82427,5.11633-17.04006,17.70831-32.49393a57.32115,57.32115,0,0,1,22.91669-16.84872c-15.13953,30.92424-16.18945,40.76469-13.54169,43.32524,3.2135,3.10769,13.20593-3.21946,18.75-10.83131,7.93835-10.89908,6.5343-24.127,6.25-26.47653,3.62476,4.78834,7.24518,11.37573,7.29169,19.25565,0.07117,12.04835-8.26489,18.29183-6.25,21.66262,2.77539,4.643,23.43372.89753,31.25-15.64522,5.58545-11.82125,1.98407-24.61264,1.04163-27.68a94.32484,94.32484,0,0,1,20.83337,12.03481c11.27936,8.57535,16.12653,16.13375,18.75,14.44175,3.29529-2.12529-2.06262-15.52728-3.125-32.49393a105.22205,105.22205,0,0,1,7.29163-44.52875c-0.67969,5.93987-4.22443,40.64661,14.58337,58.97049,2.23859,2.181,10.5257,10.25491,15.625,7.22087,7.55023-4.49231,3.66614-30.69146-1.04169-52.95309q16.28586,70.98845,22.91669,69.80177,7.108-1.26908,3.125-85.447,7.98669,16.84872,15.97333,33.6974V418.375Z" transform="translate(0.5 -143.91667)"/><path class="cls-1" d="M841.89,418.375H0V340.25a29.08641,29.08641,0,0,1,5.08333-11.45834A29.71128,29.71128,0,0,1,19.66667,318.375q-0.50461,59.11981,3.125,59.375,2.87226,0.20174,8.33333-36.45834a99.1482,99.1482,0,0,0,2.08333,35.41669c2.80553,11.396,7.455,21.26944,9.375,20.83331,2.69186-.61145-4.475-20.46625,5.20834-33.33331,5.11813-6.8009,13.196-9.32739,18.75-10.41669-7.88778,20.22348-10.66067,36.12732-6.25,38.54169,4.2578,2.33069,15.42605-7.79083,27.08333-22.91669-3.17931,15.03616-2.28767,27.76993,3.125,30.20834,6.58666,2.96732,19.42748-9.50967,25-21.875,5.94157-13.18427,3.46921-25.90646,2.08334-31.25,7.90382,3.93283,18.76411,10.97183,22.91666,22.91666,6.31517,18.16562-5.94843,38.86078-4.16667,39.58334,1.54391,0.6261,6.51643-16.63058,20.83334-28.125,9.36649-7.51993,19.941-10.33234,28.125-11.45834-9.48474,21.14578-11.1411,26.709-10.41667,27.08334,1.43146,0.73969,16.08067-16.754,17.70833-39.58334a61.95283,61.95283,0,0,0-3.125-23.95831c15.89545,18.83517,18.22556,32.83176,16.66667,42.70831-1.65132,10.46225-7.99437,18.37833-5.20833,20.83334,2.74709,2.42068,12.94443-1.72406,17.70833-9.375,4.41112-7.08435,1.14589-12.32806,5.20833-17.70834,2.496-3.30566,7.71964-6.61188,19.79167-6.25-10.6011,10.67783-13.422,22.11655-9.375,27.08334,2.86108,3.51135,9.62939,4.37064,14.58333,2.08334,9.13542-4.218,6.75124-16.6662,15.625-30.20834,5.54456-8.46146,13.27924-13.98483,20.83331-17.70834,6.7811,24.82138,12.894,42.23648,16.66669,41.66669,7.04385-1.06384,2.8428-64.35654,6.25-64.58334,3.34985-.223,6.72409,61.00375,15.625,61.45834,4.77939,0.24408,9.89954-17.09766,14.58331-39.58334,4.67011,5.91519,9.40015,14.13113,9.375,23.95834-0.024,9.3793-4.3685,15.86728-3.125,16.66666,1.2587,0.80914,7.26862-4.83667,27.08334-31.25-10.03848,35.55908-8.69339,45.17023-5.20834,46.875,3.43677,1.68115,9.73517-3.94476,12.5-7.29166,7.86792-9.52435,4.53149-21.66989,4.16669-22.91669q1.1646,25.24388,8.33331,27.08334,10.61082,2.72191,34.375-45.83334c4.53012,4.89651,9.83893,12.34991,10.41669,21.875,0.4252,7.00961-2.018,10.09192,0,14.58334,3.92541,8.73648,20.65082,13.72427,27.08331,8.33334,11.20142-9.3877-9.61746-49.57108-6.25-51.04169,3.39645-1.48328,21.68185,40.65884,29.16669,38.54169,4.65762-1.31744,4.03455-19.46259,1.04166-43.75,11.14008,6.09866,18.43808,13.59656,22.91666,21.875,7.25436,13.4093,5.662,26.18735,12.5,28.125,4.11438,1.16586,9.817-2.00763,11.45831-6.25,4.02844-10.41257-16.33472-27.45706-15.625-28.125,0.66077-.62189,15.34369,16.94781,19.79169,14.58331,3.86169-2.05286-.84772-18.67609-6.25-34.375,10.79022,8.14117,22.32263,20.01871,26.04163,36.45834,3.22021,14.23468-.52551,26.99219,0,27.08334,0.50494,0.08759,3.2583-11.81421,12.5-60.41669,5.45886,33.67773,16.20715,56.64893,25,56.25,8.40533-.38135,16.41241-22.18124,19.79169-51.04166,13.82312,44.56671,21.51587,53.73257,26.04169,53.125,5.31439-.71344,5.11633-14.749,17.70831-28.125a57.82254,57.82254,0,0,1,22.91669-14.58334c-15.13953,26.76636-16.18945,35.28372-13.54169,37.5,3.2135,2.68985,13.20593-2.78659,18.75-9.375,7.93835-9.43365,6.5343-20.88306,6.25-22.91666,3.62476,4.14453,7.24518,9.84622,7.29169,16.66666,0.07117,10.42841-8.26489,15.83243-6.25,18.75,2.77539,4.01877,23.43372.77686,31.25-13.54166,5.58545-10.23184,1.98407-21.30338,1.04163-23.95834a99.03751,99.03751,0,0,1,20.83337,10.41669c11.27936,7.42236,16.12653,13.96451,18.75,12.5,3.29529-1.83954-2.06262-13.43958-3.125-28.125-1.15363-15.94684,3.2027-29.383,7.29163-38.54169-0.67969,5.14124-4.22443,35.18152,14.58337,51.04169,2.23859,1.88776,10.5257,8.8761,15.625,6.25,7.55023-3.88831,3.66614-26.56488-1.04169-45.83334q16.28586,61.44379,22.91669,60.41666,7.108-1.09845,3.125-73.95831Q833.90338,325.66669,841.89,340.25v78.125Z" transform="translate(0.5 -143.91667)"/></svg>