<svg id="Layer_1" data-name="Layer 1" xmlns="http://www.w3.org/2000/svg" viewBox="0 0 852.13098 249.20655"><defs><style>.cls-1{fill:#330f2f;stroke:#330f2f;}.cls-1,.cls-2,.cls-3{stroke-miterlimit:10;}.cls-2{fill:#52602c;stroke:#52602c;}.cls-3{fill:#3c5124;stroke:#3c5124;}</style></defs><title>grass4</title><rect class="cls-1" x="1.25895" y="0.5" width="850.37204" height="248.20655"/><path class="cls-2" d="M-9.24021,594.69451H841.25295V562.85559q-2.56157-3.6902-5.12314-7.38032,0.70479,28.56537-1.14315,28.83078-1.97366.2831-6.85893-31.71385-0.57158,11.292-1.14315,22.5841-3.42946-9.61021-6.85893-19.2205,1.31641,25.62664-.38105,25.94771-1.90747.36122-7.621-31.23339-0.47408,17.76143-3.04841,18.2595-2.13541.41311-5.71577-11.05174,2.8879,28.37065,1.14316,28.83078-2.02469.53437-10.28839-36.519,1.17338,23.73811-.38105,24.02564-1.15379.21337-3.81051-12.49336-2.48318,16.48469-3.81052,16.33743-1.5516-.1714-1.5242-23.06464-3.86307,20.90689-6.47788,20.66211-2.12842-.19973-3.42946-14.41543-2.628,19.83664-3.81052,19.701-1.41265-.16254-0.7621-28.83078-4.45227,26.66809-7.621,26.42825-2.78062-.21093-4.57262-21.14257Q755.91,580.5225,755.34687,580.462q-0.65233-.06891.7621-31.23339-7.18913,33.72027-9.90735,33.15539-2.1147-.43852-1.5242-21.623-3.74954,20.87179-6.47788,20.662-3.16348-.24369-4.95367-28.83078c1.28444,11.26691-.81414,19.29963-3.81051,20.18157-3.178.93542-7.1069-6.24924-7.621-7.20775q0.21755,17.9516-1.52421,18.25958-2.21956.39188-7.621-27.86979-0.19919,23.85214-1.90526,24.02564-1.81484.18364-5.33473-26.42825-3.79887,23.30763-5.71577,23.06464-2.2545-.28648-1.90525-33.15539-4.91231,37.23906-8.00209,36.99953-2.5033-.19355-3.81051-24.98671-3.97651,26.61562-6.85894,26.42825-2.51076-.163-4.19157-20.66211-2.34831,12.40715-4.95366,12.49336-3.90293.12954-8.38313-27.38925-0.57177,31.97666-4.57262,32.67493-2.66747.465-6.85894-12.97389-1.12019,14.34209-2.66736,14.41543-2.22563.10587-5.33472-29.31132c-0.17414,5.633-1.06987,30.13015-5.33472,30.75286-3.54674.51785-7.83669-15.70757-9.5263-22.5841q-0.12374,18.68045-2.66736,19.2205-2.0625.43747-5.71577-11.05182-2.14817,15.87885-4.19157,15.857-2.559-.02682-4.95368-24.98671c-0.66445,5.28591-2.71861,20.12452-5.71577,20.18157-2.25386.04291-4.19489-8.28924-5.33472-14.41543q-2.7406,20.69176-5.33472,20.66211-2.95258-.03311-5.71577-26.90871-1.26989,17.21424-3.04841,17.29842-2.25767.10657-5.33473-27.38925-2.19909,24.05316-4.19157,24.02564-1.5899-.02169-3.04841-15.37643-0.97442,28.22071-3.04841,28.35032-1.84917.11508-4.57261-22.10364-2.45018,16.40517-4.57264,16.3375-2.75212-.0871-4.95365-27.86979-1.93239,30.09664-4.95368,30.27232-2.77842.16067-6.47787-24.98671c-0.09271,1.9541-1.12068,22.30318-4.19157,22.58418-2.88213.26374-6.0505-17.28793-6.4779-19.701q-1.30156,19.69334-2.66734,19.701-1.66692.00863-3.42949-29.31132-2.78536,24.39141-6.09683,24.50618-2.34486.0808-4.95365-12.01282-1.67224,18.24683-3.42949,18.2595-2.03844.01516-4.19157-24.50618-1.86743,29.67071-4.57261,29.79178-2.35106.1061-5.33472-22.10357-3.7111,23.27825-6.09683,23.06464-2.85336-.256-3.81053-34.11646c-0.24577,8.71769-1.01608,24.09117-3.81053,24.50618-2.27961.33852-5.12409-9.39365-7.24-18.2595-0.53474,9.18867-1.60852,22.985-3.42945,23.06464-1.74339.07625-3.50133-12.45029-4.57261-21.62311,0.37956,11.49956-2.6004,20.08689-5.71579,20.662-3.2285.596-8.4027-7.08027-10.28839-19.701q-0.11262,19.62326-1.14315,19.701-1.14654.08558-3.42945-24.02564-1.9034,27.38808-3.81053,27.38925-1.71329.00035-3.42945-22.10357-1.79448,14.924-3.42949,14.89589-2.02785-.0344-3.81049-23.06464-0.85769,22.13081-3.81053,22.5841-2.12494.32659-5.33472-10.57128-2.54934,18.38675-4.19157,18.2595-2.02055-.15741-2.66737-28.35025-2.0855,19.13775-4.57261,19.2205-2.138.07171-4.57264-13.93489-1.56286,15.8-3.42945,15.857-2.09489.06425-4.57261-19.701c0.80585,6.95862-.58834,12.06016-2.2863,12.49336-1.6014.40856-4.14108-3.16493-5.71579-8.64929q-0.37031,19.55517-1.90526,19.701-1.83511.17513-5.33472-27.38925-0.11234,31.28582-3.04841,31.71393-2.55281.37148-7.24-22.58418-0.54586,11.376-1.90526,11.53236-1.56013.17991-4.19157-14.41543c0.3047,16.26374-.49391,19.12007-1.14315,19.22057-0.65624.10152-2.01437-2.48026-4.95368-19.22057-0.66854,11.331-3.26274,19.12605-5.71576,19.22057-2.32.08939-5.00487-6.69037-6.4779-15.857-0.33247,2.58225-1.85768,13.71561-4.57261,13.93489-3.45118.27875-6.67765-17.25217-6.85894-18.2595-0.4956,4.13525-2.5272,20.17419-5.33472,20.18157-2.3595.00622-4.22029-11.31362-4.95368-16.3375q-2.178,12.60432-3.81049,12.49336-1.88971-.129-3.04845-17.29842-4.93984,24.83133-8.38313,24.5061-2.77112-.26211-4.57261-16.818-0.43069,16.18433-1.90523,16.3375-1.74542.18073-4.95368-22.10364-1.236,24.76394-3.81053,24.98671-2.18527.18959-5.33475-17.2985-2.33414,18.33533-4.19153,18.2595-2.25749-.09293-3.81053-27.38925-3.13894,26.55091-5.33475,26.42825-1.57677-.08861-2.66731-13.93489-2.73071,12.6948-4.57267,12.49336-2.10437-.23063-3.04838-17.2985-3.29788,20.29043-6.09683,20.18157-2.25822-.0878-4.19153-13.45435-1.73941,14.42418-3.42952,14.41535-2.13516-.01166-4.19153-23.06464-4.00134,22.35281-5.33475,22.10364-1.102-.20684-0.381-15.857c-0.55447,2.643-3.04937,14.1017-5.71582,13.93489-3.27165-.20467-4.83193-17.7879-4.95368-19.2205q-1.54635,16.53308-4.19153,16.818-3.19811.34385-8.00206-23.06464-1.281,23.96921-3.04844,24.02564-1.37668.04454-3.04838-14.41535c-1.60738,9.692-3.26031,14.37952-4.95368,14.41535-2.0393.04314-4.19634-6.659-6.4779-20.662q-0.89735,22.958-2.66737,23.06464-1.2918.07847-3.04838-12.0129-3.22169,9.54223-4.95368,9.12975-2.48217-.59068-1.90529-21.623-3.95085,12.48632-5.71576,12.01282-2.05878-.55221-1.14315-18.74-7.32853,27.63294-10.28836,26.90871-2.45166-.60059-1.90529-20.662c-0.20484.54855-4.10524,10.82881-6.85891,10.09075-2.11463-.56674-3.28768-7.56011-2.66737-17.29842q-4.4385,24.761-7.62105,24.50618-2.7578-.22014-4.57261-19.22057c-0.32159,1.06236-2.91505,9.46011-5.33469,9.12975-1.99917-.273-3.57086-6.46207-3.81053-15.37643q-1.05944,28.5684-3.81053,28.83078-2.40311.2283-6.09683-21.14257-2.08162,19.99882-4.95368,20.18157-2.39285.15181-5.33469-13.45435-4.0264,12.0225-6.4779,11.53228-3.68733-.73806-3.81053-29.79178-5.29906,33.42-9.14521,33.15539-3.43842-.23576-5.71582-27.38925-4.3993,27.09659-5.33469,26.90871-0.75866-.15321.76208-18.2595c-3.51612,9.09314-7.98246,15.33329-10.66943,14.41543-2.90346-.99178-4.44618-10.586-2.66737-23.54518-0.53826,2.12534-5.3578,20.86623-8.76414,20.18157-2.89329-.58151-3.34642-14.89231-3.42952-18.2595q-2.60783,27.90566-4.95368,27.86979-1.7911-.0267-3.42945-16.33743-3.48937,16.08056-6.09683,15.85689-3.43121-.29523-5.33469-28.83078-6.49276,32.65946-10.66943,32.19439-3.46339-.385-5.33475-23.54518-3.2437,15.63761-4.95368,15.37643-1.92083-.29464-1.90523-20.662c-2.74307,11.09831-6.70067,24.52289-9.90735,24.02564-1.31877-.20451-3.36214-2.89566-4.57261-18.74Q4.80853,582.10239,2.389,581.423q-2.8658-.80347-0.76214-29.79178-5.4335,5.61219-10.86706,11.22439v31.83892Z" transform="translate(9.74098 -346.57345)"/><path class="cls-3" d="M-9.241,595.28H841.89v-25q-2.56349-2.89755-5.127-5.795,0.70532,22.4296-1.144,22.638-1.97514.22229-6.86407-24.90179-0.572,8.86652-1.144,17.73309-3.432-7.546-6.86407-15.092,1.31739,20.1221-.38134,20.37421-1.9089.28363-7.62675-24.52454-0.47444,13.94632-3.0507,14.3374-2.137.32437-5.72006-8.67786,2.89006,22.2767,1.144,22.638-2.0262.41959-10.29611-28.6748,1.17426,18.63922-.38134,18.865-1.15465.16754-3.81337-9.80981-2.485,12.94382-3.81338,12.82819-1.55277-.13458-1.52535-18.11041-3.866,16.41614-6.48274,16.22394-2.13-.15683-3.432-11.319-2.63,15.57578-3.81338,15.4693-1.41371-.12762-0.76268-22.638-4.45561,20.93985-7.62674,20.75153-2.7827-.16562-4.57605-16.6012-2.10578,18.15793-2.66936,18.11041-0.65282-.05411.76268-24.52454-7.19452,26.47723-9.91478,26.03369-2.11629-.34433-1.52534-16.97845-3.75235,16.38858-6.48274,16.22388-3.16586-.19135-4.95738-22.638c1.2854,8.8468-.81475,15.15411-3.81337,15.84662-3.18038.7345-7.11223-4.90692-7.62675-5.65955q0.21772,14.09564-1.52535,14.33746-2.22123.30771-7.62674-21.88342-0.19934,18.72876-1.90668,18.865-1.8162.1442-5.33873-20.75153-3.80172,18.30121-5.72006,18.11041-2.25619-.22494-1.90668-26.03369-4.916,29.2402-8.00809,29.05212-2.50518-.152-3.81337-19.61963-3.97949,20.89865-6.86408,20.75153-2.51265-.128-4.19471-16.22394-2.35007,9.74213-4.95738,9.80981-3.90586.10172-8.38942-21.5061-0.5722,25.10815-4.57605,25.65643-2.66947.36511-6.86408-10.18713-1.121,11.26144-2.66936,11.319-2.2273.08313-5.33872-23.01532c-0.17427,4.423-1.07068,23.65826-5.33872,24.14722-3.5494.40662-7.84257-12.33362-9.53344-17.73309q-0.12383,14.66794-2.66936,15.092-2.06405.34351-5.72006-8.67792-2.14978,12.46811-4.19471,12.45093-2.56088-.02106-4.95739-19.61963c-0.665,4.15051-2.72065,15.80182-5.72006,15.84662-2.25555.03369-4.198-6.50873-5.33872-11.319q-2.74266,16.24722-5.33872,16.22394-2.95479-.026-5.72006-21.12878-1.27084,13.51666-3.0507,13.58276-2.25936.08368-5.33873-21.5061-2.20074,18.8866-4.19471,18.865-1.59109-.017-3.0507-12.07361-0.97515,22.159-3.0507,22.26074-1.85056.09036-4.576-17.35584-2.452,12.88138-4.57607,12.82825-2.75418-.06839-4.95736-21.88342-1.93383,23.632-4.95739,23.7699-2.78051.12616-6.48273-19.61963c-0.09278,1.53436-1.12152,17.51251-4.19471,17.73315-2.8843.20709-6.055-13.57452-6.48276-15.4693q-1.30253,15.46326-2.66934,15.4693-1.66817.00677-3.43206-23.01532-2.78745,19.15219-6.1014,19.24231-2.34662.06345-4.95736-9.4325-1.67349,14.32745-3.43206,14.3374-2.04.0119-4.19471-19.24231-1.86883,23.29752-4.576,23.39258-2.35282.08331-5.33872-17.35577-3.71388,18.27814-6.1014,18.11041-2.8555-.201-3.81338-26.78833c-0.246,6.84515-1.01684,18.91644-3.81338,19.24231-2.28132.26581-5.12793-7.37592-7.24541-14.3374-0.53515,7.215-1.60972,18.04791-3.432,18.11041-1.7447.05988-3.504-9.776-4.576-16.97852,0.37985,9.02948-2.60235,15.77228-5.72007,16.22388-3.23092.468-8.409-5.55945-10.29611-15.4693q-0.1127,15.40823-1.144,15.4693-1.1474.0672-3.432-18.865-1.90483,21.50519-3.81338,21.5061-1.71458.00027-3.432-17.35577-1.79582,11.71838-3.43206,11.69629-2.02937-.027-3.81335-18.11041-0.85833,17.37717-3.81338,17.73309-2.12653.25644-5.33872-8.3006-2.55126,14.43732-4.19471,14.3374-2.02206-.1236-2.66937-22.26068-2.08707,15.027-4.576,15.092-2.13958.0563-4.57607-10.94171-1.564,12.40622-3.432,12.45093-2.09646.05045-4.576-15.4693c0.80645,5.46393-.58878,9.46967-2.288,9.80981-1.6026.3208-4.14419-2.48511-5.72007-6.79144q-0.37059,15.35477-1.90669,15.4693-1.83649.13751-5.33872-21.5061-0.11243,24.5657-3.0507,24.90186-2.55473.29169-7.24541-17.73315-0.54627,8.93243-1.90669,9.05524-1.5613.14127-4.19471-11.319c0.30493,12.77032-.49428,15.01312-1.144,15.092-0.65673.07971-2.01588-1.94751-4.95739-15.092-0.669,8.89716-3.26519,15.01782-5.72,15.092-2.32176.07019-5.00862-5.2533-6.48276-12.45093-0.33272,2.02759-1.85907,10.76953-4.576,10.94171-3.45377.21887-6.68266-13.54645-6.86408-14.3374-0.496,3.247-2.5291,15.84082-5.33872,15.84662-2.36127.00488-4.22346-8.88348-4.95739-12.82825q-2.1796,9.89694-3.81335,9.80981-1.89113-.10126-3.05073-13.58276-4.94354,19.49762-8.38942,19.24225-2.7732-.20581-4.576-13.20551-0.431,12.708-1.90666,12.82825-1.74673.14191-4.95739-17.35583-1.23688,19.4447-3.81338,19.61963-2.18691.14886-5.33875-13.58282-2.33589,14.39694-4.19468,14.3374-2.25918-.073-3.81338-21.5061-3.14129,20.84784-5.33875,20.75153-1.578-.06958-2.66931-10.94171-2.73276,9.968-4.5761,9.80981-2.10594-.18109-3.05067-13.58282-3.30035,15.9321-6.1014,15.84662-2.25992-.06894-4.19468-10.56439-1.74072,11.3259-3.43209,11.319-2.13676-.00916-4.19468-18.11041-4.00434,17.55148-5.33875,17.35583-1.1028-.16241-0.3813-12.45093c-0.55489,2.07526-3.05166,11.07269-5.72011,10.94171-3.2741-.16071-4.83556-13.9671-4.95739-15.092q-1.54751,12.98181-4.19468,13.20551-3.20051.27-8.00806-18.11041-1.28194,18.82068-3.05073,18.865-1.37771.035-3.05067-11.319c-1.60858,7.61017-3.26275,11.29083-4.95739,11.319-2.04083.03387-4.19949-5.2287-6.48276-16.22388q-0.898,18.02664-2.66937,18.11041-1.29277.06161-3.05067-9.43256-3.22411,7.49258-4.95739,7.1687-2.484-.46381-1.90672-16.97845-3.95382,9.80429-5.72,9.4325-2.06033-.43359-1.144-14.71472-7.334,21.69745-10.29608,21.12878-2.4535-.47159-1.90672-16.22388c-0.205.43073-4.10831,8.50281-6.86405,7.92328-2.11622-.445-3.29014-5.93622-2.66937-13.58276q-4.44183,19.44241-7.62677,19.24231-2.75987-.17285-4.576-15.092c-0.32183.83417-2.91724,7.4281-5.33869,7.1687-2.00067-.21436-3.57354-5.074-3.81338-12.07361q-1.06024,22.432-3.81338,22.638-2.40492.17926-6.1014-16.6012-2.08318,15.70313-4.95739,15.84662-2.39465.1192-5.33869-10.56439-4.02942,9.44009-6.48276,9.05518-3.6901-.57953-3.81338-23.39258-5.303,26.24149-9.15207,26.03369-3.441-.18512-5.72011-21.5061-4.4026,21.27631-5.33869,21.12878-0.75923-.1203.76265-14.3374c-3.51876,7.14-7.98844,12.03973-10.67744,11.319-2.90564-.77875-4.44951-8.31213-2.66937-18.48773C79.65106,564.64457,74.8279,579.36,71.419,578.82236c-2.89546-.4566-3.34893-11.69348-3.43209-14.3374q-2.60978,21.91159-4.95739,21.88342-1.79244-.021-3.432-12.82819-3.492,12.6265-6.1014,12.45087-3.43378-.23181-5.33869-22.638Q41.65979,588.99735,37.48,588.63218q-3.466-.30231-5.33875-18.48773-3.24613,12.27869-4.95739,12.07361-1.92227-.23135-1.90666-16.22388c-2.74513,8.71442-6.7057,19.25543-9.91478,18.865-1.31976-.16058-3.36466-2.27368-4.576-14.71472q-5.96806,15.2482-8.38942,14.71472-2.86795-.63089-0.76271-23.39258Q-3.80335,565.8733-9.241,570.28v25Z" transform="translate(9.74098 -346.57345)"/></svg>