<svg id="Layer_1" data-name="Layer 1" xmlns="http://www.w3.org/2000/svg" viewBox="0 0 843.75148 52.98509"><defs><style>.cls-1{fill:#52602c;stroke:#52602c;}.cls-1,.cls-2{stroke-miterlimit:10;}.cls-2{fill:#3c5124;stroke:#3c5124;}</style></defs><title>grass4</title><path class="cls-1" d="M-0.86072,594.69451H841.25922V562.85558q-2.53635-3.6902-5.07271-7.38032,0.69786,28.56537-1.1319,28.83078-1.95423.2831-6.7914-31.71385-0.566,11.292-1.1319,22.5841-3.3957-9.61021-6.7914-19.2205,1.30344,25.62664-.3773,25.94771-1.88869.36122-7.546-31.23339-0.46942,17.76143-3.0184,18.2595-2.11439.41311-5.6595-11.05174,2.85947,28.37065,1.1319,28.83078-2.00475.53437-10.1871-36.519,1.16183,23.73811-.3773,24.02564-1.14243.21337-3.773-12.49336-2.45873,16.48469-3.773,16.33743-1.53633-.1714-1.5092-23.06464-3.825,20.90689-6.4141,20.66211-2.10746-.19973-3.3957-14.41543-2.60211,19.83664-3.773,19.701-1.39874-.16254-0.7546-28.83078-4.40844,26.66809-7.546,26.42825-2.75324-.21093-4.5276-21.14257-2.08349,23.12516-2.6411,23.06464-0.6459-.06891.7546-31.23339-7.11835,33.72027-9.80981,33.15539-2.09388-.43852-1.50919-21.623-3.71262,20.87179-6.41411,20.662-3.13234-.24369-4.9049-28.83078c1.27179,11.26691-.80612,19.29963-3.773,20.18157-3.14671.93542-7.03693-6.24924-7.546-7.20775q0.21541,17.9516-1.5092,18.25958-2.19771.39188-7.546-27.86979-0.19723,23.85214-1.8865,24.02564-1.797.18364-5.28221-26.42825-3.76147,23.30763-5.6595,23.06464-2.23231-.28648-1.88649-33.15539-4.86394,37.23906-7.92331,36.99953-2.47865-.19355-3.773-24.98671-3.93736,26.61562-6.79141,26.42825-2.486-.163-4.1503-20.66211-2.32519,12.40715-4.90489,12.49336-3.86451.12954-8.3006-27.38925-0.56614,31.97666-4.5276,32.67493-2.6412.465-6.79141-12.97389-1.10916,14.34209-2.6411,14.41543-2.20372.10587-5.2822-29.31132c-0.17242,5.633-1.05934,30.13015-5.2822,30.75286-3.51183.51785-7.75954-15.70757-9.43251-22.5841q-0.12252,18.68045-2.6411,19.2205-2.0422.43747-5.6595-11.05182-2.127,15.87885-4.1503,15.857-2.53377-.02682-4.90491-24.98671c-0.65791,5.28591-2.69185,20.12452-5.6595,20.18157-2.23167.04291-4.15359-8.28924-5.2822-14.41543q-2.71362,20.69176-5.2822,20.66211-2.92351-.03311-5.6595-26.90871-1.25739,17.21424-3.0184,17.29842-2.23544.10657-5.28221-27.38925-2.17744,24.05316-4.1503,24.02564-1.57425-.02169-3.0184-15.37643-0.96483,28.22071-3.0184,28.35032-1.831.11508-4.52759-22.10364-2.42606,16.40517-4.52762,16.3375-2.725-.0871-4.90488-27.86979-1.91336,30.09664-4.90491,30.27232-2.75107.16067-6.41409-24.98671c-0.0918,1.9541-1.10965,22.30318-4.1503,22.58418-2.85376.26374-5.99094-17.28793-6.41412-19.701q-1.28874,19.69334-2.64108,19.701-1.65051.00863-3.39572-29.31132-2.75793,24.39141-6.0368,24.50618-2.32178.0808-4.90488-12.01282-1.65578,18.24683-3.39572,18.2595-2.01837.01516-4.1503-24.50618-1.849,29.67071-4.52759,29.79178-2.32791.1061-5.2822-22.10357-3.67456,23.27825-6.0368,23.06464-2.82527-.256-3.773-34.11646c-0.24335,8.71769-1.00607,24.09117-3.773,24.50618-2.25717.33852-5.07364-9.39365-7.1687-18.2595-0.52948,9.18867-1.59268,22.985-3.39569,23.06464-1.72623.07625-3.46686-12.45029-4.52759-21.62311,0.37582,11.49956-2.5748,20.08689-5.65952,20.662-3.19672.596-8.32-7.08027-10.1871-19.701q-0.11151,19.62326-1.1319,19.701-1.13525.08558-3.39569-24.02564-1.88466,27.38808-3.773,27.38925-1.69643.00035-3.39569-22.10357-1.77681,14.924-3.39572,14.89589-2.00789-.0344-3.773-23.06464-0.84924,22.13081-3.773,22.5841-2.104.32659-5.2822-10.57128-2.52425,18.38675-4.1503,18.2595-2.00066-.15741-2.64111-28.35025-2.065,19.13775-4.52759,19.2205-2.11693.07171-4.52762-13.93489-1.54747,15.8-3.39569,15.857-2.07426.06425-4.52759-19.701c0.79791,6.95862-.58255,12.06016-2.26379,12.49336-1.58563.40856-4.10031-3.16493-5.65952-8.64929q-0.36667,19.55517-1.88651,19.701-1.817.17513-5.2822-27.38925-0.11124,31.28582-3.0184,31.71393-2.52768.37148-7.1687-22.58418-0.54048,11.376-1.88651,11.53236-1.54477.17991-4.1503-14.41543c0.3017,16.26374-.489,19.12007-1.1319,19.22057-0.64978.10152-1.99454-2.48026-4.90491-19.22057-0.662,11.331-3.23062,19.12605-5.65948,19.22057-2.29718.08939-4.9556-6.69037-6.41412-15.857-0.32919,2.58225-1.83939,13.71561-4.52759,13.93489-3.41721.27875-6.61191-17.25217-6.79141-18.2595-0.49072,4.13525-2.50232,20.17419-5.2822,20.18157-2.33627.00622-4.17874-11.31362-4.90491-16.3375q-2.15652,12.60432-3.773,12.49336-1.87111-.129-3.01843-17.29842-4.8912,24.83133-8.3006,24.5061-2.74384-.26211-4.52759-16.818-0.42645,16.18433-1.88647,16.3375-1.72824.18073-4.90491-22.10364-1.22379,24.76394-3.773,24.98671-2.16376.18959-5.28223-17.2985-2.31116,18.33533-4.15027,18.2595-2.23526-.09293-3.773-27.38925-3.108,26.55091-5.28223,26.42825-1.56125-.08861-2.64105-13.93489-2.70383,12.6948-4.52765,12.49336-2.08365-.23063-3.01837-17.2985-3.26541,20.29043-6.0368,20.18157-2.236-.0878-4.15027-13.45435-1.72229,14.42418-3.39575,14.41535-2.11414-.01166-4.15027-23.06464-3.96194,22.35281-5.28223,22.10364-1.09113-.20684-0.37726-15.857c-0.549,2.643-3.01935,14.1017-5.65955,13.93489-3.23944-.20467-4.78436-17.7879-4.90491-19.2205q-1.53113,16.53308-4.15027,16.818-3.16663.34385-7.92328-23.06464-1.26837,23.96921-3.01843,24.02564-1.36313.04454-3.01837-14.41535c-1.59155,9.692-3.22821,14.37952-4.90491,14.41535-2.01923.04314-4.155-6.659-6.41412-20.662q-0.88852,22.958-2.64111,23.06464-1.27908.07847-3.01837-12.0129-3.19,9.54223-4.90491,9.12975-2.45773-.59068-1.88654-21.623-3.912,12.48632-5.65948,12.01282-2.03851-.55221-1.1319-18.74-7.25638,27.63294-10.18707,26.90871-2.42752-.60059-1.88654-20.662c-0.20282.54855-4.06482,10.82881-6.79138,10.09075-2.09381-.56674-3.25531-7.56011-2.64111-17.29842q-4.39481,24.761-7.546,24.50618-2.73065-.22014-4.52759-19.22057c-0.31842,1.06236-2.88635,9.46011-5.28217,9.12975-1.97949-.273-3.53571-6.46207-3.773-15.37643q-1.049,28.5684-3.773,28.83078-2.37946.2283-6.0368-21.14257-2.06113,19.99882-4.90491,20.18157-2.36929.15181-5.28217-13.45435-3.98676,12.0225-6.41412,11.53228-3.651-.73806-3.773-29.79178-5.24689,33.42-9.05518,33.15539-3.40457-.23576-5.65955-27.38925-4.356,27.09659-5.28217,26.90871-0.75119-.15321.75458-18.2595c-3.48151,9.09314-7.90387,15.33329-10.56439,14.41543-2.87488-.99178-4.4024-10.586-2.64111-23.54518-0.533,2.12534-5.30505,20.86623-8.67786,20.18157-2.86481-.58151-3.31348-14.89231-3.39575-18.2595q-2.58215,27.90566-4.90491,27.86979-1.77347-.0267-3.39569-16.33743-3.455,16.08056-6.0368,15.85689-3.39743-.29523-5.28217-28.83078-6.42883,32.65946-10.56439,32.19439-3.42929-.385-5.28223-23.54518-3.21176,15.63761-4.90491,15.37643-1.90192-.29464-1.88647-20.662c-2.71606,11.09831-6.6347,24.52289-9.80981,24.02564-1.30579-.20451-3.329-2.89566-4.52759-18.74q-5.90488,19.41945-8.3006,18.74-2.83759-.80347-0.75464-29.79178-5.38,5.61219-10.76007,11.22439v31.83892Z" transform="translate(1.36148 -542.79491)"/><path class="cls-2" d="M-0.86148,595.28H841.89v-25q-2.53826-2.89755-5.07651-5.795,0.69838,22.4296-1.13275,22.638-1.9557.22229-6.79649-24.90179-0.56637,8.86652-1.13275,17.73309-3.39825-7.546-6.79649-15.092,1.30442,20.1221-.37758,20.37421-1.89011.28363-7.55166-24.52454-0.46977,13.94632-3.02067,14.3374-2.116.32437-5.66374-8.67786,2.86161,22.2767,1.13275,22.638-2.00626.41959-10.19474-28.6748,1.1627,18.63922-.37758,18.865-1.14329.16754-3.77583-9.80981-2.46058,12.94382-3.77583,12.82819-1.53748-.13458-1.51033-18.11041-3.8279,16.41614-6.41891,16.22394-2.109-.15683-3.39825-11.319-2.60406,15.57578-3.77583,15.4693-1.39979-.12762-0.75517-22.638-4.41174,20.93985-7.55166,20.75153-2.75531-.16562-4.531-16.6012-2.08505,18.15793-2.64308,18.11041-0.64639-.05411.75517-24.52454-7.12369,26.47723-9.81716,26.03369-2.09545-.34433-1.51033-16.97845-3.71541,16.38858-6.41892,16.22388-3.13469-.19135-4.90858-22.638c1.27274,8.8468-.80673,15.15411-3.77582,15.84662-3.14907.7345-7.04221-4.90692-7.55166-5.65955q0.21557,14.09564-1.51033,14.33746-2.19936.30771-7.55166-21.88342-0.19738,18.72876-1.88791,18.865-1.79832.1442-5.28617-20.75153-3.76429,18.30121-5.66374,18.11041-2.234-.22494-1.8879-26.03369-4.86759,29.2402-7.92925,29.05212-2.48051-.152-3.77582-19.61963-3.94032,20.89865-6.79651,20.75153-2.48791-.128-4.15341-16.22394-2.32693,9.74213-4.90857,9.80981-3.86741.10172-8.30682-21.5061-0.56656,25.10815-4.531,25.65643-2.64319.36511-6.79651-10.18713-1.11,11.26144-2.64308,11.319-2.20537.08313-5.28616-23.01532c-0.17255,4.423-1.06014,23.65826-5.28616,24.14722-3.51446.40662-7.76536-12.33362-9.43958-17.73309q-0.12261,14.66794-2.64308,15.092-2.04373.34351-5.66374-8.67792-2.12862,12.46811-4.15341,12.45093-2.53567-.02106-4.90859-19.61963c-0.65841,4.15051-2.69387,15.80182-5.66374,15.84662-2.23335.03369-4.15671-6.50873-5.28616-11.319q-2.71566,16.24722-5.28616,16.22394-2.9257-.026-5.66374-21.12878-1.25833,13.51666-3.02067,13.58276-2.23712.08368-5.28617-21.5061-2.17908,18.8866-4.15341,18.865-1.57543-.017-3.02067-12.07361-0.96555,22.159-3.02067,22.26074-1.83234.09036-4.531-17.35584-2.42788,12.88138-4.531,12.82825-2.72707-.06839-4.90856-21.88342-1.9148,23.632-4.90859,23.7699-2.75313.12616-6.4189-19.61963c-0.09187,1.53436-1.11048,17.51251-4.15341,17.73315-2.8559.20709-5.99543-13.57452-6.41893-15.4693q-1.28971,15.46326-2.64306,15.4693-1.65175.00677-3.39827-23.01532-2.76,19.15219-6.04133,19.24231-2.32352.06345-4.90856-9.4325-1.657,14.32745-3.39827,14.3374-2.01989.0119-4.15341-19.24231-1.85043,23.29752-4.531,23.39258-2.32966.08331-5.28616-17.35577Q498.22,589.17722,495.856,589.00949q-2.82739-.201-3.77584-26.78833c-0.24353,6.84515-1.00683,18.91644-3.77584,19.24231-2.25886.26581-5.07744-7.37592-7.17408-14.3374-0.52988,7.215-1.59388,18.04791-3.39824,18.11041-1.72752.05988-3.46946-9.776-4.531-16.97852,0.37611,9.02948-2.57673,15.77228-5.66376,16.22388-3.19911.468-8.32622-5.55945-10.19474-15.4693q-0.11159,15.40823-1.13275,15.4693-1.13611.0672-3.39824-18.865-1.88607,21.50519-3.77584,21.5061-1.6977.00027-3.39824-17.35577-1.77814,11.71838-3.39827,11.69629-2.00939-.027-3.77581-18.11041-0.84988,17.37717-3.77584,17.73309-2.1056.25644-5.28616-8.3006-2.52614,14.43732-4.15341,14.3374-2.00216-.1236-2.64309-22.26068-2.06652,15.027-4.531,15.092-2.11852.0563-4.531-10.94171-1.54863,12.40622-3.39824,12.45093-2.07582.05045-4.531-15.4693c0.79851,5.46393-.583,9.46967-2.26549,9.80981-1.58682.3208-4.10339-2.48511-5.66376-6.79144q-0.36694,15.35477-1.88792,15.4693-1.81841.13751-5.28616-21.5061-0.11132,24.5657-3.02067,24.90186-2.52958.29169-7.17408-17.73315-0.54089,8.93243-1.88792,9.05524-1.54593.14127-4.15341-11.319c0.30192,12.77032-.48941,15.01312-1.13275,15.092-0.65027.07971-1.996-1.94751-4.90859-15.092-0.66245,8.89716-3.233,15.01782-5.66373,15.092-2.2989.07019-4.95931-5.2533-6.41893-12.45093-0.32944,2.02759-1.84077,10.76953-4.531,10.94171-3.41977.21887-6.61687-13.54645-6.79651-14.3374-0.49109,3.247-2.5042,15.84082-5.28616,15.84662-2.338.00488-4.18188-8.88348-4.90859-12.82825q-2.15814,9.89694-3.77581,9.80981-1.87251-.10126-3.0207-13.58276-4.89487,19.49762-8.30682,19.24225-2.74589-.20581-4.531-13.20551-0.42677,12.708-1.88789,12.82825-1.72954.14191-4.90859-17.35583-1.2247,19.4447-3.77584,19.61963-2.16538.14886-5.28619-13.58282-2.31289,14.39694-4.15338,14.3374-2.23694-.073-3.77584-21.5061-3.11036,20.84784-5.28619,20.75153-1.56242-.06958-2.643-10.94171-2.70585,9.968-4.531,9.80981-2.08521-.18109-3.02064-13.58282-3.26786,15.9321-6.04133,15.84662-2.23767-.06894-4.15338-10.56439-1.72358,11.3259-3.3983,11.319-2.11572-.00916-4.15338-18.11041-3.96492,17.55148-5.28619,17.35583-1.09194-.16241-0.37754-12.45093c-0.54942,2.07526-3.02161,11.07269-5.66379,10.94171-3.24187-.16071-4.788-13.9671-4.90859-15.092q-1.53228,12.98181-4.15338,13.20551-3.169.27-7.92922-18.11041-1.26932,18.82068-3.0207,18.865-1.36415.035-3.02064-11.319c-1.59275,7.61017-3.23063,11.29083-4.90859,11.319-2.02074.03387-4.15815-5.2287-6.41893-16.22388q-0.88919,18.02664-2.64309,18.11041-1.28.06161-3.02064-9.43256-3.19236,7.49258-4.90859,7.1687-2.45958-.46381-1.888-16.97845-3.91489,9.80429-5.66373,9.4325-2.04-.43359-1.13275-14.71472-7.26182,21.69745-10.19471,21.12878-2.42934-.47159-1.888-16.22388c-0.203.43073-4.06787,8.50281-6.79647,7.92328-2.09538-.445-3.25775-5.93622-2.64309-13.58276q-4.3981,19.44241-7.55168,19.24231-2.7327-.17285-4.531-15.092c-0.31866.83417-2.88852,7.4281-5.28613,7.1687-1.981-.21436-3.53836-5.074-3.77584-12.07361q-1.0498,22.432-3.77584,22.638-2.38124.17926-6.04133-16.6012-2.06267,15.70313-4.90859,15.84662-2.37107.1192-5.28613-10.56439-3.98975,9.44009-6.41893,9.05518-3.65377-.57953-3.77584-23.39258-5.25082,26.24149-9.062,26.03369-3.40712-.18512-5.66379-21.5061-4.35925,21.27631-5.28613,21.12878-0.75175-.1203.75514-14.3374c-3.48412,7.14-7.9098,12.03973-10.57231,11.319-2.877-.77875-4.40571-8.31213-2.64309-18.48773-0.53336,1.66882-5.309,16.38422-8.68436,15.84662-2.867-.4566-3.316-11.69348-3.3983-14.3374q-2.58409,21.91159-4.90859,21.88342-1.7748-.021-3.39824-12.82819-3.45761,12.6265-6.04133,12.45087-3.4-.23181-5.28613-22.638-6.43365,25.64429-10.57231,25.27911-3.43186-.30231-5.28619-18.48773-3.21417,12.27869-4.90859,12.07361-1.90334-.23135-1.88789-16.22388c-2.7181,8.71442-6.63968,19.25543-9.81717,18.865-1.30677-.16058-3.33154-2.27368-4.531-14.71472q-5.90931,15.2482-8.30682,14.71472-2.83971-.63089-0.7552-23.39258Q4.52262,565.87329-.86148,570.28v25Z" transform="translate(1.36148 -542.79491)"/></svg>