<svg id="Layer_1" data-name="Layer 1" xmlns="http://www.w3.org/2000/svg" viewBox="0 0 860.15554 846.81911"><defs><style>.cls-1{fill:#52602c;stroke:#52602c;}.cls-1,.cls-2{stroke-miterlimit:10;}.cls-2{fill:#3c5124;stroke:#3c5124;}</style></defs><title>grass3</title><path class="cls-1" d="M-0.52208,718.97318H841.59786V687.13425q-2.53635-3.6902-5.07271-7.38032,0.69786,28.56537-1.1319,28.83078-1.95423.2831-6.7914-31.71385-0.566,11.292-1.1319,22.5841-3.3957-9.61021-6.7914-19.2205,1.30344,25.62664-.3773,25.94771-1.88869.36122-7.546-31.23339-0.46942,17.76143-3.0184,18.2595-2.11439.41311-5.6595-11.05174,2.85947,28.37065,1.1319,28.83078-2.00475.53437-10.1871-36.519,1.16183,23.73811-.3773,24.02564-1.14243.21337-3.773-12.49336-2.45873,16.48469-3.773,16.33743-1.53633-.1714-1.5092-23.06464-3.825,20.90689-6.4141,20.66211-2.10746-.19973-3.3957-14.41543-2.60211,19.83664-3.773,19.701-1.39874-.16254-0.7546-28.83078-4.40844,26.66809-7.546,26.42825-2.75324-.21093-4.5276-21.14257-2.08349,23.12516-2.6411,23.06464-0.6459-.06891.7546-31.23339-7.11835,33.72027-9.80981,33.15539-2.09388-.43852-1.50919-21.623-3.71262,20.87179-6.41411,20.662-3.13234-.24369-4.9049-28.83078c1.27179,11.26691-.80612,19.29963-3.773,20.18157-3.14671.93542-7.03693-6.24924-7.546-7.20775q0.21541,17.9516-1.5092,18.25958-2.19771.39188-7.546-27.86979-0.19723,23.85214-1.8865,24.02564-1.797.18364-5.28221-26.42825-3.76147,23.30763-5.6595,23.06464-2.23231-.28648-1.88649-33.15539-4.86394,37.23906-7.92331,36.99953-2.47865-.19355-3.773-24.98671-3.93736,26.61562-6.79141,26.42825-2.486-.163-4.1503-20.66211-2.32519,12.40715-4.90489,12.49336-3.86451.12954-8.3006-27.38925-0.56614,31.97666-4.5276,32.67493-2.6412.465-6.79141-12.97389-1.10916,14.34209-2.6411,14.41543-2.20372.10587-5.2822-29.31132c-0.17242,5.633-1.05934,30.13015-5.2822,30.75286-3.51183.51785-7.75954-15.70757-9.43251-22.5841q-0.12252,18.68045-2.6411,19.2205-2.0422.43747-5.6595-11.05182-2.127,15.87885-4.1503,15.857-2.53377-.02682-4.90491-24.98671c-0.65791,5.28591-2.69185,20.12452-5.6595,20.18157-2.23167.04291-4.15359-8.28924-5.2822-14.41543q-2.71362,20.69176-5.2822,20.66211-2.92351-.03311-5.6595-26.90871-1.25739,17.21424-3.0184,17.29842-2.23544.10657-5.28221-27.38925-2.17744,24.05316-4.1503,24.02564-1.57425-.02169-3.0184-15.37643-0.96483,28.22071-3.0184,28.35032-1.831.11508-4.52759-22.10364-2.42606,16.40517-4.52762,16.3375-2.725-.0871-4.90488-27.86979-1.91336,30.09664-4.90491,30.27232-2.75107.16067-6.41409-24.98671c-0.0918,1.9541-1.10965,22.30318-4.1503,22.58418-2.85376.26374-5.99094-17.28793-6.41412-19.701q-1.28874,19.69334-2.64108,19.701-1.65051.00863-3.39572-29.31132-2.75793,24.39141-6.0368,24.50618-2.32178.0808-4.90488-12.01282-1.65578,18.24683-3.39572,18.2595-2.01837.01516-4.1503-24.50618-1.849,29.67071-4.52759,29.79178-2.32791.1061-5.2822-22.10357-3.67456,23.27825-6.0368,23.06464-2.82527-.256-3.773-34.11646c-0.24335,8.71769-1.00607,24.09117-3.773,24.50618-2.25717.33852-5.07364-9.39365-7.1687-18.2595-0.52948,9.18867-1.59268,22.985-3.39569,23.06464-1.72623.07625-3.46686-12.45029-4.52759-21.62311,0.37582,11.49956-2.5748,20.08689-5.65952,20.662-3.19672.596-8.32-7.08027-10.1871-19.701q-0.11151,19.62326-1.1319,19.701-1.13525.08558-3.39569-24.02564-1.88466,27.38808-3.773,27.38925-1.69643.00035-3.39569-22.10357-1.77681,14.924-3.39572,14.89589-2.00789-.0344-3.773-23.06464-0.84924,22.13081-3.773,22.5841-2.104.32659-5.2822-10.57128-2.52425,18.38675-4.1503,18.2595-2.00066-.15741-2.64111-28.35025-2.065,19.13775-4.52759,19.2205-2.11693.07171-4.52762-13.93489-1.54747,15.8-3.39569,15.857-2.07426.06425-4.52759-19.701c0.79791,6.95862-.58255,12.06016-2.26379,12.49336-1.58563.40856-4.10031-3.16493-5.65952-8.64929q-0.36667,19.55517-1.88651,19.701-1.817.17513-5.2822-27.38925-0.11124,31.28582-3.0184,31.71393-2.52768.37148-7.1687-22.58418-0.54048,11.376-1.88651,11.53236-1.54477.17991-4.1503-14.41543c0.3017,16.26374-.489,19.12007-1.1319,19.22057-0.64978.10152-1.99454-2.48026-4.90491-19.22057-0.662,11.331-3.23062,19.12605-5.65948,19.22057-2.29718.08939-4.9556-6.69037-6.41412-15.857-0.32919,2.58225-1.83939,13.71561-4.52759,13.93489-3.41721.27875-6.61191-17.25217-6.79141-18.2595-0.49072,4.13525-2.50232,20.17419-5.2822,20.18157-2.33627.00622-4.17874-11.31362-4.90491-16.3375q-2.15652,12.60432-3.773,12.49336-1.87111-.129-3.01843-17.29842-4.8912,24.83133-8.3006,24.5061-2.74384-.26211-4.52759-16.818Q314.67,706.029,313.21,706.18219q-1.72824.18073-4.90491-22.10364-1.22379,24.76394-3.773,24.98671-2.16376.18959-5.28223-17.2985-2.31116,18.33533-4.15027,18.2595-2.23526-.09293-3.773-27.38925-3.108,26.55091-5.28223,26.42825-1.56125-.08861-2.64105-13.93489-2.70383,12.6948-4.52765,12.49336-2.08365-.23063-3.01837-17.2985-3.26541,20.29043-6.0368,20.18157-2.236-.0878-4.15027-13.45435-1.72229,14.42418-3.39575,14.41535-2.11414-.01166-4.15027-23.06464-3.96194,22.35281-5.28223,22.10364-1.09113-.20684-0.37726-15.857c-0.549,2.643-3.01935,14.1017-5.65955,13.93489-3.23944-.20467-4.78436-17.7879-4.90491-19.2205q-1.53113,16.53308-4.15027,16.818-3.16663.34385-7.92328-23.06464-1.26837,23.96921-3.01843,24.02564-1.36313.04454-3.01837-14.41535c-1.59155,9.692-3.22821,14.37952-4.90491,14.41535-2.01923.04314-4.155-6.659-6.41412-20.662q-0.88852,22.958-2.64111,23.06464-1.27908.07847-3.01837-12.0129-3.19,9.54223-4.90491,9.12975-2.45773-.59068-1.88654-21.623-3.912,12.48632-5.65948,12.01282-2.03851-.55221-1.1319-18.74-7.25638,27.63294-10.18707,26.90871-2.42752-.60059-1.88654-20.662c-0.20282.54855-4.06482,10.82881-6.79138,10.09075-2.09381-.56674-3.25531-7.56011-2.64111-17.29842q-4.39481,24.761-7.546,24.50618-2.73065-.22014-4.52759-19.22057c-0.31842,1.06236-2.88635,9.46011-5.28217,9.12975-1.97949-.273-3.53571-6.46207-3.773-15.37643q-1.049,28.5684-3.773,28.83078-2.37946.2283-6.0368-21.14257-2.06113,19.99882-4.90491,20.18157-2.36929.15181-5.28217-13.45435-3.98676,12.0225-6.41412,11.53228-3.651-.73806-3.773-29.79178-5.24689,33.42-9.05518,33.15539-3.40457-.23576-5.65955-27.38925-4.356,27.09659-5.28217,26.90871-0.75119-.15321.75458-18.2595c-3.48151,9.09314-7.90387,15.33329-10.56439,14.41543-2.87488-.99178-4.4024-10.586-2.64111-23.54518-0.533,2.12534-5.30505,20.86623-8.67786,20.18157-2.86481-.58151-3.31348-14.89231-3.39575-18.2595q-2.58215,27.90566-4.90491,27.86979-1.77347-.0267-3.39569-16.33743-3.455,16.08056-6.0368,15.85689-3.39743-.29523-5.28217-28.83078-6.42883,32.65946-10.56439,32.19439-3.42929-.385-5.28223-23.54518-3.21176,15.63761-4.90491,15.37643-1.90192-.29464-1.88647-20.662c-2.71606,11.09831-6.6347,24.52289-9.80981,24.02564-1.30579-.20451-3.329-2.89566-4.52759-18.74q-5.90488,19.41945-8.3006,18.74Q8.155,704.89817,10.238,675.90987q-5.38,5.61219-10.76007,11.22439v31.83892Z" transform="translate(1.15048 126.76044)"/><path class="cls-2" d="M-0.52284,719.55867H842.22864v-25q-2.53826-2.89755-5.07651-5.795,0.69838,22.4296-1.13275,22.638-1.9557.22229-6.79649-24.90179-0.56637,8.86652-1.13275,17.73309-3.39825-7.546-6.79649-15.092,1.30442,20.1221-.37758,20.37421-1.89011.28363-7.55166-24.52454-0.46977,13.94632-3.02067,14.3374-2.116.32437-5.66374-8.67786,2.86161,22.2767,1.13275,22.638-2.00626.41959-10.19474-28.6748,1.1627,18.63922-.37758,18.865-1.14329.16754-3.77583-9.80981-2.46058,12.94382-3.77583,12.82819-1.53748-.13458-1.51033-18.11041-3.8279,16.41614-6.41891,16.22394-2.109-.15683-3.39825-11.319-2.60406,15.57578-3.77583,15.4693-1.39979-.12762-0.75517-22.638-4.41174,20.93985-7.55166,20.75153-2.75531-.16562-4.531-16.6012-2.08505,18.15793-2.64308,18.11041-0.64639-.05411.75517-24.52454-7.12369,26.47723-9.81716,26.03369-2.09545-.34433-1.51033-16.97845-3.71541,16.38858-6.41892,16.22388-3.13469-.19135-4.90858-22.638c1.27274,8.8468-.80673,15.15411-3.77582,15.84662-3.14907.7345-7.04221-4.90692-7.55166-5.65955q0.21557,14.09564-1.51033,14.33746-2.19936.30771-7.55166-21.88342-0.19738,18.72876-1.88791,18.865-1.79832.1442-5.28617-20.75153-3.76429,18.30121-5.66374,18.11041-2.234-.22495-1.8879-26.03369-4.86759,29.2402-7.92925,29.05212-2.48051-.152-3.77582-19.61963-3.94032,20.89865-6.79651,20.75153-2.48791-.128-4.15341-16.22394-2.32693,9.74213-4.90857,9.80981-3.86741.10172-8.30682-21.5061-0.56656,25.10815-4.531,25.65643-2.64319.36511-6.79651-10.18713-1.11,11.26144-2.64308,11.319-2.20537.08313-5.28616-23.01532c-0.17255,4.423-1.06014,23.65826-5.28616,24.14722-3.51446.40662-7.76536-12.33362-9.43958-17.73309Q630.114,706.45,627.59355,706.874q-2.04373.34351-5.66374-8.67792-2.12862,12.46811-4.15341,12.45093-2.53567-.02106-4.90859-19.61963c-0.65841,4.15051-2.69387,15.80182-5.66374,15.84662-2.23335.03369-4.15671-6.50873-5.28616-11.319q-2.71566,16.24722-5.28616,16.22394-2.9257-.026-5.66374-21.12878-1.25833,13.51666-3.02067,13.58276-2.23712.08368-5.28617-21.5061-2.17908,18.8866-4.15341,18.865-1.57543-.017-3.02067-12.07361-0.96555,22.159-3.02067,22.26074-1.83234.09036-4.531-17.35583-2.42788,12.88138-4.531,12.82825-2.72706-.06839-4.90856-21.88342-1.9148,23.632-4.90859,23.7699-2.75313.12616-6.4189-19.61963c-0.09187,1.53436-1.11048,17.51251-4.15341,17.73315-2.8559.20709-5.99543-13.57452-6.41893-15.4693q-1.28971,15.46326-2.64306,15.4693-1.65175.00677-3.39827-23.01532-2.76,19.15219-6.04133,19.24231-2.32352.06345-4.90856-9.4325-1.657,14.32745-3.39827,14.3374-2.01989.0119-4.15341-19.24231-1.85043,23.29752-4.531,23.39258-2.32966.08331-5.28616-17.35577-3.67732,18.27814-6.04133,18.11041-2.82739-.201-3.77584-26.78833c-0.24353,6.84515-1.00683,18.91644-3.77584,19.24231-2.25886.26581-5.07744-7.37592-7.17408-14.3374-0.52988,7.215-1.59388,18.04791-3.39824,18.11041-1.72752.05988-3.46946-9.776-4.531-16.97852,0.37611,9.02948-2.57673,15.77228-5.66376,16.22388-3.19911.468-8.32622-5.55945-10.19474-15.4693q-0.11159,15.40823-1.13275,15.4693-1.13611.0672-3.39824-18.865-1.88607,21.50519-3.77584,21.5061-1.6977.00027-3.39824-17.35577-1.77814,11.71838-3.39827,11.69629-2.00939-.027-3.77581-18.11041-0.84988,17.37717-3.77584,17.73309-2.1056.25644-5.28616-8.3006-2.52614,14.43732-4.15341,14.3374-2.00216-.1236-2.64309-22.26068-2.06652,15.027-4.531,15.092-2.11852.05631-4.531-10.94171-1.54863,12.40622-3.39824,12.45093-2.07582.05045-4.531-15.4693c0.79851,5.46393-.583,9.46967-2.26549,9.80981-1.58682.3208-4.10339-2.48511-5.66376-6.79144q-0.36694,15.35477-1.88792,15.4693-1.81841.13751-5.28616-21.5061-0.11132,24.5657-3.02067,24.90186-2.52958.29169-7.17408-17.73315-0.54089,8.93243-1.88792,9.05524-1.54593.14127-4.15341-11.319c0.30192,12.77032-.48941,15.01312-1.13275,15.092-0.65027.07971-1.996-1.94751-4.90859-15.092-0.66245,8.89716-3.233,15.01782-5.66373,15.092-2.2989.07019-4.95931-5.2533-6.41893-12.45093-0.32944,2.02759-1.84077,10.76953-4.531,10.94171-3.41977.21887-6.61687-13.54645-6.79651-14.3374-0.49109,3.247-2.5042,15.84082-5.28616,15.84662-2.338.00488-4.18188-8.88348-4.90859-12.82825q-2.15814,9.89694-3.77581,9.80981-1.87251-.10126-3.0207-13.58276-4.89487,19.49762-8.30682,19.24225-2.74589-.20581-4.531-13.20551-0.42677,12.708-1.88789,12.82825-1.72954.14191-4.90859-17.35584-1.2247,19.4447-3.77584,19.61963-2.16538.14886-5.28619-13.58282-2.31289,14.39694-4.15338,14.3374-2.23694-.073-3.77584-21.5061-3.11036,20.84784-5.28619,20.75153-1.56242-.06958-2.643-10.94171-2.70585,9.968-4.531,9.80981-2.08521-.18109-3.02064-13.58282-3.26786,15.9321-6.04133,15.84662-2.23767-.06894-4.15338-10.56439-1.72358,11.3259-3.3983,11.319-2.11572-.00916-4.15338-18.11041-3.96492,17.55148-5.28619,17.35583-1.09194-.16241-0.37754-12.45093c-0.54942,2.07526-3.02161,11.07269-5.66379,10.94171-3.24187-.16071-4.788-13.9671-4.90859-15.092q-1.53228,12.98181-4.15338,13.20551-3.169.27-7.92922-18.11041-1.26932,18.82068-3.0207,18.865-1.36415.035-3.02064-11.319c-1.59275,7.61017-3.23063,11.29083-4.90859,11.319-2.02074.03387-4.15815-5.2287-6.41893-16.22388q-0.88919,18.02664-2.64309,18.11041-1.28.06161-3.02064-9.43256-3.19236,7.49258-4.90859,7.1687-2.45958-.46381-1.888-16.97845-3.91489,9.80429-5.66373,9.4325-2.04-.43359-1.13275-14.71472-7.26182,21.69745-10.19471,21.12878-2.42934-.47159-1.888-16.22388c-0.203.43073-4.06787,8.50281-6.79647,7.92328-2.09538-.445-3.25775-5.93622-2.64309-13.58276q-4.3981,19.44241-7.55168,19.24231-2.7327-.17285-4.531-15.092c-0.31866.83417-2.88852,7.4281-5.28613,7.1687-1.981-.21436-3.53836-5.074-3.77584-12.07361q-1.0498,22.432-3.77584,22.638-2.38124.17926-6.04133-16.6012-2.06267,15.70313-4.90859,15.84662-2.37107.1192-5.28613-10.56439-3.98975,9.44009-6.41893,9.05518-3.65377-.57953-3.77584-23.39258-5.25082,26.24149-9.062,26.03369-3.40712-.18512-5.66379-21.5061-4.35925,21.27631-5.28613,21.12878-0.75175-.1203.75514-14.3374c-3.48412,7.14-7.9098,12.03973-10.57231,11.319-2.877-.77875-4.40571-8.31213-2.64309-18.48773-0.53336,1.66882-5.309,16.38422-8.68436,15.84662-2.867-.4566-3.316-11.69348-3.3983-14.3374q-2.58409,21.91159-4.90859,21.88342-1.7748-.021-3.39824-12.82819-3.45761,12.6265-6.04133,12.45087-3.4-.23181-5.28613-22.638Q49.8768,713.276,45.73814,712.91084q-3.43186-.30231-5.28619-18.48773-3.21417,12.27869-4.90859,12.07361-1.90334-.23135-1.88789-16.22388c-2.7181,8.71442-6.63968,19.25543-9.81717,18.865-1.30677-.16058-3.33154-2.27368-4.531-14.71472q-5.90931,15.2482-8.30682,14.71472-2.83971-.63089-0.7552-23.39258-5.384,4.40671-10.76814,8.81342v25Z" transform="translate(1.15048 126.76044)"/><path class="cls-1" d="M858.32805,717.82885V-124.29109H826.48913q-3.6902,2.53635-7.38032,5.07271,28.56537-.69786,28.83078,1.1319,0.2831,1.95423-31.71385,6.7914l22.5841,1.1319-19.2205,6.7914q25.62664-1.30344,25.94771.3773,0.36122,1.88869-31.23339,7.546,17.76143,0.46942,18.2595,3.0184,0.41311,2.11439-11.05174,5.6595,28.37065-2.85947,28.83078-1.1319,0.53437,2.00475-36.519,10.1871,23.73811-1.16183,24.02564.3773,0.21337,1.14243-12.49336,3.773,16.48469,2.45873,16.33743,3.773-0.1714,1.53633-23.06464,1.5092,20.90689,3.825,20.66211,6.4141-0.19973,2.10746-14.41543,3.3957,19.83664,2.60211,19.701,3.773-0.16254,1.39874-28.83078.7546,26.66809,4.40844,26.42825,7.546-0.21093,2.75324-21.14257,4.5276,23.12516,2.08349,23.06464,2.6411-0.06891.6459-31.23339-.7546,33.72027,7.11835,33.15539,9.80981-0.43852,2.09388-21.623,1.50919,20.87179,3.71262,20.662,6.41411-0.24369,3.13234-28.83078,4.9049c11.26691-1.27179,19.29963.80612,20.18157,3.773,0.93542,3.14671-6.24924,7.03693-7.20775,7.546q17.9516-.21541,18.25958,1.5092,0.39188,2.19771-27.86979,7.546,23.85214,0.19723,24.02564,1.8865,0.18364,1.797-26.42825,5.28221,23.30763,3.76147,23.06464,5.6595-0.28648,2.23231-33.15539,1.88649,37.23906,4.86394,36.99953,7.92331-0.19355,2.47865-24.98671,3.773,26.61562,3.93736,26.42825,6.79141-0.163,2.486-20.66211,4.1503,12.40715,2.32519,12.49336,4.90489,0.12954,3.86451-27.38925,8.3006,31.97666,0.56614,32.67493,4.5276,0.465,2.6412-12.97389,6.79141,14.34209,1.10916,14.41543,2.6411,0.10587,2.20372-29.31132,5.2822c5.633,0.17242,30.13015,1.05934,30.75286,5.2822,0.51785,3.51183-15.70757,7.75954-22.5841,9.43251q18.68045,0.12252,19.2205,2.6411,0.43747,2.0422-11.05182,5.6595,15.87885,2.127,15.857,4.1503-0.02682,2.53377-24.98671,4.90491c5.28591,0.65791,20.12452,2.69185,20.18157,5.6595,0.04291,2.23167-8.28924,4.1536-14.41543,5.2822q20.69176,2.71362,20.66211,5.2822-0.03311,2.92351-26.90871,5.6595,17.21424,1.25739,17.29842,3.0184,0.10657,2.23544-27.38925,5.28221,24.05316,2.17744,24.02564,4.1503-0.02169,1.57425-15.37643,3.0184,28.22071,0.96483,28.35032,3.0184,0.11508,1.831-22.10364,4.52759,16.40517,2.42606,16.3375,4.52762-0.0871,2.725-27.86979,4.90488,30.09664,1.91336,30.27232,4.90491,0.16067,2.75107-24.98671,6.41409c1.9541,0.0918,22.30318,1.10965,22.58418,4.1503,0.26374,2.85376-17.28793,5.99094-19.701,6.41412q19.69334,1.28874,19.701,2.64108,0.00863,1.65051-29.31132,3.39572,24.39141,2.75793,24.50618,6.0368,0.0808,2.32178-12.01282,4.90488,18.24683,1.65578,18.2595,3.39572,0.01516,2.01837-24.50618,4.1503,29.67071,1.849,29.79178,4.52759,0.1061,2.32791-22.10357,5.2822,23.27825,3.67456,23.06464,6.0368-0.256,2.82527-34.11646,3.773c8.71769,0.24335,24.09117,1.00607,24.50618,3.773,0.33852,2.25717-9.39365,5.07364-18.2595,7.1687,9.18867,0.52948,22.985,1.59268,23.06464,3.39569,0.07625,1.72623-12.45029,3.46686-21.62311,4.52759,11.49956-.37582,20.08689,2.5748,20.662,5.65952,0.596,3.19672-7.08027,8.32-19.701,10.1871q19.62326,0.11151,19.701,1.1319,0.08558,1.13525-24.02564,3.39569,27.38808,1.88466,27.38925,3.773,0.00035,1.69643-22.10357,3.39569,14.924,1.77681,14.89589,3.39572-0.0344,2.00789-23.06464,3.773,22.13081,0.84924,22.5841,3.773,0.32659,2.104-10.57128,5.2822,18.38675,2.52425,18.2595,4.1503-0.15741,2.00066-28.35025,2.64111,19.13775,2.065,19.2205,4.52759,0.07171,2.11693-13.93489,4.52762,15.8,1.54747,15.857,3.39569,0.06425,2.07426-19.701,4.52759c6.95862-.79791,12.06016.58255,12.49336,2.26379,0.40856,1.58563-3.16493,4.10031-8.64929,5.65952q19.55517,0.36667,19.701,1.88651,0.17513,1.817-27.38925,5.2822,31.28582,0.11124,31.71393,3.0184,0.37148,2.52768-22.58418,7.1687,11.376,0.54048,11.53236,1.88651,0.17991,1.54477-14.41543,4.1503c16.26374-.3017,19.12007.489,19.22057,1.1319,0.10152,0.64978-2.48026,1.99454-19.22057,4.90491,11.331,0.662,19.12605,3.23062,19.22057,5.65948,0.08939,2.29718-6.69037,4.9556-15.857,6.41412,2.58225,0.32919,13.71561,1.83939,13.93489,4.52759,0.27875,3.41721-17.25217,6.61191-18.2595,6.79141,4.13525,0.49072,20.17419,2.50232,20.18157,5.2822,0.00622,2.33627-11.31362,4.17874-16.3375,4.90491q12.60432,2.15652,12.49336,3.773-0.129,1.87111-17.29842,3.01843,24.83133,4.8912,24.5061,8.3006-0.26211,2.74384-16.818,4.52759,16.18433,0.42645,16.3375,1.88647,0.18073,1.72824-22.10364,4.90491,24.76394,1.22379,24.98671,3.773,0.18959,2.16376-17.2985,5.28223,18.33533,2.31116,18.2595,4.15027-0.09293,2.23526-27.38925,3.773,26.55091,3.108,26.42825,5.28223-0.08861,1.56125-13.93489,2.64105,12.6948,2.70383,12.49336,4.52765-0.23063,2.08365-17.2985,3.01837,20.29043,3.26541,20.18157,6.0368-0.0878,2.236-13.45435,4.15027,14.42418,1.72229,14.41535,3.39575-0.01166,2.11414-23.06464,4.15027,22.35281,3.96194,22.10364,5.28223-0.20684,1.09113-15.857.37726c2.643,0.549,14.1017,3.01935,13.93489,5.65955-0.20467,3.23944-17.7879,4.78436-19.2205,4.90491q16.53308,1.53113,16.818,4.15027,0.34385,3.16663-23.06464,7.92328,23.96921,1.26837,24.02564,3.01843,0.04454,1.36313-14.41535,3.01837c9.692,1.59155,14.37952,3.22821,14.41535,4.90491,0.04314,2.01923-6.659,4.155-20.662,6.41412q22.958,0.88852,23.06464,2.64111,0.07847,1.27908-12.0129,3.01837,9.54223,3.19,9.12975,4.90491-0.59068,2.45773-21.623,1.88654,12.48632,3.912,12.01282,5.65948-0.55221,2.03851-18.74,1.1319,27.63294,7.25638,26.90871,10.18707-0.60059,2.42752-20.662,1.88654c0.54855,0.20282,10.82881,4.06482,10.09075,6.79138-0.56674,2.09381-7.56011,3.25531-17.29842,2.64111q24.761,4.39481,24.50618,7.546-0.22014,2.73065-19.22057,4.52759c1.06236,0.31842,9.46011,2.88635,9.12975,5.28217-0.273,1.97949-6.46207,3.53571-15.37643,3.773q28.5684,1.049,28.83078,3.773,0.2283,2.37946-21.14257,6.0368,19.99882,2.06113,20.18157,4.90491,0.15181,2.36929-13.45436,5.28217,12.0225,3.98676,11.53228,6.41412-0.73806,3.651-29.79178,3.773,33.42,5.24689,33.15539,9.05518-0.23576,3.40457-27.38925,5.65955,27.09659,4.356,26.90871,5.28217-0.15321.75119-18.2595-.75458c9.09314,3.48151,15.33329,7.90387,14.41543,10.56439-0.99178,2.87488-10.586,4.4024-23.54518,2.64111,2.12534,0.533,20.86623,5.30505,20.18157,8.67786-0.58151,2.86481-14.89231,3.31348-18.2595,3.39575q27.90566,2.58215,27.86979,4.90491-0.0267,1.77347-16.33743,3.39569,16.08056,3.455,15.85689,6.0368-0.29523,3.39743-28.83078,5.28217,32.65946,6.42883,32.19439,10.56439-0.385,3.42929-23.54518,5.28223,15.63761,3.21176,15.37643,4.90491-0.29464,1.90192-20.662,1.88647c11.09831,2.71606,24.52289,6.6347,24.02564,9.80981-0.20451,1.30579-2.89566,3.329-18.74,4.52759q19.41945,5.90488,18.74,8.3006-0.80347,2.83759-29.79178.75464,5.61219,5.38,11.22439,10.76007h31.83892Z" transform="translate(1.15048 126.76044)"/><path class="cls-2" d="M858.03985,719.32437V-122.79556h-25q-2.89755,2.53635-5.795,5.07271,22.4296-.69786,22.638,1.1319,0.22229,1.95423-24.90179,6.7914l17.73309,1.1319-15.092,6.7914q20.1221-1.30344,20.37421.3773,0.28363,1.88869-24.52454,7.546,13.94632,0.46942,14.3374,3.0184,0.32437,2.11439-8.67786,5.6595,22.2767-2.85947,22.638-1.1319,0.41959,2.00475-28.6748,10.1871,18.63922-1.16183,18.865.3773,0.16754,1.14243-9.80981,3.773,12.94382,2.45873,12.82819,3.773-0.13458,1.53633-18.11041,1.5092,16.41614,3.825,16.22394,6.4141-0.15683,2.10746-11.319,3.3957,15.57578,2.60211,15.4693,3.773-0.12762,1.39874-22.638.7546,20.93985,4.40844,20.75153,7.546-0.16562,2.75324-16.6012,4.5276,18.15793,2.08349,18.11041,2.6411-0.05411.6459-24.52454-.7546,26.47723,7.11835,26.03369,9.80981-0.34433,2.09388-16.97845,1.50919,16.38858,3.71262,16.22388,6.41411-0.19135,3.13234-22.638,4.9049c8.8468-1.27179,15.15411.80612,15.84662,3.773,0.7345,3.14671-4.90692,7.03693-5.65955,7.546q14.09564-.21541,14.33746,1.5092,0.30771,2.19771-21.88342,7.546,18.72876,0.19723,18.865,1.8865,0.1442,1.797-20.75153,5.28221,18.30121,3.76147,18.11041,5.6595-0.22495,2.23231-26.03369,1.88649,29.2402,4.86395,29.05212,7.92331-0.152,2.47865-19.61963,3.773,20.89865,3.93736,20.75153,6.79141-0.128,2.486-16.22394,4.1503,9.74213,2.32519,9.80981,4.90489,0.10172,3.86451-21.5061,8.3006,25.10815,0.56614,25.65643,4.5276,0.36511,2.6412-10.18713,6.79141,11.26144,1.10916,11.319,2.6411,0.08313,2.20372-23.01532,5.2822c4.423,0.17242,23.65826,1.05934,24.14722,5.2822,0.40662,3.51183-12.33362,7.75954-17.73309,9.43251q14.66794,0.12252,15.092,2.6411,0.34351,2.0422-8.67792,5.6595,12.46811,2.127,12.45093,4.1503-0.02106,2.53377-19.61963,4.90491c4.15051,0.65791,15.80182,2.69185,15.84662,5.6595,0.03369,2.23167-6.50873,4.15359-11.319,5.2822q16.24722,2.71362,16.22394,5.2822-0.026,2.92351-21.12878,5.6595,13.51666,1.25739,13.58276,3.0184,0.08368,2.23544-21.5061,5.28221,18.8866,2.17744,18.865,4.1503-0.017,1.57425-12.07361,3.0184,22.159,0.96483,22.26074,3.0184,0.09036,1.831-17.35583,4.52759,12.88138,2.42606,12.82825,4.52762-0.06839,2.725-21.88342,4.90488,23.632,1.91336,23.7699,4.90491,0.12616,2.75107-19.61963,6.41409c1.53436,0.0918,17.51251,1.10965,17.73315,4.1503,0.20709,2.85376-13.57452,5.99094-15.4693,6.41412q15.46326,1.28874,15.4693,2.64108,0.00677,1.65051-23.01532,3.39572,19.15219,2.75793,19.24231,6.0368,0.06345,2.32178-9.4325,4.90488,14.32745,1.65578,14.3374,3.39572,0.0119,2.01837-19.24231,4.1503,23.29752,1.849,23.39258,4.52759,0.08331,2.32791-17.35577,5.2822,18.27814,3.67456,18.11041,6.0368-0.201,2.82527-26.78833,3.773c6.84515,0.24335,18.91644,1.00607,19.24231,3.773,0.26581,2.25717-7.37592,5.07364-14.3374,7.1687,7.215,0.52948,18.04791,1.59268,18.11041,3.39569,0.05988,1.72623-9.776,3.46686-16.97852,4.52759,9.02948-.37582,15.77228,2.5748,16.22388,5.65952,0.468,3.19672-5.55945,8.32-15.4693,10.1871q15.40823,0.11151,15.4693,1.1319,0.0672,1.13525-18.865,3.39569,21.50519,1.88466,21.5061,3.773,0.00027,1.69643-17.35577,3.39569,11.71838,1.77681,11.69629,3.39572-0.027,2.00789-18.11041,3.773,17.37717,0.84924,17.73309,3.773,0.25644,2.104-8.3006,5.2822,14.43732,2.52425,14.3374,4.1503-0.1236,2.00066-22.26068,2.64111,15.027,2.065,15.092,4.52759,0.0563,2.11693-10.94171,4.52762,12.40622,1.54747,12.45093,3.39569,0.05045,2.07426-15.4693,4.52759c5.46393-.79791,9.46967.58255,9.80981,2.26379,0.3208,1.58563-2.48511,4.10031-6.79144,5.65952q15.35477,0.36667,15.4693,1.88651,0.13751,1.817-21.5061,5.2822,24.5657,0.11124,24.90186,3.0184,0.29169,2.52768-17.73315,7.1687,8.93243,0.54048,9.05524,1.88651,0.14127,1.54477-11.319,4.1503c12.77032-.3017,15.01312.489,15.092,1.1319,0.07971,0.64978-1.94751,1.99454-15.092,4.90491,8.89716,0.662,15.01782,3.23062,15.092,5.65948,0.07019,2.29718-5.2533,4.9556-12.45093,6.41412,2.02759,0.32919,10.76953,1.83939,10.94171,4.52759,0.21887,3.41721-13.54645,6.61191-14.3374,6.79141,3.247,0.49072,15.84082,2.50232,15.84662,5.2822,0.00488,2.33627-8.88348,4.17874-12.82825,4.90491q9.89694,2.15652,9.80981,3.773-0.10126,1.87111-13.58276,3.01843,19.49762,4.8912,19.24225,8.3006-0.20581,2.74384-13.20551,4.52759,12.708,0.42645,12.82825,1.88647,0.14191,1.72824-17.35583,4.90491,19.4447,1.22379,19.61963,3.773,0.14886,2.16376-13.58282,5.28223,14.39694,2.31116,14.3374,4.15027-0.073,2.23526-21.5061,3.773,20.84784,3.108,20.75153,5.28223-0.06958,1.56125-10.94171,2.64105,9.968,2.70383,9.80981,4.52765-0.18109,2.08365-13.58282,3.01837,15.9321,3.26541,15.84662,6.0368-0.06894,2.236-10.56439,4.15027,11.3259,1.72229,11.319,3.39575-0.00916,2.11414-18.11041,4.15027,17.55148,3.96194,17.35583,5.28223-0.16241,1.09113-12.45093.37726c2.07526,0.549,11.07269,3.01935,10.94171,5.65955-0.16071,3.23944-13.9671,4.78436-15.092,4.90491q12.98181,1.53113,13.20551,4.15027,0.27,3.16663-18.11041,7.92328,18.82068,1.26837,18.865,3.01843,0.035,1.36313-11.319,3.01837c7.61017,1.59155,11.29083,3.22821,11.319,4.90491,0.03387,2.01923-5.2287,4.155-16.22388,6.41412q18.02664,0.88852,18.11041,2.64111,0.06162,1.27908-9.43256,3.01837,7.49258,3.19,7.1687,4.90491-0.46381,2.45773-16.97845,1.88654,9.80429,3.912,9.4325,5.65948-0.43359,2.03851-14.71472,1.1319,21.69745,7.25638,21.12878,10.18707-0.47159,2.42752-16.22388,1.88654c0.43073,0.20282,8.50281,4.06482,7.92328,6.79138-0.445,2.09381-5.93622,3.25531-13.58276,2.64111q19.44241,4.39481,19.24231,7.546-0.17285,2.73065-15.092,4.52759c0.83417,0.31842,7.4281,2.88635,7.1687,5.28217-0.21436,1.97949-5.074,3.53571-12.07361,3.773q22.432,1.049,22.638,3.773,0.17926,2.37946-16.6012,6.0368,15.70313,2.06113,15.84662,4.90491,0.1192,2.36929-10.56439,5.28217,9.44009,3.98676,9.05518,6.41412-0.57953,3.651-23.39258,3.773,26.24149,5.24689,26.03369,9.05518-0.18512,3.40457-21.5061,5.65955,21.27631,4.356,21.12878,5.28217-0.1203.75119-14.3374-.75458c7.14,3.48151,12.03973,7.90387,11.319,10.56439-0.77875,2.87488-8.31213,4.4024-18.48773,2.64111,1.66882,0.533,16.38422,5.30505,15.84662,8.67786-0.4566,2.86481-11.69348,3.31348-14.3374,3.39575q21.91159,2.58215,21.88342,4.90491-0.021,1.77347-12.82819,3.39569,12.6265,3.455,12.45087,6.0368-0.23181,3.39743-22.638,5.28217,25.64429,6.42883,25.27911,10.56439-0.30231,3.42929-18.48773,5.28223,12.27869,3.21176,12.07361,4.90491-0.23135,1.90192-16.22388,1.88647c8.71442,2.71606,19.25543,6.6347,18.865,9.80981-0.16058,1.30579-2.27368,3.329-14.71472,4.52759q15.2482,5.90488,14.71472,8.3006-0.63089,2.83759-23.39258.75464,4.40671,5.38,8.81342,10.76007h25Z" transform="translate(1.15048 126.76044)"/><path class="cls-2" d="M-0.65048,716.83372V-126.22243H24.06743q2.86486,2.53917,5.72965,5.07835-22.17651-.69863-22.38256,1.13316-0.21978,1.9564,24.62081,6.799l-17.533,1.13316,14.92169,6.799q-19.89505-1.30489-20.14431.37772-0.28043,1.89079,24.24781,7.55439-13.789.46994-14.17562,3.02176-0.32071,2.11674,8.57994,5.66579Q5.9065-91.52285,5.54927-89.79337q-0.41485,2.007,28.35125,10.19843-18.4289-1.16312-18.65212.37772-0.16565,1.1437,9.69912,3.77719-12.79776,2.46147-12.68344,3.7772,0.13306,1.538,17.90606,1.51088-16.2309,3.82929-16.04087,6.42124,0.15506,2.10981,11.19131,3.39947-15.4,2.605-15.29475,3.7772,0.12618,1.4003,22.38256.75544Q11.70482-51.38527,11.891-48.24422q0.16375,2.7563,16.41387,4.53264-17.953,2.0858-17.90606,2.644,0.0535,0.64662,24.24781-.75544Q8.46817-34.69673,8.90671-32.00228q0.34044,2.09621,16.78688,1.51087Q9.48993-26.77466,9.65277-24.07017,9.842-20.93435,32.03534-19.15981c-8.747-1.2732-14.98312.807-15.66781,3.77719-0.72621,3.15021,4.85155,7.04476,5.59569,7.55439Q8.02662-8.04388,7.78752-6.31735,7.48329-4.1172,29.424,1.237,10.90659,1.43448,10.7719,3.12563q-0.14257,1.799,20.51737,5.28808-18.0947,3.76565-17.90606,5.66579,0.22241,2.23479,25.73994,1.88859-28.91027,4.86935-28.72431,7.93212,0.15026,2.48141,19.39825,3.77719-20.66284,3.94174-20.51737,6.799,0.12655,2.48881,16.04087,4.15491-9.6322,2.32777-9.69912,4.91034-0.10057,3.86881,21.26344,8.30983-24.82484.56677-25.36694,4.53264-0.361,2.64414,10.07219,6.799-11.13437,1.11039-11.19131,2.644-0.08219,2.20617,22.75562,5.28807c-4.37313.17262-23.39131,1.06052-23.87475,5.28807-0.402,3.51573,12.19445,7.76816,17.533,9.443q-14.50243.12266-14.92169,2.644-0.33963,2.04447,8.58,5.66579Q8.1436,96.28543,8.16059,98.311q0.02082,2.53658,19.39825,4.91036c-4.10368.65864-15.62352,2.69484-15.66781,5.66579-0.03331,2.23416,6.43529,4.15821,11.19131,5.28807q-16.0639,2.71664-16.04087,5.28807Q7.06717,122.39,27.93184,125.129q-13.36415,1.25878-13.4295,3.02176-0.08273,2.23793,21.26344,5.28808-18.67349,2.17987-18.65212,4.15491,0.01684,1.576,11.93737,3.02176-21.90893.9659-22.00956,3.02176-0.08934,1.833,17.16,4.53262-12.736,2.42875-12.6835,4.53265,0.06762,2.72805,21.6365,4.91033-23.3653,1.91549-23.50169,4.91036Q9.528,165.2774,29.051,168.94449c-1.517.0919-17.31491,1.11088-17.53306,4.15491-0.20476,2.85693,13.42135,5.9976,15.29475,6.42125q-15.28878,1.29017-15.29475,2.644-0.0067,1.65235,22.75562,3.3995-18.93608,2.761-19.02519,6.04352-0.06273,2.32436,9.32606,4.91033-14.16579,1.65762-14.17562,3.3995-0.01177,2.02062,19.02519,4.15491-23.03464,1.8511-23.12862,4.53262-0.08237,2.3305,17.15994,5.28807-18.07189,3.67865-17.90606,6.04352,0.19878,2.82841,26.48606,3.7772c-6.76792.24362-18.703,1.00719-19.02519,3.7772-0.26281,2.25968,7.29269,5.07928,14.17562,7.17667-7.13355.53007-17.84427,1.59445-17.90606,3.39947-0.0592,1.72815,9.66569,3.47071,16.78694,4.53262-8.92759-.37624-15.59431,2.57766-16.04081,5.66581-0.46268,3.20027,5.49672,8.32923,15.29475,10.19843q-15.23437.11164-15.29475,1.13316-0.06644,1.13652,18.65212,3.39947-21.26253,1.88675-21.26344,3.7772-0.00027,1.69831,17.15994,3.39947-11.58616,1.77879-11.56431,3.3995,0.0267,2.01012,17.90606,3.77717-17.18109.85019-17.533,3.7772-0.25355,2.10636,8.20694,5.28807-14.27441,2.52705-14.17562,4.15491,0.1222,2.00288,22.0095,2.644-14.85745,2.06727-14.92169,4.53262-0.05567,2.11928,10.81825,4.53265Q13.05435,303.8287,13.01015,305.679q-0.04988,2.07657,15.29475,4.53262c-5.40228-.7988-9.36281.5832-9.69912,2.26631-0.31718,1.5874,2.45707,4.10487,6.71481,5.66581q-15.18151.36708-15.29475,1.8886-0.136,1.81907,21.26344,5.28807-24.28851.11136-24.62087,3.02176-0.2884,2.53049,17.53306,7.17667-8.83164.54108-8.95306,1.8886-0.13967,1.54649,11.19131,4.15491c-12.62623-.302-14.84372.48959-14.92175,1.13316-0.07881.6505,1.92553,1.99675,14.92175,4.91036-8.79676.66269-14.84837,3.23421-14.92175,5.66578-0.0694,2.29973,5.194,4.96111,12.31044,6.42125-2.00471.32956-10.648,1.84143-10.81825,4.53262-0.2164,3.421,13.39359,6.61926,14.17562,6.799-3.21037.49127-15.66208,2.5051-15.66781,5.28807-0.00483,2.33887,8.78325,4.18339,12.6835,4.91036q-9.78527,2.15892-9.69912,3.77717,0.10011,1.87319,13.4295,3.02179Q8.65422,392.9185,8.90671,396.33168q0.20349,2.74689,13.0565,4.53262-12.56459.42693-12.6835,1.88857-0.14031,1.73016,17.16,4.91036-19.2253,1.22515-19.39825,3.7772-0.14719,2.16616,13.42956,5.2881Q6.23653,419.04227,6.2954,420.88342q0.07214,2.23774,21.26344,3.7772-20.6126,3.11149-20.51737,5.2881,0.06879,1.563,10.81825,2.644-9.85551,2.70683-9.69912,4.53268,0.179,2.086,13.42956,3.02173-15.75233,3.269-15.66781,6.04352,0.06816,2.23848,10.44519,4.15488-11.1981,1.7242-11.19125,3.39953,0.00905,2.11649,17.90606,4.15488-17.35344,3.96635-17.16,5.2881,0.16058,1.09234,12.31044.37768c-2.05184.54962-10.94775,3.0227-10.81825,5.66584,0.15889,3.243,13.8095,4.78968,14.92169,4.91036q-12.83533,1.53283-13.0565,4.15488-0.26694,3.17015,17.90606,7.93209-18.60831,1.26978-18.65212,3.02179-0.03458,1.36464,11.19125,3.02173c-7.5243,1.59332-11.16343,3.2318-11.19125,4.91036-0.03349,2.02147,5.1697,4.15965,16.04081,6.42125q-17.82324.88951-17.90606,2.644-0.06092,1.28051,9.32612,3.02173-7.408,3.19352-7.08781,4.91036,0.45857,2.46047,16.78688,1.88863-9.69366,3.91631-9.32606,5.66578,0.4287,2.04078,14.54869,1.13316-21.45262,7.26445-20.89037,10.1984,0.46627,2.43022,16.04081,1.88863c-0.42586.203-8.40687,4.06934-7.83388,6.79893,0.44,2.09614,5.86924,3.25893,13.4295,2.644q-19.223,4.39969-19.02519,7.55441,0.1709,2.73369,14.92175,4.53262c-0.82476.31877-7.34428,2.88956-7.08781,5.288,0.21194,1.98169,5.01678,3.53964,11.93737,3.7772q-22.17886,1.05018-22.38256,3.7772-0.17724,2.3821,16.41387,6.04352-15.52594,2.06342-15.66781,4.91036-0.11786,2.37193,10.44519,5.288-9.33358,3.99119-8.953,6.42125,0.573,3.65509,23.12863,3.7772-25.94539,5.25272-25.73994,9.06524,0.183,3.40836,21.26344,5.66584-21.03623,4.36083-20.89037,5.288,0.11894,0.752,14.17562-.75542c-7.05939,3.48538-11.90388,7.91266-11.19131,10.57614,0.77,2.87807,8.21834,4.4073,18.27912,2.644-1.65.53355-16.19934,5.311-15.66781,8.6875,0.45145,2.868,11.56154,3.31716,14.17562,3.39953q-21.66435,2.585-21.6365,4.91036,0.02073,1.77544,12.68344,3.39947Q8.36,652.10718,8.53365,654.69183q0.2292,3.40121,22.38256,5.288Q5.56128,666.41585,5.92234,670.556q0.2989,3.4331,18.27912,5.2881-12.14014,3.21533-11.93737,4.91036,0.22874,1.904,16.04081,1.88857c-8.61609,2.71908-19.03816,6.64208-18.65212,9.82072,0.15877,1.30724,2.248,3.33274,14.54869,4.53262q-15.07614,5.91144-14.54869,8.30983,0.62377,2.84074,23.12862.75548-4.357,5.386-8.714,10.772H-0.65048Z" transform="translate(1.15048 126.76044)"/><path class="cls-1" d="M843.60055-123.26044H1.48062v31.83892Q4.017-87.73132,6.55333-84.0412,5.85547-112.60657,7.68523-112.872q1.95423-.2831,6.7914,31.71385,0.566-11.292,1.1319-22.5841,3.3957,9.61021,6.7914,19.2205-1.30344-25.62664.3773-25.94771,1.88869-.36122,7.546,31.23339,0.46942-17.76143,3.0184-18.2595,2.11439-.41311,5.6595,11.05174-2.85947-28.37065-1.1319-28.83078,2.00475-.53437,10.1871,36.519-1.16183-23.73811.3773-24.02564,1.14243-.21337,3.773,12.49336,2.45873-16.48469,3.773-16.33743,1.53633,0.1714,1.5092,23.06464,3.825-20.90689,6.4141-20.66211,2.10746,0.19973,3.3957,14.41543,2.60211-19.83664,3.773-19.701,1.39874,0.16254.7546,28.83078,4.40844-26.66809,7.546-26.42825,2.75324,0.21093,4.5276,21.14257,2.08349-23.12516,2.6411-23.06464,0.6459,0.06891-.7546,31.23339,7.11835-33.72027,9.80981-33.15539,2.09388,0.43852,1.50919,21.623,3.71262-20.87179,6.41411-20.662,3.13234,0.24369,4.9049,28.83078c-1.27179-11.26691.80612-19.29963,3.773-20.18157,3.14671-.93542,7.03693,6.24924,7.546,7.20775q-0.21541-17.9516,1.5092-18.25958,2.19771-.39188,7.546,27.86979,0.19723-23.85214,1.8865-24.02564,1.797-.18364,5.28221,26.42825,3.76147-23.30763,5.6595-23.06464,2.23231,0.28648,1.88649,33.15539,4.86395-37.23906,7.92331-36.99953,2.47865,0.19355,3.773,24.98671,3.93736-26.61562,6.79141-26.42825,2.486,0.163,4.1503,20.66211,2.32519-12.40715,4.90489-12.49336,3.86451-.12954,8.3006,27.38925,0.56614-31.97666,4.5276-32.67493,2.6412-.465,6.79141,12.9739,1.10916-14.34209,2.6411-14.41543,2.20372-.10587,5.2822,29.31132c0.17242-5.633,1.05934-30.13015,5.2822-30.75286,3.51183-.51785,7.75954,15.70757,9.43251,22.5841q0.12252-18.68045,2.6411-19.2205,2.0422-.43747,5.6595,11.05182,2.127-15.87885,4.1503-15.857,2.53377,0.02682,4.90491,24.98671c0.65791-5.28591,2.69185-20.12452,5.6595-20.18157,2.23167-.04291,4.15359,8.28924,5.2822,14.41543q2.71362-20.69176,5.2822-20.66211,2.92351,0.03311,5.6595,26.90871,1.25739-17.21424,3.0184-17.29842,2.23544-.10657,5.28221,27.38925,2.17744-24.05316,4.1503-24.02564,1.57425,0.02169,3.0184,15.37643,0.96483-28.22071,3.0184-28.35032,1.831-.11508,4.52759,22.10364,2.42606-16.40517,4.52762-16.3375,2.725,0.0871,4.90488,27.86979,1.91336-30.09664,4.90491-30.27232,2.75107-.16067,6.41409,24.98671c0.0918-1.9541,1.10965-22.30318,4.1503-22.58418,2.85376-.26374,5.99094,17.28793,6.41412,19.701q1.28874-19.69334,2.64108-19.701,1.65051-.00863,3.39572,29.31132,2.75793-24.39141,6.0368-24.50618,2.32178-.0808,4.90488,12.01282,1.65578-18.24683,3.39572-18.2595,2.01837-.01516,4.1503,24.50618,1.849-29.67071,4.52759-29.79178,2.32791-.1061,5.2822,22.10357,3.67456-23.27825,6.0368-23.06464,2.82527,0.256,3.773,34.11646c0.24335-8.71769,1.00607-24.09117,3.773-24.50618,2.25717-.33852,5.07364,9.39365,7.1687,18.2595,0.52948-9.18867,1.59268-22.985,3.39569-23.06464,1.72623-.07625,3.46686,12.45029,4.52759,21.62311-0.37582-11.49956,2.5748-20.08689,5.65952-20.662,3.19672-.596,8.32,7.08027,10.1871,19.701q0.11151-19.62326,1.1319-19.701,1.13525-.08558,3.39569,24.02564,1.88466-27.38808,3.773-27.38925,1.69643-.00035,3.39569,22.10357,1.77681-14.924,3.39572-14.89589,2.00789,0.0344,3.773,23.06464,0.84924-22.13081,3.773-22.5841,2.104-.32659,5.2822,10.57128,2.52425-18.38675,4.1503-18.2595,2.00066,0.15741,2.64111,28.35025,2.065-19.13775,4.52759-19.2205,2.11693-.07171,4.52762,13.93489,1.54747-15.8,3.39569-15.857,2.07426-.06425,4.52759,19.701c-0.79791-6.95862.58255-12.06016,2.26379-12.49336,1.58563-.40856,4.10031,3.16493,5.65952,8.64929q0.36667-19.55517,1.88651-19.701,1.817-.17513,5.2822,27.38925,0.11124-31.28582,3.0184-31.71393,2.52768-.37148,7.1687,22.58418,0.54048-11.376,1.88651-11.53236,1.54477-.17991,4.1503,14.41543c-0.3017-16.26374.489-19.12007,1.1319-19.22057,0.64978-.10152,1.99454,2.48026,4.90491,19.22057,0.662-11.331,3.23062-19.12605,5.65948-19.22057,2.29718-.08939,4.9556,6.69037,6.41412,15.857,0.32919-2.58225,1.83939-13.71561,4.52759-13.93489,3.41721-.27875,6.61191,17.25217,6.79141,18.2595,0.49072-4.13525,2.50232-20.17419,5.2822-20.18157,2.33627-.00622,4.17874,11.31362,4.90491,16.3375q2.15652-12.60432,3.773-12.49336,1.87111,0.129,3.01843,17.29842,4.8912-24.83133,8.3006-24.5061,2.74384,0.26211,4.52759,16.818,0.42645-16.18433,1.88647-16.3375,1.72824-.18073,4.90491,22.10364,1.22379-24.76394,3.773-24.98671,2.16376-.18959,5.28223,17.2985,2.31116-18.33533,4.15027-18.2595,2.23526,0.09293,3.773,27.38925,3.108-26.55091,5.28223-26.42825,1.56125,0.08861,2.64105,13.93489,2.70383-12.6948,4.52765-12.49336,2.08365,0.23063,3.01837,17.2985,3.26541-20.29043,6.0368-20.18157,2.236,0.0878,4.15027,13.45435,1.72229-14.42418,3.39575-14.41535,2.11414,0.01166,4.15027,23.06464,3.96194-22.35281,5.28223-22.10364,1.09113,0.20684.37726,15.857c0.549-2.643,3.01935-14.1017,5.65955-13.93489,3.23944,0.20467,4.78436,17.7879,4.90491,19.2205q1.53113-16.53308,4.15027-16.818,3.16663-.34385,7.92328,23.06464,1.26837-23.96921,3.01843-24.02564,1.36313-.04454,3.01837,14.41535c1.59155-9.692,3.22821-14.37952,4.90491-14.41535,2.01923-.04314,4.155,6.659,6.41412,20.662q0.88852-22.958,2.64111-23.06464,1.27908-.07847,3.01837,12.0129,3.19-9.54223,4.90491-9.12975,2.45773,0.59068,1.88654,21.623,3.912-12.48632,5.65948-12.01282,2.03851,0.55221,1.1319,18.74,7.25638-27.63294,10.18707-26.90871,2.42752,0.60059,1.88654,20.662c0.20282-.54855,4.06482-10.82881,6.79138-10.09075,2.09381,0.56674,3.25531,7.56011,2.64111,17.29842q4.39481-24.761,7.546-24.50618,2.73065,0.22014,4.52759,19.22057c0.31842-1.06236,2.88635-9.46011,5.28217-9.12975,1.97949,0.273,3.53571,6.46207,3.773,15.37643q1.049-28.5684,3.773-28.83078,2.37946-.2283,6.0368,21.14257,2.06113-19.99882,4.90491-20.18157,2.36929-.15181,5.28217,13.45435,3.98676-12.0225,6.41412-11.53228,3.651,0.73806,3.773,29.79178,5.24689-33.42,9.05518-33.15539,3.40457,0.23576,5.65955,27.38925,4.356-27.09659,5.28217-26.90871,0.75119,0.15321-.75458,18.2595c3.48151-9.09314,7.90387-15.33329,10.56439-14.41543,2.87488,0.99178,4.4024,10.586,2.64111,23.54518,0.533-2.12534,5.30505-20.86623,8.67786-20.18157,2.86481,0.58151,3.31348,14.89231,3.39575,18.2595q2.58215-27.90566,4.90491-27.86979,1.77347,0.0267,3.39569,16.33743,3.455-16.08056,6.0368-15.85689,3.39743,0.29523,5.28217,28.83078,6.42883-32.65946,10.56439-32.19439,3.42929,0.385,5.28223,23.54518,3.21176-15.63761,4.90491-15.37643,1.90192,0.29464,1.88647,20.662c2.71606-11.09831,6.6347-24.52289,9.80981-24.02564,1.30579,0.20451,3.329,2.89566,4.52759,18.74q5.90488-19.41945,8.3006-18.74,2.83759,0.80347.75464,29.79178,5.38-5.61219,10.76007-11.22439v-31.83892Z" transform="translate(1.15048 126.76044)"/><path class="cls-2" d="M858.50506-126.26044H1.48062v25q2.58124,2.89755,5.16249,5.795Q5.9329-117.895,7.795-118.1034q1.98882-.22229,6.9116,24.90179,0.576-8.86652,1.15193-17.73309,3.4558,7.546,6.9116,15.092-1.32651-20.1221.384-20.37421,1.92212-.28363,7.67955,24.52454,0.47772-13.94632,3.07182-14.3374,2.15181-.32437,5.75967,8.67786-2.91008-22.2767-1.15193-22.638,2.04023-.41959,10.3674,28.6748-1.1824-18.63922.384-18.865,1.16265-.16754,3.83978,9.80981,2.50225-12.94382,3.83978-12.82819,1.56352,0.13458,1.53591,18.11041,3.89273-16.41614,6.52763-16.22394,2.14476,0.15683,3.4558,11.319,2.64817-15.57578,3.83978-15.4693,1.4235,0.12762.768,22.638,4.48646-20.93985,7.67955-20.75153,2.802,0.16562,4.60774,16.6012,2.12036-18.15793,2.68784-18.11041,0.65734,0.05411-.768,24.52454,7.24434-26.47723,9.98343-26.03369,2.13094,0.34433,1.5359,16.97845,3.77833-16.38858,6.52763-16.22388,3.18778,0.19135,4.99171,22.638c-1.2943-8.8468.82039-15.15411,3.83977-15.84662,3.20241-.7345,7.16148,4.90692,7.67956,5.65955q-0.21922-14.09564,1.53591-14.33746,2.23661-.30771,7.67955,21.88342,0.20072-18.72876,1.91989-18.865,1.82878-.1442,5.3757,20.75153,3.828-18.30121,5.75967-18.11041,2.27182,0.22494,1.91988,26.03369,4.95-29.2402,8.06354-29.05212,2.52252,0.152,3.83977,19.61963,4.007-20.89865,6.91161-20.75153,2.53,0.128,4.22375,16.22394,2.36634-9.74213,4.9917-9.80981,3.93291-.10171,8.44751,21.5061,0.57616-25.10815,4.60774-25.65643,2.688-.36511,6.91161,10.18713,1.12879-11.26144,2.68784-11.319,2.24272-.08313,5.37568,23.01532c0.17548-4.423,1.07809-23.65826,5.37568-24.14722,3.574-.40662,7.89687,12.33362,9.59945,17.73309q0.12469-14.66794,2.68784-15.092,2.07834-.34351,5.75967,8.67792,2.16467-12.46811,4.22375-12.45093,2.57861,0.02106,4.99172,19.61963c0.66956-4.15051,2.73949-15.80182,5.75967-15.84662,2.27117-.03369,4.22711,6.50873,5.37568,11.319q2.76165-16.24722,5.37568-16.22394,2.97525,0.026,5.75967,21.12878,1.27964-13.51666,3.07182-13.58276,2.275-.08368,5.3757,21.5061,2.216-18.8866,4.22375-18.865,1.60211,0.017,3.07182,12.07361,0.9819-22.159,3.07182-22.26074,1.86337-.09036,4.60772,17.35584,2.469-12.88138,4.60775-12.82825,2.77325,0.06839,4.99169,21.88342,1.94722-23.632,4.99172-23.7699,2.79976-.12616,6.52761,19.61963c0.09342-1.53436,1.12929-17.51251,4.22375-17.73315,2.90427-.20709,6.097,13.57452,6.52765,15.4693q1.31155-15.46326,2.68783-15.4693,1.67972-.00677,3.45582,23.01532,2.80675-19.15219,6.14365-19.24231,2.36287-.06345,4.99169,9.4325,1.68508-14.32745,3.45582-14.3374,2.05409-.0119,4.22375,19.24231,1.88177-23.29752,4.60772-23.39258,2.36911-.08331,5.37568,17.35577,3.7396-18.27814,6.14365-18.11041,2.87528,0.201,3.83979,26.78833c0.24765-6.84515,1.02388-18.91644,3.83979-19.24231,2.29712-.26581,5.16344,7.37592,7.29558,14.3374,0.53885-7.215,1.62087-18.04791,3.45579-18.11041,1.75678-.05988,3.52822,9.776,4.60772,16.97852-0.38248-9.02948,2.62037-15.77228,5.75968-16.22388,3.25329-.468,8.46723,5.55945,10.3674,15.4693q0.11348-15.40823,1.15193-15.4693,1.15535-.0672,3.45579,18.865,1.918-21.50519,3.83979-21.5061,1.72645-.00027,3.45579,17.35577,1.80826-11.71838,3.45582-11.69629,2.04343,0.027,3.83976,18.11041,0.86427-17.37717,3.83979-17.73309,2.14126-.25644,5.37568,8.3006,2.56892-14.43732,4.22375-14.3374,2.03607,0.1236,2.68786,22.26068,2.10152-15.027,4.60772-15.092,2.1544-.0563,4.60775,10.94171,1.57486-12.40622,3.45579-12.45093,2.111-.05045,4.60772,15.4693c-0.812-5.46393.59286-9.46967,2.30386-9.80981,1.6137-.3208,4.17288,2.48511,5.75968,6.79144q0.37316-15.35477,1.91989-15.4693,1.84921-.13751,5.37568,21.5061,0.11321-24.5657,3.07182-24.90186,2.57242-.29169,7.29558,17.73315,0.55-8.93243,1.91989-9.05524,1.57211-.14127,4.22375,11.319c-0.307-12.77032.4977-15.01312,1.15193-15.092,0.66128-.07971,2.02984,1.94751,4.99172,15.092,0.67367-8.89716,3.2878-15.01782,5.75965-15.092,2.33784-.07019,5.04331,5.2533,6.52765,12.45093,0.335-2.02759,1.87194-10.76953,4.60772-10.94171,3.47769-.21887,6.72893,13.54645,6.91161,14.3374,0.49941-3.247,2.54661-15.84082,5.37568-15.84662,2.37762-.00488,4.2527,8.88348,4.99172,12.82825q2.19469-9.89694,3.83976-9.80981,1.90423,0.10126,3.07186,13.58276,4.97777-19.49762,8.44751-19.24225,2.7924,0.20581,4.60772,13.20551,0.434-12.708,1.91986-12.82825,1.75883-.14191,4.99172,17.35583,1.24545-19.4447,3.83979-19.61963,2.20205-.14886,5.37572,13.58282,2.35206-14.39694,4.22372-14.3374,2.27482,0.073,3.83979,21.5061,3.163-20.84784,5.37572-20.75153,1.58888,0.06958,2.6878,10.94171,2.75168-9.968,4.60778-9.80981,2.12053,0.18109,3.07179,13.58282,3.32321-15.9321,6.14365-15.84662,2.27557,0.06894,4.22372,10.56439,1.75277-11.3259,3.45585-11.319,2.15155,0.00916,4.22372,18.11041,4.03207-17.55148,5.37572-17.35583,1.11044,0.16241.38394,12.45093c0.55873-2.07526,3.07279-11.07269,5.75971-10.94171,3.29678,0.16071,4.869,13.9671,4.99172,15.092q1.55823-12.98181,4.22372-13.20551,3.22267-.27,8.06351,18.11041,1.29082-18.82068,3.07186-18.865,1.38725-.035,3.07179,11.319c1.61972-7.61017,3.28535-11.29083,4.99172-11.319,2.055-.03387,4.22857,5.2287,6.52765,16.22388q0.90424-18.02664,2.68786-18.11041,1.30172-.06162,3.07179,9.43256,3.24643-7.49258,4.99172-7.1687,2.50123,0.46381,1.91993,16.97845,3.98119-9.80429,5.75965-9.4325,2.07459,0.43359,1.15193,14.71472,7.38481-21.69745,10.36737-21.12878,2.47048,0.47159,1.91992,16.22388c0.20641-.43073,4.13676-8.50281,6.91158-7.92328,2.13087,0.445,3.31293,5.93622,2.68786,13.58276q4.47259-19.44241,7.67958-19.24231,2.779,0.17285,4.60772,15.092c0.32406-.83417,2.93744-7.4281,5.37565-7.1687,2.01453,0.21436,3.59828,5.074,3.83979,12.07361q1.06758-22.432,3.83979-22.638,2.42157-.17926,6.14365,16.6012,2.09761-15.70313,4.99172-15.84662,2.41123-.1192,5.37565,10.56439,4.05732-9.44009,6.52765-9.05518,3.71565,0.57953,3.83979,23.39258,5.33975-26.24149,9.21544-26.03369,3.46483,0.18512,5.75971,21.5061,4.43308-21.27631,5.37565-21.12878,0.76449,0.1203-.76793,14.3374c3.54312-7.14,8.04376-12.03973,10.75137-11.319,2.92576,0.77875,4.48032,8.31213,2.68786,18.48773,0.54239-1.66882,5.39895-16.38422,8.83144-15.84662,2.91551,0.4566,3.37212,11.69348,3.45585,14.3374q2.62785-21.91159,4.99172-21.88342,1.80486,0.021,3.45579,12.82819,3.51617-12.6265,6.14365-12.45087,3.45756,0.23181,5.37565,22.638,6.54262-25.64429,10.75137-25.27911,3.49,0.30231,5.37572,18.48773,3.26861-12.27869,4.99172-12.07361,1.93558,0.23135,1.91986,16.22388C826.512-105.689,830.5-116.23,833.73133-115.8396c1.3289,0.16058,3.388,2.27368,4.60772,14.71472q6.00939-15.2482,8.44751-14.71472,2.88781,0.63089.768,23.39258,5.47522-4.40671,10.95051-8.81342v-25Z" transform="translate(1.15048 126.76044)"/></svg>