<svg id="Layer_1" data-name="Layer 1" xmlns="http://www.w3.org/2000/svg" viewBox="0 0 846.74172 151.69412"><defs><style>.cls-1{fill:#52602c;stroke:#52602c;}.cls-1,.cls-2,.cls-3{stroke-miterlimit:10;}.cls-2{fill:#3c5124;stroke:#3c5124;}.cls-3{fill:#52602b;stroke:#52602b;}</style></defs><title>grass2</title><path class="cls-1" d="M0,348.74651H842.11993V316.90759q-2.53635-3.6902-5.07271-7.38032,0.69786,28.56537-1.1319,28.83078-1.95423.2831-6.7914-31.71385-0.566,11.292-1.1319,22.5841-3.3957-9.61021-6.7914-19.2205,1.30344,25.62664-.3773,25.94771-1.88869.36122-7.546-31.23339-0.46942,17.76143-3.0184,18.2595-2.11439.41311-5.6595-11.05174,2.85947,28.37065,1.1319,28.83078-2.00475.53437-10.1871-36.519,1.16183,23.73811-.3773,24.02564-1.14243.21337-3.773-12.49336-2.45873,16.48469-3.773,16.33743-1.53633-.1714-1.5092-23.06464-3.825,20.90689-6.4141,20.66211-2.10746-.19973-3.3957-14.41543-2.60211,19.83664-3.773,19.701-1.39874-.16254-0.7546-28.83078-4.40844,26.66809-7.546,26.42825-2.75324-.21093-4.5276-21.14257-2.08349,23.12516-2.6411,23.06464-0.6459-.06891.7546-31.23339-7.11835,33.72027-9.80981,33.15539-2.09388-.43852-1.50919-21.623-3.71262,20.87179-6.41411,20.662-3.13234-.24369-4.9049-28.83078c1.27179,11.26691-.80612,19.29963-3.773,20.18157-3.14671.93542-7.03693-6.24924-7.546-7.20775q0.21541,17.9516-1.5092,18.25958-2.19771.39188-7.546-27.86979-0.19723,23.85214-1.8865,24.02564-1.797.18364-5.28221-26.42825-3.76147,23.30763-5.6595,23.06464-2.23231-.28648-1.88649-33.15539-4.86394,37.23906-7.92331,36.99953-2.47865-.19355-3.773-24.98671-3.93736,26.61562-6.79141,26.42825-2.486-.163-4.1503-20.66211-2.32519,12.40715-4.90489,12.49336-3.86451.12954-8.3006-27.38925-0.56614,31.97666-4.5276,32.67493-2.6412.465-6.79141-12.9739-1.10916,14.34209-2.6411,14.41543-2.20372.10587-5.2822-29.31132c-0.17242,5.633-1.05934,30.13015-5.2822,30.75286-3.51183.51785-7.75954-15.70757-9.43251-22.5841q-0.12252,18.68045-2.6411,19.2205-2.0422.43747-5.6595-11.05182-2.127,15.87885-4.1503,15.857-2.53377-.02682-4.90491-24.98671c-0.65791,5.28591-2.69185,20.12452-5.6595,20.18157-2.23167.04291-4.15359-8.28924-5.2822-14.41543q-2.71362,20.69176-5.2822,20.66211-2.92351-.03311-5.6595-26.90871-1.25739,17.21424-3.0184,17.29842-2.23544.10657-5.28221-27.38925-2.17744,24.05316-4.1503,24.02564-1.57425-.02169-3.0184-15.37643-0.96483,28.22071-3.0184,28.35032-1.831.11508-4.52759-22.10364-2.42606,16.40517-4.52762,16.3375-2.725-.0871-4.90488-27.86979-1.91336,30.09664-4.90491,30.27232-2.75107.16067-6.41409-24.98671c-0.0918,1.9541-1.10965,22.30318-4.1503,22.58418-2.85376.26374-5.99094-17.28793-6.41412-19.701q-1.28874,19.69334-2.64108,19.701-1.65051.00863-3.39572-29.31132-2.75793,24.39141-6.0368,24.50618-2.32178.0808-4.90488-12.01282-1.65578,18.24683-3.39572,18.2595-2.01837.01516-4.1503-24.50618-1.849,29.67071-4.52759,29.79178-2.32791.1061-5.2822-22.10357-3.67456,23.27825-6.0368,23.06464-2.82527-.256-3.773-34.11646c-0.24335,8.71769-1.00607,24.09117-3.773,24.50618-2.25717.33852-5.07364-9.39365-7.1687-18.2595-0.52948,9.18867-1.59268,22.985-3.39569,23.06464-1.72623.07625-3.46686-12.45029-4.52759-21.62311,0.37582,11.49956-2.5748,20.08689-5.65952,20.662-3.19672.596-8.32-7.08027-10.1871-19.701q-0.11151,19.62326-1.1319,19.701-1.13525.08558-3.39569-24.02564-1.88466,27.38808-3.773,27.38925-1.69643.00035-3.39569-22.10357-1.77681,14.924-3.39572,14.89589-2.00789-.0344-3.773-23.06464-0.84924,22.13081-3.773,22.5841-2.104.32659-5.2822-10.57128-2.52425,18.38675-4.1503,18.2595-2.00066-.15741-2.64111-28.35025-2.065,19.13775-4.52759,19.2205-2.11693.07171-4.52762-13.93489-1.54747,15.8-3.39569,15.857-2.07426.06425-4.52759-19.701c0.79791,6.95862-.58255,12.06016-2.26379,12.49336-1.58563.40856-4.10031-3.16493-5.65952-8.64929q-0.36667,19.55517-1.88651,19.701-1.817.17513-5.2822-27.38925-0.11124,31.28582-3.0184,31.71393-2.52768.37148-7.1687-22.58418-0.54048,11.376-1.88651,11.53236-1.54477.17991-4.1503-14.41543c0.3017,16.26374-.489,19.12007-1.1319,19.22057-0.64978.10152-1.99454-2.48026-4.90491-19.22057-0.662,11.331-3.23062,19.12605-5.65948,19.22057-2.29718.08939-4.9556-6.69037-6.41412-15.857-0.32919,2.58225-1.83939,13.71561-4.52759,13.93489-3.41721.27875-6.61191-17.25217-6.79141-18.2595-0.49072,4.13525-2.50232,20.17419-5.2822,20.18157-2.33627.00622-4.17874-11.31362-4.90491-16.3375q-2.15652,12.60432-3.773,12.49336-1.87111-.129-3.01843-17.29842-4.8912,24.83133-8.3006,24.5061-2.74384-.26211-4.52759-16.818-0.42645,16.18433-1.88647,16.3375-1.72824.18073-4.90491-22.10364-1.22379,24.76394-3.773,24.98671-2.16376.18959-5.28223-17.2985-2.31116,18.33533-4.15027,18.2595-2.23526-.09293-3.773-27.38925-3.108,26.55091-5.28223,26.42825-1.56125-.08861-2.64105-13.93489-2.70383,12.6948-4.52765,12.49336-2.08365-.23063-3.01837-17.2985-3.26541,20.29043-6.0368,20.18157-2.236-.0878-4.15027-13.45435-1.72229,14.42418-3.39575,14.41535-2.11414-.01166-4.15027-23.06464-3.96194,22.35281-5.28223,22.10364-1.09113-.20684-0.37726-15.857c-0.549,2.643-3.01935,14.10171-5.65955,13.93489-3.23944-.20467-4.78436-17.7879-4.90491-19.2205q-1.53113,16.53308-4.15027,16.818-3.16663.34385-7.92328-23.06464-1.26837,23.96921-3.01843,24.02564-1.36313.04454-3.01837-14.41535c-1.59155,9.692-3.22821,14.37952-4.90491,14.41535-2.01923.04314-4.155-6.659-6.41412-20.662q-0.88852,22.958-2.64111,23.06464-1.27908.07847-3.01837-12.0129-3.19,9.54223-4.90491,9.12975-2.45773-.59068-1.88654-21.623-3.912,12.48632-5.65948,12.01282-2.03851-.55221-1.1319-18.74-7.25638,27.63294-10.18707,26.90871-2.42752-.60059-1.88654-20.662c-0.20282.54855-4.06482,10.82881-6.79138,10.09075-2.09381-.56674-3.25531-7.56011-2.64111-17.29842q-4.39481,24.761-7.546,24.50618-2.73065-.22014-4.52759-19.22057c-0.31842,1.06236-2.88635,9.46011-5.28217,9.12975-1.97949-.273-3.53571-6.46207-3.773-15.37643q-1.049,28.5684-3.773,28.83078-2.37946.2283-6.0368-21.14257-2.06113,19.99882-4.90491,20.18157-2.36929.15181-5.28217-13.45435-3.98676,12.0225-6.41412,11.53228-3.651-.73806-3.773-29.79178-5.24689,33.42-9.05518,33.15539-3.40457-.23576-5.65955-27.38925-4.356,27.09659-5.28217,26.90871-0.75119-.15321.75458-18.2595c-3.48151,9.09314-7.90387,15.33329-10.56439,14.41543-2.87488-.99178-4.4024-10.586-2.64111-23.54518-0.533,2.12534-5.30505,20.86623-8.67786,20.18157-2.86481-.58151-3.31348-14.89231-3.39575-18.2595q-2.58215,27.90566-4.90491,27.86979-1.77347-.0267-3.39569-16.33743-3.455,16.08056-6.0368,15.85689-3.39743-.29523-5.28217-28.83078-6.42883,32.65946-10.56439,32.19439-3.42929-.385-5.28223-23.54518-3.21176,15.63761-4.90491,15.37643-1.90192-.29464-1.88647-20.662c-2.71606,11.09831-6.6347,24.52289-9.80981,24.02564-1.30579-.20451-3.329-2.89566-4.52759-18.74q-5.90488,19.41945-8.3006,18.74-2.83759-.80347-0.75464-29.79178Q5.38007,311.29539,0,316.90759v31.83892Z" transform="translate(2.15792 -197.90609)"/><path class="cls-2" d="M0.50447,348.45831H842.62441v-25q-2.53635-2.89755-5.07271-5.795,0.69786,22.4296-1.1319,22.638-1.95423.22229-6.7914-24.90179-0.566,8.86652-1.1319,17.73309-3.3957-7.546-6.7914-15.092,1.30344,20.1221-.3773,20.37421-1.88869.28363-7.546-24.52454-0.46942,13.94632-3.0184,14.3374-2.11439.32437-5.6595-8.67786,2.85947,22.2767,1.1319,22.638-2.00475.41959-10.1871-28.6748,1.16183,18.63922-.3773,18.865-1.14243.16754-3.773-9.80981-2.45873,12.94382-3.773,12.82819-1.53633-.13458-1.5092-18.11041-3.825,16.41614-6.4141,16.22394-2.10746-.15683-3.3957-11.319-2.60211,15.57578-3.773,15.4693-1.39874-.12762-0.7546-22.638-4.40844,20.93985-7.546,20.75153-2.75324-.16562-4.5276-16.6012-2.08349,18.15793-2.6411,18.11041-0.6459-.05411.7546-24.52454-7.11835,26.47723-9.80981,26.03369-2.09388-.34433-1.50919-16.97845-3.71262,16.38858-6.41411,16.22388-3.13234-.19135-4.9049-22.638c1.27179,8.8468-.80612,15.15411-3.773,15.84662-3.14671.7345-7.03693-4.90692-7.546-5.65955q0.21541,14.09564-1.5092,14.33746-2.19771.30771-7.546-21.88342-0.19723,18.72876-1.8865,18.865-1.797.1442-5.28221-20.75153-3.76147,18.30121-5.6595,18.11041-2.23231-.22494-1.88649-26.03369-4.86394,29.2402-7.92331,29.05212-2.47865-.152-3.773-19.61963-3.93736,20.89865-6.79141,20.75153-2.486-.128-4.1503-16.22394-2.32519,9.74213-4.90489,9.80981-3.86451.10172-8.3006-21.5061-0.56614,25.10815-4.5276,25.65643-2.6412.36511-6.79141-10.18713-1.10916,11.26144-2.6411,11.319-2.20372.08313-5.2822-23.01532c-0.17242,4.423-1.05934,23.65826-5.2822,24.14722-3.51183.40662-7.75954-12.33362-9.43251-17.73309q-0.12252,14.66794-2.6411,15.092-2.0422.34351-5.6595-8.67792-2.127,12.46811-4.1503,12.45093-2.53377-.02106-4.90491-19.61963c-0.65791,4.15051-2.69185,15.80182-5.6595,15.84662-2.23167.03369-4.15359-6.50873-5.2822-11.319q-2.71362,16.24722-5.2822,16.22394-2.92351-.026-5.6595-21.12878-1.25739,13.51666-3.0184,13.58276-2.23544.08368-5.28221-21.5061-2.17744,18.8866-4.1503,18.865-1.57425-.017-3.0184-12.07361-0.96483,22.159-3.0184,22.26074-1.831.09036-4.52759-17.35584-2.42606,12.88138-4.52762,12.82825-2.725-.06839-4.90488-21.88342-1.91336,23.632-4.90491,23.7699-2.75107.12616-6.41409-19.61963c-0.0918,1.53436-1.10965,17.51251-4.1503,17.73315-2.85376.20709-5.99094-13.57452-6.41412-15.4693q-1.28874,15.46326-2.64108,15.4693-1.65051.00677-3.39572-23.01532-2.75793,19.15219-6.0368,19.24231-2.32178.06345-4.90488-9.4325-1.65578,14.32745-3.39572,14.3374-2.01837.0119-4.1503-19.24231-1.849,23.29752-4.52759,23.39258-2.32791.08331-5.2822-17.35577-3.67456,18.27814-6.0368,18.11041-2.82527-.201-3.773-26.78833c-0.24335,6.84515-1.00607,18.91644-3.773,19.24231-2.25717.26581-5.07364-7.37592-7.1687-14.3374-0.52948,7.215-1.59268,18.04791-3.39569,18.11041-1.72623.05988-3.46686-9.776-4.52759-16.97852,0.37582,9.02948-2.5748,15.77228-5.65952,16.22388-3.19672.468-8.32-5.55945-10.1871-15.4693q-0.11151,15.40823-1.1319,15.4693-1.13525.0672-3.39569-18.865-1.88466,21.50519-3.773,21.5061-1.69643.00027-3.39569-17.35577-1.77681,11.71838-3.39572,11.69629-2.00789-.027-3.773-18.11041-0.84924,17.37717-3.773,17.73309-2.104.25644-5.2822-8.3006-2.52425,14.43732-4.1503,14.3374-2.00066-.1236-2.64111-22.26068-2.065,15.027-4.52759,15.092-2.11693.0563-4.52762-10.94171-1.54747,12.40622-3.39569,12.45093-2.07426.05045-4.52759-15.4693c0.79791,5.46393-.58255,9.46967-2.26379,9.80981-1.58563.3208-4.10031-2.48511-5.65952-6.79144q-0.36667,15.35477-1.88651,15.4693-1.817.13751-5.2822-21.5061-0.11124,24.5657-3.0184,24.90186-2.52768.29169-7.1687-17.73315-0.54048,8.93243-1.88651,9.05524-1.54477.14127-4.1503-11.319c0.3017,12.77032-.489,15.01312-1.1319,15.092-0.64978.07971-1.99454-1.94751-4.90491-15.092-0.662,8.89716-3.23062,15.01782-5.65948,15.092-2.29718.07019-4.9556-5.2533-6.41412-12.45093-0.32919,2.02759-1.83939,10.76953-4.52759,10.94171-3.41721.21887-6.61191-13.54645-6.79141-14.3374-0.49072,3.247-2.50232,15.84082-5.2822,15.84662-2.33627.00488-4.17874-8.88348-4.90491-12.82825q-2.15652,9.89694-3.773,9.80981-1.87111-.10126-3.01843-13.58276-4.8912,19.49762-8.3006,19.24225-2.74384-.20581-4.52759-13.20551-0.42645,12.708-1.88647,12.82825-1.72824.14191-4.90491-17.35583-1.22379,19.4447-3.773,19.61963-2.16376.14886-5.28223-13.58282-2.31116,14.39694-4.15027,14.3374-2.23526-.073-3.773-21.5061-3.108,20.84784-5.28223,20.75153-1.56125-.06958-2.64105-10.94171-2.70383,9.968-4.52765,9.80981-2.08365-.18109-3.01837-13.58282-3.26541,15.9321-6.0368,15.84662-2.236-.06894-4.15027-10.56439-1.72229,11.3259-3.39575,11.319-2.11414-.00916-4.15027-18.11041-3.96194,17.55148-5.28223,17.35583-1.09113-.16241-0.37726-12.45093c-0.549,2.07526-3.01935,11.07269-5.65955,10.94171-3.23944-.16071-4.78436-13.9671-4.90491-15.092q-1.53113,12.98181-4.15027,13.20551-3.16663.27-7.92328-18.11041-1.26837,18.82068-3.01843,18.865-1.36313.035-3.01837-11.319c-1.59155,7.61017-3.22821,11.29083-4.90491,11.319-2.01923.03387-4.155-5.2287-6.41412-16.22388q-0.88852,18.02664-2.64111,18.11041-1.27908.06162-3.01837-9.43256-3.19,7.49258-4.90491,7.1687-2.45773-.46381-1.88654-16.97845-3.912,9.80429-5.65948,9.4325-2.03851-.43359-1.1319-14.71472-7.25638,21.69745-10.18707,21.12878-2.42752-.47159-1.88654-16.22388c-0.20282.43073-4.06482,8.50281-6.79138,7.92328-2.09381-.445-3.25531-5.93622-2.64111-13.58276q-4.39481,19.44241-7.546,19.24231-2.73065-.17285-4.52759-15.092c-0.31842.83417-2.88635,7.4281-5.28217,7.1687-1.97949-.21436-3.53571-5.074-3.773-12.07361q-1.049,22.432-3.773,22.638-2.37946.17926-6.0368-16.6012-2.06113,15.70313-4.90491,15.84662-2.36929.1192-5.28217-10.56439-3.98676,9.44009-6.41412,9.05518-3.651-.57953-3.773-23.39258-5.24689,26.24149-9.05518,26.03369-3.40457-.18512-5.65955-21.5061-4.356,21.27631-5.28217,21.12878-0.75119-.1203.75458-14.3374c-3.48151,7.14-7.90387,12.03973-10.56439,11.319-2.87488-.77875-4.4024-8.31213-2.64111-18.48773-0.533,1.66882-5.30505,16.38422-8.67786,15.84662-2.86481-.4566-3.31348-11.69348-3.39575-14.3374q-2.58215,21.91159-4.90491,21.88342-1.77347-.021-3.39569-12.82819-3.455,12.6265-6.0368,12.45087-3.39743-.23181-5.28217-22.638-6.42883,25.64429-10.56439,25.27911-3.42929-.30231-5.28223-18.48773-3.21176,12.27869-4.90491,12.07361-1.90192-.23135-1.88647-16.22388c-2.71606,8.71442-6.6347,19.25543-9.80981,18.865-1.30579-.16058-3.329-2.27368-4.52759-14.71472q-5.90488,15.2482-8.3006,14.71472-2.83759-.63089-0.75464-23.39258-5.38,4.40671-10.76007,8.81342v25Z" transform="translate(2.15792 -197.90609)"/><path class="cls-1" d="M842.62441,198.51445H0.50447v31.83892q2.53635,3.6902,5.07271,7.38032-0.69786-28.56537,1.1319-28.83078,1.95423-.2831,6.7914,31.71385,0.566-11.292,1.1319-22.5841,3.3957,9.61021,6.7914,19.2205-1.30344-25.62664.3773-25.94771,1.88869-.36122,7.546,31.23339,0.46942-17.76143,3.0184-18.2595,2.11439-.41311,5.6595,11.05174-2.85947-28.37065-1.1319-28.83078,2.00475-.53437,10.1871,36.519-1.16183-23.73811.3773-24.02564,1.14243-.21337,3.773,12.49336,2.45873-16.48469,3.773-16.33743,1.53633,0.1714,1.5092,23.06464,3.825-20.90689,6.4141-20.66211,2.10746,0.19973,3.3957,14.41543,2.60211-19.83664,3.773-19.701,1.39874,0.16254.7546,28.83078,4.40844-26.66809,7.546-26.42825,2.75324,0.21093,4.5276,21.14257,2.08349-23.12516,2.6411-23.06464,0.6459,0.06891-.7546,31.23339Q91.92854,210.26011,94.62,210.825q2.09388,0.43852,1.50919,21.623,3.71262-20.87179,6.41411-20.662,3.13234,0.24369,4.9049,28.83078c-1.27179-11.26691.80612-19.29963,3.773-20.18157,3.14671-.93542,7.03693,6.24924,7.546,7.20775q-0.21541-17.9516,1.5092-18.25958,2.19771-.39188,7.546,27.86979,0.19723-23.85214,1.8865-24.02564,1.797-.18364,5.28221,26.42825,3.76147-23.30763,5.6595-23.06464,2.23231,0.28648,1.88649,33.15539,4.86395-37.23906,7.92331-36.99953,2.47865,0.19355,3.773,24.98671,3.93736-26.61562,6.79141-26.42825,2.486,0.163,4.1503,20.66211,2.32519-12.40715,4.90489-12.49336,3.86451-.12954,8.3006,27.38925,0.56614-31.97666,4.5276-32.67493,2.6412-.465,6.79141,12.9739,1.10916-14.34209,2.6411-14.41543,2.20372-.10587,5.2822,29.31132c0.17242-5.633,1.05934-30.13015,5.2822-30.75286,3.51183-.51785,7.75954,15.70757,9.43251,22.5841q0.12252-18.68045,2.6411-19.2205,2.0422-.43747,5.6595,11.05182,2.127-15.87885,4.1503-15.857,2.53377,0.02682,4.90491,24.98671c0.65791-5.28591,2.69185-20.12452,5.6595-20.18157,2.23167-.04291,4.15359,8.28924,5.2822,14.41543q2.71362-20.69176,5.2822-20.66211,2.92351,0.03311,5.6595,26.90871,1.25739-17.21424,3.0184-17.29842,2.23544-.10657,5.28221,27.38925,2.17744-24.05316,4.1503-24.02564,1.57425,0.02169,3.0184,15.37643,0.96483-28.22071,3.0184-28.35032,1.831-.11508,4.52759,22.10364,2.42606-16.40517,4.52762-16.3375,2.725,0.0871,4.90488,27.86979,1.91336-30.09664,4.90491-30.27232,2.75107-.16067,6.41409,24.98671c0.0918-1.9541,1.10965-22.30318,4.1503-22.58418,2.85376-.26374,5.99094,17.28793,6.41412,19.701q1.28874-19.69334,2.64108-19.701,1.65051-.00863,3.39572,29.31132,2.75793-24.39141,6.0368-24.50618,2.32178-.0808,4.90488,12.01282,1.65578-18.24683,3.39572-18.2595,2.01837-.01516,4.1503,24.50618,1.849-29.67071,4.52759-29.79178,2.32791-.1061,5.2822,22.10357,3.67456-23.27825,6.0368-23.06464,2.82527,0.256,3.773,34.11646c0.24335-8.71769,1.00607-24.09117,3.773-24.50618,2.25717-.33852,5.07364,9.39365,7.1687,18.2595,0.52948-9.18867,1.59268-22.985,3.39569-23.06464,1.72623-.07625,3.46686,12.45029,4.52759,21.62311-0.37582-11.49956,2.5748-20.08689,5.65952-20.662,3.19672-.596,8.32,7.08027,10.1871,19.701q0.11151-19.62326,1.1319-19.701,1.13525-.08558,3.39569,24.02564,1.88466-27.38808,3.773-27.38925,1.69643-.00035,3.39569,22.10357,1.77681-14.924,3.39572-14.89589,2.00789,0.0344,3.773,23.06464,0.84924-22.13081,3.773-22.5841,2.104-.32659,5.2822,10.57128,2.52425-18.38675,4.1503-18.2595,2.00066,0.15741,2.64111,28.35025,2.065-19.13775,4.52759-19.2205,2.11693-.07171,4.52762,13.93489,1.54747-15.8,3.39569-15.857,2.07426-.06425,4.52759,19.701c-0.79791-6.95862.58255-12.06016,2.26379-12.49336,1.58563-.40856,4.10031,3.16493,5.65952,8.64929q0.36667-19.55517,1.88651-19.701,1.817-.17513,5.2822,27.38925,0.11124-31.28582,3.0184-31.71393,2.52768-.37148,7.1687,22.58418,0.54048-11.376,1.88651-11.53236,1.54477-.17991,4.1503,14.41543c-0.3017-16.26374.489-19.12007,1.1319-19.22057,0.64978-.10152,1.99454,2.48026,4.90491,19.22057,0.662-11.331,3.23062-19.12605,5.65948-19.22057,2.29718-.08939,4.9556,6.69037,6.41412,15.857,0.32919-2.58225,1.83939-13.71561,4.52759-13.93489,3.41721-.27875,6.61191,17.25217,6.79141,18.2595,0.49072-4.13525,2.50232-20.17419,5.2822-20.18157,2.33627-.00622,4.17874,11.31362,4.90491,16.3375q2.15652-12.60432,3.773-12.49336,1.87111,0.129,3.01843,17.29842,4.8912-24.83133,8.3006-24.5061,2.74384,0.26211,4.52759,16.818,0.42645-16.18433,1.88647-16.3375,1.72824-.18073,4.90491,22.10364,1.22379-24.76394,3.773-24.98671,2.16376-.18959,5.28223,17.2985,2.31116-18.33533,4.15027-18.2595,2.23526,0.09293,3.773,27.38925,3.108-26.55091,5.28223-26.42825,1.56125,0.08861,2.64105,13.93489,2.70383-12.6948,4.52765-12.49336,2.08365,0.23063,3.01837,17.2985,3.26541-20.29043,6.0368-20.18157,2.236,0.0878,4.15027,13.45435,1.72229-14.42418,3.39575-14.41535,2.11414,0.01166,4.15027,23.06464,3.96194-22.35281,5.28223-22.10364,1.09113,0.20684.37726,15.857c0.549-2.643,3.01935-14.1017,5.65955-13.93489,3.23944,0.20467,4.78436,17.7879,4.90491,19.2205q1.53113-16.53308,4.15027-16.818,3.16663-.34385,7.92328,23.06464,1.26837-23.96921,3.01843-24.02564,1.36313-.04454,3.01837,14.41535c1.59155-9.692,3.22821-14.37952,4.90491-14.41535,2.01923-.04314,4.155,6.659,6.41412,20.662q0.88852-22.958,2.64111-23.06464,1.27908-.07847,3.01837,12.0129,3.19-9.54223,4.90491-9.12975,2.45773,0.59068,1.88654,21.623,3.912-12.48632,5.65948-12.01282,2.03851,0.55221,1.1319,18.74,7.25638-27.63294,10.18707-26.90871,2.42752,0.60059,1.88654,20.662c0.20282-.54855,4.06482-10.82881,6.79138-10.09075,2.09381,0.56674,3.25531,7.56011,2.64111,17.29842q4.39481-24.761,7.546-24.50618,2.73065,0.22014,4.52759,19.22057c0.31842-1.06236,2.88635-9.46011,5.28217-9.12975,1.97949,0.273,3.53571,6.46207,3.773,15.37643q1.049-28.5684,3.773-28.83078,2.37946-.2283,6.0368,21.14257,2.06113-19.99882,4.90491-20.18157,2.36929-.15181,5.28217,13.45435,3.98676-12.0225,6.41412-11.53228,3.651,0.73806,3.773,29.79178,5.24689-33.42,9.05518-33.15539,3.40457,0.23576,5.65955,27.38925,4.356-27.09659,5.28217-26.90871,0.75119,0.15321-.75458,18.2595c3.48151-9.09314,7.90387-15.33329,10.56439-14.41543,2.87488,0.99178,4.4024,10.586,2.64111,23.54518,0.533-2.12534,5.30505-20.86623,8.67786-20.18157,2.86481,0.58151,3.31348,14.89231,3.39575,18.2595q2.58215-27.90566,4.90491-27.86979,1.77347,0.0267,3.39569,16.33743,3.455-16.08056,6.0368-15.85689,3.39743,0.29523,5.28217,28.83078,6.42883-32.65946,10.56439-32.19439,3.42929,0.385,5.28223,23.54518,3.21176-15.63761,4.90491-15.37643,1.90192,0.29464,1.88647,20.662c2.71606-11.09831,6.6347-24.52289,9.80981-24.02564,1.30579,0.20451,3.329,2.89566,4.52759,18.74q5.90488-19.41945,8.3006-18.74,2.83759,0.80347.75464,29.79178,5.38-5.61219,10.76007-11.22439V198.51445Z" transform="translate(2.15792 -197.90609)"/><path class="cls-2" d="M842.11993,198.80265H0v25q2.53635,2.89755,5.07271,5.795-0.69786-22.4296,1.1319-22.638,1.95423-.22229,6.7914,24.90179,0.566-8.86652,1.1319-17.73309,3.3957,7.546,6.7914,15.092-1.30344-20.1221.3773-20.37421,1.88869-.28363,7.546,24.52454,0.46942-13.94632,3.0184-14.3374,2.11439-.32437,5.6595,8.67786-2.85947-22.2767-1.1319-22.638,2.00475-.41959,10.1871,28.6748-1.16183-18.63922.3773-18.865,1.14243-.16754,3.773,9.80981,2.45873-12.94382,3.773-12.82819,1.53633,0.13458,1.5092,18.11041,3.825-16.41614,6.4141-16.22394,2.10746,0.15683,3.3957,11.319,2.60211-15.57578,3.773-15.4693,1.39874,0.12762.7546,22.638,4.40844-20.93985,7.546-20.75153,2.75324,0.16562,4.5276,16.6012,2.08349-18.15793,2.6411-18.11041,0.6459,0.05411-.7546,24.52454,7.11835-26.47723,9.80981-26.03369,2.09388,0.34433,1.50919,16.97845,3.71262-16.38858,6.41411-16.22388,3.13234,0.19135,4.9049,22.638c-1.27179-8.8468.80612-15.15411,3.773-15.84662,3.14671-.7345,7.03693,4.90692,7.546,5.65955q-0.21541-14.09564,1.5092-14.33746,2.19771-.30771,7.546,21.88342,0.19723-18.72876,1.8865-18.865,1.797-.1442,5.28221,20.75153,3.76147-18.30121,5.6595-18.11041,2.23231,0.22495,1.88649,26.03369,4.86395-29.2402,7.92331-29.05212,2.47865,0.152,3.773,19.61963,3.93736-20.89865,6.79141-20.75153,2.486,0.128,4.1503,16.22394,2.32519-9.74213,4.90489-9.80981,3.86451-.10172,8.3006,21.5061,0.56614-25.10815,4.5276-25.65643,2.6412-.36511,6.79141,10.18713,1.10916-11.26144,2.6411-11.319,2.20372-.08313,5.2822,23.01532c0.17242-4.423,1.05934-23.65826,5.2822-24.14722,3.51183-.40662,7.75954,12.33362,9.43251,17.73309q0.12252-14.66794,2.6411-15.092,2.0422-.34351,5.6595,8.67792,2.127-12.46811,4.1503-12.45093,2.53377,0.02106,4.90491,19.61963c0.65791-4.15051,2.69185-15.80182,5.6595-15.84662,2.23167-.03369,4.15359,6.50873,5.2822,11.319q2.71362-16.24722,5.2822-16.22394,2.92351,0.026,5.6595,21.12878,1.25739-13.51666,3.0184-13.58276,2.23544-.08368,5.28221,21.5061,2.17744-18.8866,4.1503-18.865,1.57425,0.017,3.0184,12.07361,0.96483-22.159,3.0184-22.26074,1.831-.09036,4.52759,17.35583,2.42606-12.88138,4.52762-12.82825,2.725,0.06839,4.90488,21.88342,1.91336-23.632,4.90491-23.7699,2.75107-.12616,6.41409,19.61963c0.0918-1.53436,1.10965-17.51251,4.1503-17.73315,2.85376-.20709,5.99094,13.57452,6.41412,15.4693q1.28874-15.46326,2.64108-15.4693,1.65051-.00677,3.39572,23.01532,2.75793-19.15219,6.0368-19.24231,2.32178-.06345,4.90488,9.4325,1.65578-14.32745,3.39572-14.3374,2.01837-.0119,4.1503,19.24231,1.849-23.29752,4.52759-23.39258,2.32791-.08331,5.2822,17.35577,3.67456-18.27814,6.0368-18.11041,2.82527,0.201,3.773,26.78833c0.24335-6.84515,1.00607-18.91644,3.773-19.24231,2.25717-.26581,5.07364,7.37592,7.1687,14.3374,0.52948-7.215,1.59268-18.04791,3.39569-18.11041,1.72623-.05988,3.46686,9.776,4.52759,16.97852-0.37582-9.02948,2.5748-15.77228,5.65952-16.22388,3.19672-.468,8.32,5.55945,10.1871,15.4693q0.11151-15.40823,1.1319-15.4693,1.13525-.0672,3.39569,18.865,1.88466-21.50519,3.773-21.5061,1.69643-.00027,3.39569,17.35577,1.77681-11.71838,3.39572-11.69629,2.00789,0.027,3.773,18.11041,0.84924-17.37717,3.773-17.73309,2.104-.25644,5.2822,8.3006,2.52425-14.43732,4.1503-14.3374,2.00066,0.1236,2.64111,22.26068,2.065-15.027,4.52759-15.092,2.11693-.0563,4.52762,10.94171,1.54747-12.40622,3.39569-12.45093,2.07426-.05045,4.52759,15.4693c-0.79791-5.46393.58255-9.46967,2.26379-9.80981,1.58563-.3208,4.10031,2.48511,5.65952,6.79144q0.36667-15.35477,1.88651-15.4693,1.817-.13751,5.2822,21.5061,0.11124-24.5657,3.0184-24.90186,2.52768-.29169,7.1687,17.73315,0.54048-8.93243,1.88651-9.05524,1.54477-.14127,4.1503,11.319c-0.3017-12.77032.489-15.01312,1.1319-15.092,0.64978-.07971,1.99454,1.94751,4.90491,15.092,0.662-8.89716,3.23062-15.01782,5.65948-15.092,2.29718-.07019,4.9556,5.2533,6.41412,12.45093,0.32919-2.02759,1.83939-10.76953,4.52759-10.94171,3.41721-.21887,6.61191,13.54645,6.79141,14.3374,0.49072-3.247,2.50232-15.84082,5.2822-15.84662,2.33627-.00488,4.17874,8.88348,4.90491,12.82825q2.15652-9.89694,3.773-9.80981,1.87111,0.10126,3.01843,13.58276,4.8912-19.49762,8.3006-19.24225,2.74384,0.20581,4.52759,13.20551,0.42645-12.708,1.88647-12.82825,1.72824-.14191,4.90491,17.35583,1.22379-19.4447,3.773-19.61963,2.16376-.14886,5.28223,13.58282,2.31116-14.39694,4.15027-14.3374,2.23526,0.073,3.773,21.5061,3.108-20.84784,5.28223-20.75153,1.56125,0.06958,2.64105,10.94171,2.70383-9.968,4.52765-9.80981,2.08365,0.18109,3.01837,13.58282,3.26541-15.9321,6.0368-15.84662,2.236,0.06894,4.15027,10.56439,1.72229-11.3259,3.39575-11.319,2.11414,0.00916,4.15027,18.11041,3.96194-17.55148,5.28223-17.35583,1.09113,0.16241.37726,12.45093c0.549-2.07526,3.01935-11.07269,5.65955-10.94171,3.23944,0.16071,4.78436,13.9671,4.90491,15.092q1.53113-12.98181,4.15027-13.20551,3.16663-.27,7.92328,18.11041,1.26837-18.82068,3.01843-18.865,1.36313-.035,3.01837,11.319c1.59155-7.61017,3.22821-11.29083,4.90491-11.319,2.01923-.03387,4.155,5.2287,6.41412,16.22388q0.88852-18.02664,2.64111-18.11041,1.27908-.06161,3.01837,9.43256,3.19-7.49258,4.90491-7.1687,2.45773,0.46381,1.88654,16.97845,3.912-9.80429,5.65948-9.4325,2.03851,0.43359,1.1319,14.71472,7.25638-21.69745,10.18707-21.12878,2.42752,0.47159,1.88654,16.22388c0.20282-.43073,4.06482-8.50281,6.79138-7.92328,2.09381,0.445,3.25531,5.93622,2.64111,13.58276q4.39481-19.44241,7.546-19.24231,2.73065,0.17285,4.52759,15.092c0.31842-.83417,2.88635-7.4281,5.28217-7.1687,1.97949,0.21436,3.53571,5.074,3.773,12.07361q1.049-22.432,3.773-22.638,2.37946-.17926,6.0368,16.6012,2.06113-15.70312,4.90491-15.84662,2.36929-.1192,5.28217,10.56439,3.98676-9.44009,6.41412-9.05518,3.651,0.57953,3.773,23.39258,5.24689-26.24149,9.05518-26.03369,3.40457,0.18512,5.65955,21.5061,4.356-21.27631,5.28217-21.12878,0.75119,0.1203-.75458,14.3374c3.48151-7.14,7.90387-12.03973,10.56439-11.319,2.87488,0.77875,4.4024,8.31213,2.64111,18.48773,0.533-1.66882,5.30505-16.38422,8.67786-15.84662,2.86481,0.4566,3.31348,11.69348,3.39575,14.3374q2.58215-21.91159,4.90491-21.88342,1.77347,0.021,3.39569,12.82819,3.455-12.6265,6.0368-12.45087,3.39743,0.23181,5.28217,22.638,6.42883-25.64429,10.56439-25.27911,3.42929,0.30231,5.28223,18.48773,3.21176-12.27869,4.90491-12.07361,1.90192,0.23135,1.88647,16.22388c2.71606-8.71442,6.6347-19.25543,9.80981-18.865,1.30579,0.16058,3.329,2.27368,4.52759,14.71472q5.90488-15.2482,8.3006-14.71472,2.83759,0.63089.75464,23.39258,5.38-4.40671,10.76007-8.81342v-25Z" transform="translate(2.15792 -197.90609)"/><path class="cls-3" d="M25.47074,348.71355H4V198.567H25.47074q3.25211,3.06612,6.50422,6.13224c-5.80673-.29938-9.812,4.91674-9.29175,9.19834,0.424,3.48919,3.90323,6.76834,8.36257,6.8136-6.10891,1.23685-10.58252,3.502-10.53065,5.45087,0.05387,2.02359,4.9982,4.1272,12.07927,4.76951-10.11152.33561-17.40469,2.16593-17.65432,4.76951-0.3488,3.63792,13.13659,7.92613,13.93762,8.17632q-14.67048.56753-14.86679,2.72544Q13.83626,248.52612,25.161,251.713q-10.22308,1.36665-10.53065,4.08816-0.4509,3.99274,20.44184,10.90176-19.64771-.45472-19.82239,1.36273-0.14989,1.55413,13.93762,4.76951-16.67967,1.46477-16.72514,3.40678-0.03339,1.40773,8.67229,3.06614-7.6423,4.52556-7.12367,6.81359,0.80677,3.56012,21.371,1.70337-22.12462,4.59033-21.99046,8.17632,0.10735,2.87871,14.55707,5.11022-17.79268,4.49441-17.65432,8.17628,0.11211,2.99405,12.07927,5.45089-8.80509,2.04592-8.982,4.76951-0.24516,3.77711,16.10569,8.8577c-8.69765-2.26948-16.21393,1.71625-17.964,7.49494-1.21086,3.99815-.1497,9.62761,2.4778,10.90175,1.77776,0.86209,3.299-.731,6.73607-0.13361A11.27,11.27,0,0,1,25.47074,348.71355Z" transform="translate(2.15792 -197.90609)"/><path class="cls-2" d="M20.94713,348.6421h-22.605v-150.046h22.605l6.84784,6.12813c-6.1135-.29917-10.33035,4.91345-9.78263,9.19218,0.44635,3.48686,4.10944,6.76379,8.80437,6.809-6.43165,1.236-11.1416,3.49968-11.087,5.44722,0.05671,2.02223,5.26226,4.12443,12.71742,4.76632-10.64571.33538-18.32418,2.16448-18.587,4.76631-0.36723,3.63549,13.8306,7.92082,14.67395,8.17084q-15.44552.56714-15.65221,2.72363Q8.698,248.5218,20.621,251.70653q-10.76317,1.36573-11.087,4.08542Q9.05934,259.782,31.05585,266.68643q-20.6857-.45442-20.86961,1.36178-0.15781,1.55311,14.67395,4.76634Q7.29932,274.27833,7.25145,276.219q-0.03515,1.40674,9.13045,3.06407-8.046,4.52256-7.5,6.809,0.84939,3.55776,22.50005,1.70227-23.29347,4.58726-23.15223,8.17084,0.113,2.87677,15.32612,5.10676-18.73267,4.49142-18.587,8.17084,0.118,2.992,12.71742,5.44722-9.27026,2.04454-9.45654,4.76631Q7.9716,323.231,25.18627,328.3081c-9.15715-2.26793-17.07051,1.71514-18.91309,7.48992-1.26243,3.95656-.34425,9.45551,2.6087,10.89445,1.51306,0.73729,2.68146-.00024,6.32735.4621A23.43875,23.43875,0,0,1,20.94713,348.6421Z" transform="translate(2.15792 -197.90609)"/><path class="cls-3" d="M817.59056,348.5366h21.47074V198.98369H817.59056q-3.25211,3.054-6.50422,6.108c5.80673-.2982,9.812,4.8973,9.29175,9.162-0.424,3.4754-3.90323,6.74157-8.36257,6.78666,6.10891,1.232,10.58252,3.48816,10.53065,5.42932-0.05387,2.01559-4.9982,4.11088-12.07927,4.75065,10.11152,0.33429,17.40469,2.15737,17.65432,4.75065,0.3488,3.62354-13.13659,7.89479-13.93762,8.144q14.67048,0.56528,14.86679,2.71467,0.17466,1.91573-11.15009,5.09,10.22308,1.36125,10.53065,4.072,0.4509,3.977-20.44184,10.85866,19.64771-.45292,19.82239,1.35734,0.14989,1.548-13.93762,4.75065,16.67967,1.459,16.72514,3.39331,0.03339,1.40217-8.67229,3.054,7.6423,4.50767,7.12367,6.78665-0.80677,3.546-21.371,1.69664,22.12462,4.57218,21.99046,8.144-0.10735,2.86733-14.55707,5.09,17.79268,4.47664,17.65432,8.144-0.11211,2.98222-12.07927,5.42934,8.80509,2.03783,8.982,4.75065,0.24516,3.76217-16.10569,8.82268c8.69765-2.2605,16.21393,1.70947,17.964,7.4653,1.21086,3.98234.1497,9.58954-2.4778,10.85864-1.77776.85868-3.299-.72808-6.73607-0.13309A11.29114,11.29114,0,0,0,817.59056,348.5366Z" transform="translate(2.15792 -197.90609)"/><path class="cls-2" d="M821.9135,349.10021H844.0838V198.40609H821.9135l-6.71614,6.1546c5.99593-.30047,10.13168,4.93468,9.59449,9.23189-0.43777,3.50192-4.0304,6.793-8.635,6.83844,6.308,1.24138,10.92733,3.5148,10.87376,5.47075-0.05562,2.031-5.16106,4.14224-12.47284,4.78691,10.441,0.33683,17.97177,2.17383,18.22953,4.78689,0.36017,3.65119-13.56461,7.955-14.39174,8.20613q15.14847,0.56959,15.35119,2.73539,0.18035,1.93032-11.51339,5.12881,10.55617,1.37163,10.87376,4.10307,0.46559,4.00732-21.10788,10.94154,20.28788-.45639,20.46825,1.36766,0.15478,1.55982-14.39174,4.78693,17.22313,1.47011,17.27008,3.41921,0.03448,1.41282-8.95486,3.07731,7.89131,4.54209,7.35578,6.83841-0.83306,3.57313-22.06733,1.70962,22.84549,4.60707,22.707,8.20613-0.11084,2.88919-15.03137,5.12882,18.3724,4.51082,18.22953,8.20613-0.11576,3.005-12.47284,5.47075,9.092,2.05337,9.27467,4.78689,0.25315,3.79092-16.63045,8.89c8.981-2.27773,16.74221,1.72254,18.54935,7.52227,1.23815,3.97366.33763,9.49636-2.55853,10.94151-1.484.74047-2.62989-.00025-6.20566,0.46409A22.5606,22.5606,0,0,0,821.9135,349.10021Z" transform="translate(2.15792 -197.90609)"/></svg>