<svg id="Layer_1" data-name="Layer 1" xmlns="http://www.w3.org/2000/svg" viewBox="0 0 825.85123 646.92334"><defs><style>.cls-1{fill:#07504c;}.cls-2{fill:#0b717c;}.cls-3{fill:#330f2f;}.cls-4{fill:#6b140f;}</style></defs><title>map</title><path class="cls-1" d="M676.78624,420.64883c-22.03132-15.39383-44.6274-44.96747-36.84582-58.185,7.406-12.57955,42.2814-10.26512,65.87638,4.00534,15.4385,9.33734,17.96969,18.90778,34.54166,35.331a172.04475,172.04475,0,0,0,53.17438,35.54149,174.16315,174.16315,0,0,1-58.72988,2.59768C719.2168,437.95748,697.62958,435.21259,676.78624,420.64883Z" transform="translate(6.50552 8.50174)"/><path class="cls-2" d="M643.26884,367.36795c3.147,1.82347,6.50648,3.67458,10.07514,5.52022,3.70354,1.91533,7.2805,3.64292,10.69931,5.20106q1.824-2.51666,3.73517-5.05966,2.95134-3.92539,5.91026-7.64477a16.9896,16.9896,0,0,1-1.87028,6.97646c-0.83876,1.58445-1.84041,2.78793-2.40942,5.11887a13.4812,13.4812,0,0,0-.36082,3.715q13.51941,7.4175,27.03886,14.835,0.88953-1.14021,1.75641-2.32745a89.17228,89.17228,0,0,0,5.85272-9.13767,56.2171,56.2171,0,0,1-3.16955,10.60073q-0.57668,1.40073-1.20789,2.71816,13.40026,7.16927,26.8004,14.33865,0.58515-1.34941,1.17024-2.69877,1.71223-1.94311,3.42443-3.88631-0.635,2.73357-1.26992,5.46716-0.008,1.41519-.01607,2.83045l27.58318,15.2187q-14.15336-7.2571-28.30673-14.51415-1.11354,1.38853-2.217,2.821-1.28168,1.66446-2.49563,3.31911a19.39443,19.39443,0,0,1,.37963-3.48129A17.00688,17.00688,0,0,1,725.788,413.141q-13.50411-7.13435-27.0082-14.26875-0.90718,1.861-1.96553,3.75327c-1.197,2.13346-2.45745,4.13017-3.75475,5.99708q0.64334-3.44048,1.49642-6.96682,0.52341-2.15174,1.0998-4.21225-13.72722-7.3476-27.45443-14.69527c-0.25583.66785-.65475,1.6426-1.21924,2.78115a34.871,34.871,0,0,1-5.4951,7.90651,38.5029,38.5029,0,0,1-3.99723,3.78623,28.58717,28.58717,0,0,0,5.12219-11.65307,29.8838,29.8838,0,0,0,.52419-5.2696c-3.03339-1.65161-6.35185-3.33516-9.94648-4.98868-4.07176-1.873-7.93749-3.44975-11.52677-4.78016Z" transform="translate(6.50552 8.50174)"/><path class="cls-3" d="M515.33587,156.342c0.388,17.39154,8.36158,44.05565,26.89238,48.66072,16.95767,4.21414,35.62033-11.81775,44.41419-26.25916,11.54864-18.96534,6.13511-35.28328,7.80235-72.69938a342.71317,342.71317,0,0,1,8.20634-60.87387,215.75211,215.75211,0,0,0-53.32593,44.437C531.672,110.05124,514.7406,129.65917,515.33587,156.342Z" transform="translate(6.50552 8.50174)"/><path class="cls-4" d="M541.28707,199.15094c1.03959-3.48535,2.21492-7.13659,3.54621-10.92729,1.38164-3.93393,2.79994-7.6444,4.21935-11.1231q3.05343,0.58055,6.18839,1.12044,4.84,0.83257,9.5443,1.51a16.9896,16.9896,0,0,0-6.14584-3.79442c-1.69709-.57784-3.25144-0.76669-5.26419-2.07278a13.48121,13.48121,0,0,1-2.81045-2.4561q4.75155-14.67026,9.50313-29.34055,1.42936,0.21971,2.87449.48919a89.17231,89.17231,0,0,1,10.52631,2.63592,56.21712,56.21712,0,0,0-9.57706-5.54089q-1.38036-.62388-2.74327-1.14973,4.83508-14.40789,9.67-28.81578,1.35132,0.58071,2.70257,1.16144,2.57874,0.23979,5.15753.47965-2.3369-1.55387-4.67378-3.10777-0.97642-1.02442-1.95293-2.04884l9.6361-29.9931Q576.365,91.16554,571.042,106.15383q-1.76269-.24679-3.54818-0.53248-2.0743-.33228-4.09258-0.70388a19.39444,19.39444,0,0,0,2.66389,2.27315,17.00688,17.00688,0,0,0,3.88235,2.05391q-4.93461,14.4537-9.86917,28.90743-1.93657-.73218-4.00456-1.38341c-2.33431-.7317-4.62105-1.32031-6.84557-1.78922q2.82781,2.06259,5.86716,4.04381,1.85666,1.207,3.68931,2.31119-4.95072,14.76191-9.90139,29.52388c-0.64422-.31057-1.60306-0.74635-2.79473-1.18779a34.871,34.871,0,0,0-9.42168-1.98521,38.50291,38.50291,0,0,0-5.50574-.014,28.58717,28.58717,0,0,1,11.71984,4.96753,29.88379,29.88379,0,0,1,3.99559,3.47545c-1.07482,3.28239-2.33518,6.78352-3.81713,10.45222-1.67866,4.15565-3.41054,7.95442-5.11019,11.3843Z" transform="translate(6.50552 8.50174)"/><path class="cls-3" d="M705.63455,318.87284c-17.39573.06936-44.20142,7.55325-49.14512,25.99659-4.524,16.87763,11.16335,35.83081,25.44126,44.8877,18.75063,11.89407,35.165,6.78034,72.54428,9.13261a342.71316,342.71316,0,0,1,60.71335,9.31994,215.75211,215.75211,0,0,0-43.45283-54.13089C751.61831,336.05406,732.32379,318.76639,705.63455,318.87284Z" transform="translate(6.50552 8.50174)"/><path class="cls-4" d="M662.35745,344.03559c3.46572,1.10326,7.09483,2.34526,10.8605,3.74576,3.908,1.45347,7.59184,2.93948,11.044,4.42237q-0.63638,3.04228-1.2336,6.16683-0.92108,4.824-1.68456,9.515a16.9896,16.9896,0,0,0,3.90635-6.07531c0.60882-1.68622.82612-3.23685,2.16886-5.22534a13.4812,13.4812,0,0,1,2.50717-2.765q14.58077,5.01945,29.16157,10.03894-0.24585,1.4251-.54176,2.865a89.17229,89.17229,0,0,1-2.82828,10.47626,56.21711,56.21711,0,0,0,5.71537-9.474q0.64905-1.3687,1.19978-2.72175,14.31692,5.09816,28.63383,10.19618-0.60537,1.34046-1.21074,2.68084-0.287,2.57392-.574,5.14788,1.59641-2.308,3.19286-4.61608,1.04213-.95749,2.08427-1.91508L784.57055,386.682q-14.88831-5.59655-29.77659-11.19314,0.279-1.75787.59737-3.53783,0.37022-2.06787.77872-4.079a19.39444,19.39444,0,0,0-2.32156,2.6218,17.00688,17.00688,0,0,0-2.12468,3.84408q-14.3609-5.19851-28.72182-10.397,0.76753-1.92283,1.45653-3.97855c0.77433-2.32052,1.40473-4.59609,1.91431-6.81165q-2.114,2.78956-4.15059,5.7921-1.24076,1.83424-2.37837,3.64636-14.66876-5.22027-29.33757-10.44049c0.32232-.63843.77558-1.58912,1.23877-2.77251a34.871,34.871,0,0,0,2.15745-9.38374,38.50291,38.50291,0,0,0,.11481-5.50456,28.58717,28.58717,0,0,1-5.18136,11.62689,29.8838,29.8838,0,0,1-3.54805,3.93126c-3.26215-1.13476-6.73961-2.459-10.38056-4.00793-4.12421-1.75449-7.89062-3.55566-11.28879-5.31785Z" transform="translate(6.50552 8.50174)"/><path class="cls-1" d="M196.62343,148.36155c22.31153,14.98481,45.44929,44.13662,37.91285,57.49545-7.17265,12.714-42.08485,11.0433-65.93906-2.78949-15.60811-9.051-18.31541-18.57309-35.18751-34.68783a172.04475,172.04475,0,0,0-53.82094-34.55458,174.16315,174.16315,0,0,1,58.672-3.68058C153.88081,131.83854,175.515,134.18475,196.62343,148.36155Z" transform="translate(6.50552 8.50174)"/><path class="cls-2" d="M231.118,201.0151c-3.18006-1.76511-6.57315-3.55394-10.17525-5.33343-3.73824-1.84669-7.34646-3.508-10.79343-5.00281q-1.77724,2.54988-3.6412,5.1277-2.87842,3.97917-5.76824,7.75249a16.9896,16.9896,0,0,1,1.74128-7.00978c0.80939-1.59966,1.78867-2.8214,2.31459-5.16244a13.4812,13.4812,0,0,0,.29223-3.721Q191.434,180.499,177.78,173.33214q-0.86835,1.15642-1.71318,2.35945a89.17231,89.17231,0,0,0-5.68317,9.24407,56.21711,56.21711,0,0,1,2.97347-10.65739q0.55074-1.41113,1.15754-2.74-13.53022-6.92087-27.06033-13.84184-0.56016,1.36-1.12025,2.71989-1.67609,1.97437-3.35216,3.94882,0.58444-2.74482,1.16885-5.48965-0.01811-1.4151-.03615-2.83026l-27.85921-14.70731q14.28482,6.99479,28.56964,13.98953,1.08774-1.40883,2.16459-2.86141,1.25076-1.68782,2.434-3.36458a19.39442,19.39442,0,0,1-.31535,3.4877,17.00687,17.00687,0,0,1-1.3398,4.18284q13.63341,6.884,27.26681,13.76813,0.8727-1.87744,1.896-3.78889c1.15741-2.15518,2.38085-4.17479,3.64349-6.06533q-0.57976,3.45177-1.36766,6.99324-0.48363,2.161-1.02191,4.23182,13.86042,7.09313,27.72083,14.18634c0.24347-.67246.62434-1.65439,1.16773-2.80317a34.871,34.871,0,0,1,5.34832-8.00653,38.50289,38.50289,0,0,1,3.92671-3.85932,28.58717,28.58717,0,0,0-4.90637,11.74557,29.88379,29.88379,0,0,0-.4269,5.27837c3.06334,1.59537,6.41229,3.21742,10.03681,4.80436,4.10562,1.79756,7.99978,3.30275,11.613,4.56672Z" transform="translate(6.50552 8.50174)"/><path class="cls-1" d="M140.32952,287.45688c25.29541,9.08248,54.85171,31.70124,50.80578,46.49607-3.85063,14.08069-38.11379,20.98638-64.62384,13.39778-17.34586-4.96532-22.29656-13.538-42.59316-25.04454A172.04475,172.04475,0,0,0,23.28841,301.9413,174.16315,174.16315,0,0,1,79.28515,284.044C94.846,281.8722,116.3981,278.86415,140.32952,287.45688Z" transform="translate(6.50552 8.50174)"/><path class="cls-2" d="M186.638,330.09242c-3.51483-.93508-7.242-1.84112-11.16964-2.68708-4.076-.87787-7.98071-1.60773-11.68836-2.2155q-1.10073,2.90669-2.27873,5.86165-1.81953,4.56162-3.70038,8.92642a16.9896,16.9896,0,0,1-.02328-7.22277c0.39423-1.74888,1.04551-3.17279.9838-5.57138a13.4812,13.4812,0,0,0-.62531-3.67968q-14.99073-3.61547-29.98151-7.23094-0.55965,1.33347-1.08511,2.70639a89.17229,89.17229,0,0,0-3.25362,10.35206,56.21711,56.21711,0,0,1,.28083-11.06086q0.18946-1.5029.45337-2.9397-14.81069-3.40715-29.62131-6.81442-0.21108,1.45559-.42212,2.91112-1.14319,2.3239-2.28634,4.64788-0.10356-2.80444-.20715-5.60888Q91.65,309.09889,91.287,307.731l-30.60735-7.45859q15.56049,3.29455,31.121,6.58905,0.71076-1.63181,1.40027-3.30339,0.80071-1.94216,1.53863-3.85711a19.39443,19.39443,0,0,1,.54592,3.45911,17.00688,17.00688,0,0,1-.27775,4.38338q14.90176,3.34623,29.80353,6.69251,0.38779-2.03372.91328-4.13718c0.59606-2.37258,1.28925-4.62982,2.052-6.77145q0.28074,3.48884.38155,7.1155,0.05875,2.2137.04247,4.35325,15.173,3.49356,30.34594,6.98719c0.07188-.71156.20142-1.75677,0.44782-3.00347a34.871,34.871,0,0,1,3.23114-9.07022,38.5029,38.5029,0,0,1,2.86535-4.7014,28.58717,28.58717,0,0,0-1.88946,12.58813,29.8838,29.8838,0,0,0,.875,5.22281c3.3602,0.799,7.00386,1.55408,10.90619,2.20783,4.42029,0.74052,8.56412,1.24915,12.3766,1.59248Z" transform="translate(6.50552 8.50174)"/><path class="cls-1" d="M693.41452,239.59746C673.547,257.698,639.72339,273.22693,628.54391,262.7257c-10.63986-9.99433-.70222-43.504,18.41384-63.37721,12.50788-13.00331,22.40079-13.36483,42.07021-25.91339a172.04475,172.04475,0,0,0,46.37869-44.04236A174.16315,174.16315,0,0,1,725.00749,187.253C719.642,202.02008,712.21074,222.47291,693.41452,239.59746Z" transform="translate(6.50552 8.50174)"/><path class="cls-2" d="M634.06062,260.55894c2.47171-2.66816,5.01719-5.53757,7.60338-8.61219,2.68388-3.19084,5.15675-6.29956,7.42951-9.29133q-2.05322-2.3334-4.11292-4.75768-3.17911-3.74331-6.15559-7.44865a16.9896,16.9896,0,0,1,6.39334,3.36068c1.36085,1.16708,2.31421,2.40917,4.46262,3.47752a13.48121,13.48121,0,0,0,3.5443,1.17q10.21256-11.5541,20.42513-23.10825-0.91633-1.11879-1.88353-2.22583a89.17232,89.17232,0,0,0-7.62451-7.72128,56.21712,56.21712,0,0,1,9.64253,5.42616q1.23935,0.871,2.38545,1.77681,9.94419-11.49254,19.88845-22.98495-1.18742-.86794-2.37482-1.73581-1.51836-2.09809-3.0368-4.19619,2.52664,1.22135,5.0533,2.44268,1.37869,0.31944,2.75743.639L719.37717,163.215q-10.1957,12.20781-20.39136,24.41565,1.10922,1.392,2.26354,2.7838,1.34136,1.61676,2.68806,3.16528a19.39443,19.39443,0,0,1-3.31223-1.13694,17.00688,17.00688,0,0,1-3.74337-2.29746q-9.933,11.60153-19.866,23.203,1.61556,1.29474,3.2283,2.74379c1.8175,1.6374,3.48762,3.30664,5.023,4.98322q-3.21436-1.38518-6.46627-2.99387-1.98365-.9844-3.86666-2.00039-10.19014,11.77221-20.38035,23.54439c0.59512,0.39662,1.45809,1.0004,2.44439,1.80175a34.871,34.871,0,0,1,6.50233,7.10132,38.5029,38.5029,0,0,1,2.813,4.73288,28.58717,28.58717,0,0,0-10.239-7.56261,29.8838,29.8838,0,0,0-5.02481-1.67176c-2.27906,2.59522-4.652,5.46148-7.05656,8.60375-2.72367,3.55935-5.113,6.983-7.20116,10.19115Z" transform="translate(6.50552 8.50174)"/><path class="cls-1" d="M290.92529,108.48923c9.53777,25.12727,11.55742,62.29049-2.31609,68.83129-13.20384,6.22509-40.72092-15.32632-52.18346-40.40578-7.50009-16.40981-4.20257-25.744-8.64919-48.64769a172.04475,172.04475,0,0,0-23.92836-59.314,174.16315,174.16315,0,0,1,49.996,30.92489C265.60825,70.29251,281.90181,84.71687,290.92529,108.48923Z" transform="translate(6.50552 8.50174)"/><path class="cls-2" d="M288.62023,171.39356c-1.57376-3.279-3.30762-6.70049-5.21738-10.23524-1.982-3.66831-3.96509-7.11018-5.91291-10.323q-2.92446,1.05262-5.93583,2.07788-4.64937,1.58193-9.189,2.98934a16.9896,16.9896,0,0,1,5.4741-4.712c1.58536-.837,3.0908-1.26753,4.8736-2.87335a13.4812,13.4812,0,0,0,2.39011-2.86678q-6.99527-13.74263-13.99059-27.48528-1.37716.44134-2.76208,0.9343a89.17229,89.17229,0,0,0-9.98211,4.25544,56.21711,56.21711,0,0,1,8.58867-6.97541q1.26532-.8328,2.52881-1.56606-7.03659-13.4704-14.073-26.94082-1.24342.78562-2.48677,1.57123-2.50914.64157-5.01832,1.28322,2.064-1.90141,4.12806-3.80284,0.80352-1.165,1.60714-2.33L229.41838,56.28534q7.60948,13.96706,15.219,27.93409,1.70211-.5204,3.42063-1.08279,1.99644-.65374,3.93137-1.33752a19.39443,19.39443,0,0,1-2.27408,2.66309A17.00687,17.00687,0,0,1,246.20345,87.1q7.14207,13.5,14.28411,27.00008,1.79764-1.02706,3.73779-1.99482c2.19053-1.089,4.35654-2.02926,6.47989-2.84152q-2.469,2.48088-5.15972,4.91459-1.64421,1.48341-3.28082,2.86161,7.20637,13.80188,14.41269,27.60383c0.58749-.40784,1.466-0.98871,2.57366-1.61172a34.871,34.871,0,0,1,8.9933-3.43942,38.50292,38.50292,0,0,1,5.43531-.878,28.58717,28.58717,0,0,0-10.79487,6.74549,29.88379,29.88379,0,0,0-3.40056,4.05952c1.57669,3.073,3.371,6.33292,5.41038,9.72354,2.31012,3.84067,4.61678,7.32051,6.83372,10.4411Z" transform="translate(6.50552 8.50174)"/><path class="cls-1" d="M710.83379,329.53185c-26.69962,3.0788-63.22179-4.08466-66.15741-19.13918-2.79393-14.32785,24.852-35.71365,51.97774-40.67008,17.74869-3.24305,25.988,2.24457,49.2825,3.55545a172.04475,172.04475,0,0,0,63.37263-8.63844,174.16315,174.16315,0,0,1-42.25,40.8765C754.07595,314.36421,736.09371,326.61907,710.83379,329.53185Z" transform="translate(6.50552 8.50174)"/><path class="cls-2" d="M650.41933,311.85808c3.56494-.72083,7.30735-1.56188,11.20272-2.54566,4.04256-1.021,7.86588-2.09868,11.45848-3.19838q-0.30264-3.09336-.55743-6.26425-0.3924-4.89542-.64256-9.64162a16.9896,16.9896,0,0,1,3.22433,6.46318c0.42233,1.74231.47015,3.30736,1.58929,5.42976a13.48121,13.48121,0,0,0,2.19247,3.02062q15.03918-3.40832,30.0784-6.81666-0.08983-1.44336-.2278-2.90691a89.17231,89.17231,0,0,0-1.67527-10.72123,56.21711,56.21711,0,0,1,4.654,10.038q0.49677,1.431.89748,2.83583,14.78543-3.51518,29.57084-7.03022-0.4564-1.39821-.91282-2.79635-0.00611-2.58986-.01228-5.17977,1.33665,2.46758,2.67333,4.93516,0.93213,1.06488,1.86425,2.12985l30.7403-6.8902q-15.40751,3.94865-30.815,7.89734,0.08672,1.77777.21011,3.58176,0.14374,2.09583.3317,4.1394a19.39442,19.39442,0,0,1-2.02348-2.85815,17.00687,17.00687,0,0,1-1.69519-4.05185q-14.84,3.61017-29.68009,7.2203,0.55444,1.99474,1.0164,4.11306c0.51807,2.39082.89792,4.72134,1.16418,6.9791q-1.799-3.0024-3.49786-6.20813-1.03448-1.958-1.96883-3.88282-15.14844,3.59841-30.29692,7.19676c0.25117,0.66962.59864,1.66387,0.93074,2.89052a34.871,34.871,0,0,1,1.1269,9.56238,38.5029,38.5029,0,0,1-.48293,5.48454,28.58717,28.58717,0,0,0-3.88967-12.12029,29.8838,29.8838,0,0,0-3.10071-4.29291c-3.366.77423-6.96657,1.71351-10.754,2.85835-4.29018,1.2968-8.22973,2.67882-11.799,4.062Z" transform="translate(6.50552 8.50174)"/><path class="cls-1" d="M171.24759,471.82787c17.68514-20.2382,49.52806-39.50507,61.827-30.34031,11.70528,8.72237,5.63449,43.14327-11.10289,65.05741-10.95148,14.3387-20.73945,15.82053-38.85782,30.5201a172.04475,172.04475,0,0,0-41.0812,49.02088,174.16315,174.16315,0,0,1,3.766-58.66655C149.45376,512.13879,154.51607,490.97478,171.24759,471.82787Z" transform="translate(6.50552 8.50174)"/><path class="cls-2" d="M227.83938,444.26636c-2.153,2.93141-4.35638,6.07114-6.577,9.41938-2.30445,3.4748-4.40857,6.84405-6.32714,10.0744q2.30475,2.08533,4.62625,4.26021,3.58336,3.35836,6.9611,6.702a16.9896,16.9896,0,0,1-6.73341-2.61346c-1.4845-1.00512-2.57265-2.131-4.82842-2.94864A13.4812,13.4812,0,0,0,211.3066,468.4q-8.83544,12.63838-17.67088,25.27681,1.03737,1.00757,2.124,1.9977a89.17231,89.17231,0,0,0,8.45147,6.80617,56.21711,56.21711,0,0,1-10.196-4.29689q-1.33019-.72471-2.57167-1.49464-8.57579,12.54676-17.15166,25.0934,1.27825,0.72759,2.55646,1.45511,1.74664,1.91224,3.49337,3.82447-2.64891-.92674-5.29785-1.85346-1.406-.16093-2.81213-0.32194l-18.11118,25.77646q8.74451-13.286,17.489-26.57193-1.26-1.25711-2.56482-2.509-1.51616-1.4541-3.02989-2.83979a19.39443,19.39443,0,0,1,3.41985.75372,17.00687,17.00687,0,0,1,3.97991,1.85783q8.5523-12.65378,17.10464-25.30754-1.75205-1.103-3.51881-2.35973c-1.99157-1.42058-3.84032-2.88951-5.55607-4.381q3.35078,1.01147,6.76424,2.24075,2.08255,0.75294,4.06868,1.54868,8.78841-12.85253,17.5769-25.705c-0.63629-.32653-1.56219-0.82848-2.63306-1.51273a34.871,34.871,0,0,1-7.26618-6.31757,38.50292,38.50292,0,0,1-3.332-4.38309,28.58717,28.58717,0,0,0,11.0311,6.35184,29.88379,29.88379,0,0,0,5.18206,1.09074c1.96983-2.83709,4.00223-5.95411,6.03463-9.34894,2.30216-3.84544,4.28755-7.51807,5.99816-10.94251Z" transform="translate(6.50552 8.50174)"/><path class="cls-1" d="M560.42286,128.05145c-3.61534,26.63228-19.58279,60.25108-34.89583,59.375-14.57388-.83377-28.46376-32.9075-26.5625-60.41667,1.244-17.9996,8.5977-24.62709,15.625-46.875a172.04475,172.04475,0,0,0,7.29166-63.54167,174.16315,174.16315,0,0,1,29.16667,51.04167C556.41274,82.40212,563.84325,102.85523,560.42286,128.05145Z" transform="translate(6.50552 8.50174)"/><path class="cls-2" d="M528.36631,182.22382c0.18258-3.6325.29254-7.46668,0.302-11.48434,0.00976-4.16949-.08958-8.14055-0.26728-11.89348q-3.0722-.47125-6.2077-1.008-4.84054-.82964-9.50133-1.76024a16.9896,16.9896,0,0,1,7.05956-1.527c1.79264,0.02137,3.321.36182,5.65411-.19806a13.4812,13.4812,0,0,0,3.46878-1.37793q0.41425-15.415.82847-30.83-1.42078-.26967-2.873-0.49769a89.1723,89.1723,0,0,0-10.80268-1.02638,56.21711,56.21711,0,0,1,10.87683-2.02885q1.5094-.12769,2.96967-0.16879,0.248-15.19552.4961-30.391-1.46763.09669-2.9352,0.1934-2.511-.63415-5.02212-1.26825,2.72138-.68534,5.44276-1.37071,1.26221-.64,2.52452-1.28l0.9208-31.48957q0.0183,15.90543.03664,31.81085,1.74405,0.35534,3.52258.68161,2.06634,0.37869,4.093.70162a19.39443,19.39443,0,0,1-3.26957,1.25434,17.00688,17.00688,0,0,1-4.34512.64122q-0.16944,15.27191-.33892,30.54383,2.06989-.04425,4.23667.03165c2.44469,0.08888,4.7968.29678,7.05032,0.59677q-3.35388,1.00116-6.88,1.85505-2.15293.51848-4.249,0.94814-0.25705,15.56784-.51418,31.13571c0.71092-.07789,1.7602-0.16886,3.03088-0.1875a34.871,34.871,0,0,1,9.54425,1.27134,38.50291,38.50291,0,0,1,5.19505,1.82341,28.58717,28.58717,0,0,0-12.70561.77356,29.8838,29.8838,0,0,0-4.92606,1.94356c-0.08167,3.45292-.06139,7.17395.11189,11.12686,0.19629,4.47759.5618,8.63649,1.02,12.43688Z" transform="translate(6.50552 8.50174)"/><path class="cls-1" d="M257.81775,503.94649c6.65582-26.03937,26.38563-57.59755,41.49615-54.96527C313.695,451.48642,323.802,484.94537,318.748,512.053c-3.30692,17.7369-11.37436,23.4742-20.915,44.76572a172.04475,172.04475,0,0,0-14.55477,62.28058,174.16315,174.16315,0,0,1-23.09973-54.05876C256.5485,549.754,251.52082,528.58176,257.81775,503.94649Z" transform="translate(6.50552 8.50174)"/><path class="cls-2" d="M295.89481,453.82259c-0.59935,3.58737-1.14976,7.38342-1.62145,11.37331-0.48946,4.14067-.84773,8.09678-1.103,11.84524q2.99757,0.82163,6.05047,1.71563,4.71292,1.38111,9.23567,2.84183a16.9896,16.9896,0,0,1-7.18837.70452c-1.77827-.2275-3.25726-0.74155-5.63934-0.45386a13.48121,13.48121,0,0,0-3.60429.96963q-2.18525,15.26494-4.37049,30.52992,1.38031,0.43137,2.79668.825a89.17229,89.17229,0,0,0,10.61282,2.26259,56.21711,56.21711,0,0,1-11.038.76381q-1.51407-.04684-2.96936-0.174-1.99484,15.06605-3.98981,30.132,1.469,0.07283,2.938.14563,2.42138,0.91887,4.84283,1.8377-2.78216.36764-5.56433,0.73532-1.32748.49055-2.655,0.98105l-4.53809,31.17445q1.812-15.80189,3.624-31.60377-1.69158-.55366-3.42075-1.08242-2.009-.61394-3.985-1.16792a19.39443,19.39443,0,0,1,3.39219-.86979,17.00687,17.00687,0,0,1,4.39-.137q1.9256-15.151,3.85125-30.30195-2.06123-.19422-4.20488-0.51894c-2.41822-.36959-4.73079-0.84676-6.93482-1.40407q3.4468-.60859,7.04778-1.05107,2.19829-.26731,4.32983-0.45293,2.04669-15.43486,4.09345-30.86974c-0.71516-.00444-1.76794-0.03481-3.03232-0.1625a34.871,34.871,0,0,1-9.33457-2.36112,38.50292,38.50292,0,0,1-4.95073-2.40908,28.58717,28.58717,0,0,0,12.71023.69358,29.88379,29.88379,0,0,0,5.117-1.36382c0.47844-3.42058.88646-7.11923,1.16919-11.06582,0.32024-4.47044.43571-8.64377,0.41788-12.47164Z" transform="translate(6.50552 8.50174)"/><path class="cls-1" d="M621.14912,492.64529c-15.58441-21.89692-26.94022-57.34024-15.17277-67.17811,11.19944-9.363,43.27362,4.52583,60.70809,25.88955,11.4076,13.97856,10.57879,23.84331,20.67512,44.877a172.04475,172.04475,0,0,0,38.1557,51.33084,174.16315,174.16315,0,0,1-56.19322-17.27048C655.30591,523.19452,635.89319,513.36148,621.14912,492.64529Z" transform="translate(6.50552 8.50174)"/><path class="cls-2" d="M607.46513,431.20412c2.35211,2.77417,4.89516,5.64573,7.63705,8.58234,2.84554,3.04756,5.63489,5.87576,8.33215,8.49126q2.563-1.75823,5.21705-3.512,4.09791-2.70671,8.1338-5.2168a16.9896,16.9896,0,0,1-4.10394,5.94363c-1.322,1.21089-2.66958,2.00823-3.98813,4.01284a13.4812,13.4812,0,0,0-1.5871,3.3782q10.24444,11.52585,20.48892,23.05171,1.22071-.77539,2.43586-1.60268a89.1723,89.1723,0,0,0,8.58081-6.64237,56.21711,56.21711,0,0,1-6.54457,8.92133q-1.01347,1.12582-2.05035,2.15487,10.21554,11.252,20.43094,22.50411,1.00422-1.07463,2.00837-2.14924,2.26521-1.25548,4.53043-2.51106-1.51586,2.36173-3.0317,4.72348-0.48266,1.33037-.9654,2.66077l20.87283,23.59589q-10.89545-11.58759-21.79092-23.17515-1.51508.93408-3.03542,1.91295-1.7661,1.13755-3.4651,2.2886a19.39442,19.39442,0,0,1,1.52637-3.15178,17.00687,17.00687,0,0,1,2.73027-3.44047q-10.32509-11.254-20.65015-22.508-1.47933,1.44844-3.11153,2.87554c-1.84376,1.60777-3.70144,3.0654-5.55022,4.38842q1.76107-3.02481,3.74854-6.06006,1.21544-1.85112,2.45014-3.59853-10.46366-11.52977-20.92728-23.05961c-0.4652.5432-1.16822,1.32744-2.08219,2.2104a34.871,34.871,0,0,1-7.83061,5.60273,38.5029,38.5029,0,0,1-5.03638,2.22448,28.58717,28.58717,0,0,0,8.73718-9.257,29.8838,29.8838,0,0,0,2.26293-4.78776c-2.30283-2.57415-4.86347-5.27409-7.69432-8.03846-3.20661-3.13129-6.3186-5.91438-9.25289-8.3726Z" transform="translate(6.50552 8.50174)"/><path class="cls-1" d="M642.96884,173.97824c-15.03934,22.27481-44.24764,45.34121-57.588,37.77212-12.69644-7.20373-10.94035-42.11173,2.95074-65.932,9.08912-15.58593,18.61783-18.26993,34.77378-35.10257a172.04475,172.04475,0,0,0,34.6861-53.73627,174.16315,174.16315,0,0,1,3.53708,58.6808C659.59634,131.27615,657.19722,152.90452,642.96884,173.97824Z" transform="translate(6.50552 8.50174)"/><path class="cls-2" d="M590.23109,208.34388c1.77289-3.17574,3.57-6.56444,5.3583-10.16218,1.85583-3.73371,3.526-7.33786,5.02919-10.78117q-2.54553-1.78347-5.11878-3.65373-3.97212-2.88815-7.73836-5.78718a16.9896,16.9896,0,0,1,7.0055,1.75841c1.59767,0.8133,2.817,1.79556,5.15677,2.32721a13.48121,13.48121,0,0,0,3.72025.30133q7.20023-13.63636,14.40045-27.27277-1.1543-.87118-2.35526-1.71894a89.17231,89.17231,0,0,0-9.23015-5.70576,56.21711,56.21711,0,0,1,10.65009,2.99953q1.40978,0.55419,2.73714,1.16424,6.95394-13.51325,13.908-27.0264-1.3586-.56348-2.71715-1.1269-1.97026-1.68091-3.94061-3.36181,2.74338,0.59115,5.48678,1.18228,1.41514-.01465,2.83034-0.02922L650.189,93.62766q-7.02971,14.26767-14.05936,28.53534,1.40617,1.09118,2.85611,2.17158,1.68476,1.25489,3.35862,2.4422a19.39443,19.39443,0,0,1-3.48692-.32388,17.00688,17.00688,0,0,1-4.17955-1.35q-6.91736,13.61653-13.83477,27.23306,1.8753,0.87729,3.78424,1.90522c2.15234,1.16268,4.169,2.39105,6.0564,3.65831q-3.45034-.5882-6.98988-1.38476-2.15984-.48892-4.22931-1.03226-7.127,13.843-14.2541,27.68606c0.67186,0.24511,1.65286.62839,2.80031,1.17458a34.871,34.871,0,0,1,7.99343,5.36789,38.50294,38.50294,0,0,1,3.8497,3.93614,28.58717,28.58717,0,0,0-11.73354-4.93508,29.88379,29.88379,0,0,0-5.27732-.4398c-1.60286,3.05943-3.23309,6.4044-4.82889,10.025-1.8076,4.10121-3.3223,7.99167-4.59511,11.60178Z" transform="translate(6.50552 8.50174)"/><path class="cls-1" d="M447.39493,500.30039c1.3177-26.84423,14.34273-61.70871,29.67448-62.14931,14.59169-.41934,31.18143,30.34482,31.64671,57.91569,0.30444,18.04-6.45369,25.27378-11.54683,48.04245a172.04475,172.04475,0,0,0-1.81465,63.93293,174.16315,174.16315,0,0,1-33.43716-48.35187C455.30573,545.43753,446.14828,525.69713,447.39493,500.30039Z" transform="translate(6.50552 8.50174)"/><path class="cls-2" d="M474.68683,443.57808c0.12966,3.63478.349,7.46425,0.68417,11.46792,0.34791,4.155.78748,8.10286,1.28643,11.82672q3.1013,0.206,6.27128.47186,4.89386,0.4114,9.61729.93879a16.9896,16.9896,0,0,1-6.90257,2.12687c-1.78786.13247-3.33975-.07564-5.61628,0.68229a13.48121,13.48121,0,0,0-3.3378,1.67038q0.90946,15.39372,1.819,30.78748,1.43868,0.14682,2.90513.24943a89.1723,89.1723,0,0,0,10.8509.096,56.2171,56.2171,0,0,1-10.66272,2.95431q-1.49289.25668-2.94425,0.42288,1.05629,15.16079,2.11244,30.32154,1.45393-.22221,2.90779-0.44445,2.55616,0.41644,5.11239.83281-2.65257.91623-5.30514,1.8325-1.20266.74594-2.40542,1.49186l1.78354,31.4525q-1.38248-15.84525-2.765-31.69047-1.7681-.20443-3.56806-0.377-2.0912-.20005-4.13806-0.348a19.39443,19.39443,0,0,1,3.14994-1.53016,17.00687,17.00687,0,0,1,4.2741-1.01154q-1.1411-15.23016-2.28215-30.46034-2.05846.22163-4.22377,0.33186c-2.4433.12114-4.80458,0.11575-7.07553,0.01015q3.25564-1.28515,6.69555-2.43833,2.10052-.70124,4.152-1.30909-1.07919-15.53252-2.15831-31.06507c-0.70162.13858-1.73923,0.31921-3.00362,0.44677a34.871,34.871,0,0,1-9.61813-.448,38.5029,38.5029,0,0,1-5.3323-1.3711A28.58717,28.58717,0,0,0,469.562,469.639a29.88379,29.88379,0,0,0,4.7412-2.35892c-0.2148-3.4472-.55417-7.15277-1.06586-11.07626-0.57962-4.44425-1.3005-8.55647-2.083-12.30356Z" transform="translate(6.50552 8.50174)"/><path class="cls-1" d="M112.92146,385.61921c24.74366-10.49286,61.8023-13.93394,68.8695-.321,6.72608,12.95581-13.75595,41.27788-38.37814,53.69226-16.11062,8.12289-25.56419,5.18518-48.28086,10.50548a172.04475,172.04475,0,0,0-58.35429,26.18185,174.16315,174.16315,0,0,1,28.988-51.14338C75.72209,412.38017,89.512,395.54628,112.92146,385.61921Z" transform="translate(6.50552 8.50174)"/><path class="cls-2" d="M175.86792,385.51408c-3.21632,1.69816-6.56893,3.56174-10.028,5.60545-3.58973,2.121-6.95315,4.23441-10.089,6.30383q1.16382,2.882,2.30363,5.85192,1.75879,4.58539,3.339,9.06779a16.9896,16.9896,0,0,1-4.91817-5.28967c-0.89713-1.55215-1.38494-3.04-3.05785-4.76a13.48121,13.48121,0,0,0-2.9562-2.27859q-13.46471,7.51633-26.92945,15.0327,0.49374,1.35925,1.03937,2.72428a89.17229,89.17229,0,0,0,4.63452,9.81185,56.21711,56.21711,0,0,1-7.29914-8.31529q-0.88064-1.23251-1.66173-2.467-13.19111,7.54719-26.38224,15.09423,0.83265,1.21243,1.66529,2.42479,0.73717,2.48274,1.47443,4.9655-1.979-1.98972-3.95811-3.97943-1.19489-.75833-2.3898-1.51675L63.11084,449.07982q13.66547-8.13868,27.3309-16.27739-0.58519-1.68093-1.213-3.37666-0.72971-1.96994-1.48707-3.87728a19.39443,19.39443,0,0,1,2.74821,2.17045,17.00688,17.00688,0,0,1,2.77035,3.40827q13.21667-7.65373,26.43337-15.30743-1.09514-1.757-2.13647-3.65867c-1.1721-2.14723-2.19458-4.27565-3.08754-6.36634q2.57359,2.37222,5.10854,4.96777,1.54528,1.58621,2.98513,3.16885,13.51584-7.72953,27.03175-15.459c-0.43-.57145-1.04412-1.42711-1.70908-2.51006a34.871,34.871,0,0,1-3.78123-8.855,38.50292,38.50292,0,0,1-1.08543-5.3977,28.58717,28.58717,0,0,0,7.15386,10.52869,29.88379,29.88379,0,0,0,4.18674,3.24264c3.01038-1.6932,6.1992-3.611,9.50925-5.77872,3.7494-2.45548,7.13837-4.89369,10.1718-7.22848Z" transform="translate(6.50552 8.50174)"/><path class="cls-1" d="M383.07413,111.45833c-3.61534,26.63228-19.58279,60.25108-34.89583,59.375-14.57388-.83377-28.46376-32.9075-26.5625-60.41667,1.244-17.9996,8.5977-24.62709,15.625-46.875A172.04475,172.04475,0,0,0,344.53246,0a174.16315,174.16315,0,0,1,29.16667,51.04167C379.064,65.809,386.49452,86.26212,383.07413,111.45833Z" transform="translate(6.50552 8.50174)"/><path class="cls-2" d="M351.01759,165.63071c0.18258-3.6325.29254-7.46668,0.302-11.48434,0.00976-4.16949-.08958-8.14055-0.26728-11.89348q-3.0722-.47125-6.2077-1.008-4.84054-.82964-9.50133-1.76024a16.9896,16.9896,0,0,1,7.05956-1.527c1.79264,0.02137,3.321.36182,5.65411-.19806a13.48121,13.48121,0,0,0,3.46878-1.37793q0.41425-15.415.82847-30.83-1.42078-.26967-2.873-0.49769a89.1723,89.1723,0,0,0-10.80268-1.02638,56.2171,56.2171,0,0,1,10.87683-2.02885q1.5094-.12769,2.96967-0.16879,0.248-15.19552.4961-30.391-1.46763.09669-2.9352,0.1934-2.511-.63415-5.02212-1.26825,2.72138-.68534,5.44276-1.37071,1.26221-.64,2.52452-1.28l0.9208-31.48957q0.0183,15.90543.03664,31.81085,1.74405,0.35534,3.52258.68161,2.06634,0.37869,4.093.70162a19.39443,19.39443,0,0,1-3.26957,1.25434,17.00688,17.00688,0,0,1-4.34512.64122q-0.16944,15.27191-.33892,30.54383,2.06989-.04425,4.23667.03165c2.44469,0.08888,4.7968.29678,7.05032,0.59677q-3.35388,1.00116-6.88,1.85505-2.15293.51848-4.249,0.94814-0.25705,15.56784-.51418,31.13571c0.71092-.07789,1.7602-0.16886,3.03088-0.1875a34.871,34.871,0,0,1,9.54425,1.27134,38.5029,38.5029,0,0,1,5.19505,1.82341,28.58717,28.58717,0,0,0-12.70561.77356,29.88379,29.88379,0,0,0-4.92606,1.94356c-0.08167,3.45292-.06139,7.17395.11189,11.12686,0.19629,4.47759.5618,8.63649,1.02,12.43688Z" transform="translate(6.50552 8.50174)"/><path class="cls-3" d="M271.10185,144.08734c6.16714,16.266,22.57855,38.74307,41.58411,36.903,17.39212-1.6839,29.638-23.02295,33.11087-39.57062,4.56079-21.73141-5.98593-35.3089-16.89529-71.13808A342.71317,342.71317,0,0,1,316.3318,10.157a215.75211,215.75211,0,0,0-35.44849,59.68C271.06081,94.99866,261.63994,119.13141,271.10185,144.08734Z" transform="translate(6.50552 8.50174)"/><path class="cls-4" d="M309.84668,175.78767c-0.18258-3.6325-.29254-7.46668-0.302-11.48434-0.00976-4.16949.08958-8.14055,0.26728-11.89348q3.0722-.47125,6.2077-1.008,4.84054-.82964,9.50133-1.76024a16.9896,16.9896,0,0,0-7.05956-1.527c-1.79264.02137-3.321,0.36182-5.65411-.19806a13.48121,13.48121,0,0,1-3.46878-1.37793q-0.41425-15.415-.82847-30.83,1.42078-.26967,2.873-0.49769a89.1723,89.1723,0,0,1,10.80268-1.02638,56.21711,56.21711,0,0,0-10.87683-2.02885q-1.5094-.12769-2.96967-0.16879-0.248-15.19552-.4961-30.391,1.46763,0.09669,2.9352.1934,2.511-.63415,5.02212-1.26825-2.72138-.68534-5.44276-1.37071-1.26221-.64-2.52452-1.28l-0.9208-31.48957q-0.0183,15.90543-.03664,31.81085-1.74405.35534-3.52258,0.68161-2.06634.37869-4.093,0.70162a19.39443,19.39443,0,0,0,3.26957,1.25434,17.00688,17.00688,0,0,0,4.34512.64122q0.16944,15.27191.33892,30.54383-2.06989-.04425-4.23667.03165c-2.44469.08888-4.7968,0.29678-7.05032,0.59677q3.35388,1.00116,6.88,1.85505,2.15293,0.51848,4.249.94814,0.25705,15.56784.51418,31.13571c-0.71092-.07789-1.7602-0.16886-3.03088-0.1875a34.871,34.871,0,0,0-9.54425,1.27134,38.50291,38.50291,0,0,0-5.19505,1.82341,28.58717,28.58717,0,0,1,12.70561.77356,29.88379,29.88379,0,0,1,4.92606,1.94356c0.08167,3.45291.06139,7.17395-.11189,11.12686-0.19629,4.47759-.5618,8.63649-1.02,12.43688Z" transform="translate(6.50552 8.50174)"/><path class="cls-3" d="M681.61179,401.2984c-17.03211-3.53882-44.807-1.77519-53.46714,15.24241-7.925,15.57293,3.49195,37.36674,15.58184,49.18709,15.87719,15.52321,32.99512,13.92379,69.07449,23.97483a342.71317,342.71317,0,0,1,57.46179,21.70517,215.75211,215.75211,0,0,0-31.28564-61.96379C723.03417,427.64014,707.74316,406.72777,681.61179,401.2984Z" transform="translate(6.50552 8.50174)"/><path class="cls-4" d="M634.058,416.94171c3.16168,1.79784,6.45442,3.76528,9.8479,5.91608,3.5217,2.23212,6.81743,4.44963,9.88709,6.616q-1.25331,2.84424-2.48537,5.77707-1.90122,4.52819-3.62071,8.959a16.9896,16.9896,0,0,0,5.08107-5.1334c0.9452-1.52335,1.47926-2.99523,3.2051-4.66213a13.48121,13.48121,0,0,1,3.026-2.1851q13.22325,7.93342,26.44653,15.86689-0.536,1.34316-1.124,2.69047a89.17229,89.17229,0,0,1-4.93888,9.66224,56.21711,56.21711,0,0,0,7.55543-8.08313q0.91872-1.20439,1.738-2.41386,12.94882,7.95572,25.89766,15.9113-0.87013,1.18582-1.74026,2.37156-0.8144,2.45849-1.62888,4.917,2.04025-1.92691,4.08053-3.8538,1.218-.72062,2.436-1.44133L744.77364,484q-13.40446-8.56175-26.80889-17.12352,0.63743-1.66182,1.3179-3.33711,0.79091-1.94618,1.60751-3.82891a19.39443,19.39443,0,0,0-2.81469,2.0835,17.00688,17.00688,0,0,0-2.87551,3.32q-12.971-8.063-25.9421-16.126,1.14951-1.72192,2.24976-3.59012c1.23862-2.10955,2.32712-4.205,3.285-6.26675q-2.64647,2.29064-5.26129,4.8057-1.59409,1.53714-3.0827,3.074-13.2677-8.14813-26.53546-16.29621c0.44768-.55773,1.0882-1.39379,1.78668-2.45543a34.871,34.871,0,0,0,4.0561-8.73253,38.5029,38.5029,0,0,0,1.25358-5.36115,28.58717,28.58717,0,0,1-7.47939,10.3,29.8838,29.8838,0,0,1-4.286,3.11022c-2.956-1.78644-6.08333-3.80294-9.324-6.07305-3.67083-2.57144-6.982-5.11437-9.94094-7.54281Z" transform="translate(6.50552 8.50174)"/><path class="cls-3" d="M438.78126,133.93039c6.16714,16.266,22.57855,38.74307,41.58411,36.903,17.39212-1.6839,29.638-23.02295,33.11087-39.57062,4.56079-21.73141-5.98593-35.3089-16.89529-71.13808A342.71317,342.71317,0,0,1,484.01121,0a215.7521,215.7521,0,0,0-35.44849,59.68C438.74021,84.84171,429.31934,108.97446,438.78126,133.93039Z" transform="translate(6.50552 8.50174)"/><path class="cls-4" d="M477.52608,165.63071c-0.18258-3.6325-.29254-7.46668-0.302-11.48434-0.00976-4.16949.08958-8.14055,0.26728-11.89348q3.0722-.47125,6.2077-1.008,4.84054-.82964,9.50133-1.76024a16.9896,16.9896,0,0,0-7.05956-1.527c-1.79264.02137-3.321,0.36182-5.65411-.19806a13.48121,13.48121,0,0,1-3.46878-1.37793q-0.41425-15.415-.82847-30.83,1.42078-.26967,2.873-0.49769a89.17228,89.17228,0,0,1,10.80268-1.02638,56.2171,56.2171,0,0,0-10.87683-2.02885q-1.5094-.12769-2.96967-0.16879-0.248-15.19552-.4961-30.391,1.46763,0.09669,2.9352.1934,2.511-.63415,5.02212-1.26825-2.72138-.68534-5.44276-1.37071-1.26221-.64-2.52452-1.28l-0.9208-31.48957q-0.0183,15.90543-.03664,31.81085-1.74405.35534-3.52258,0.68161-2.06634.37869-4.093,0.70162a19.39443,19.39443,0,0,0,3.26957,1.25434,17.00688,17.00688,0,0,0,4.34512.64122q0.16944,15.27191.33892,30.54383-2.06989-.04425-4.23667.03165c-2.44469.08888-4.7968,0.29678-7.05032,0.59677q3.35388,1.00116,6.88,1.85505,2.15293,0.51848,4.249.94814,0.25705,15.56784.51418,31.13571c-0.71092-.07789-1.7602-0.16886-3.03088-0.1875a34.871,34.871,0,0,0-9.54425,1.27134,38.50291,38.50291,0,0,0-5.19505,1.82341,28.58717,28.58717,0,0,1,12.70561.77356,29.8838,29.8838,0,0,1,4.92606,1.94356c0.08167,3.45292.06139,7.17395-.11189,11.12686-0.19629,4.47759-.5618,8.63649-1.02,12.43688Z" transform="translate(6.50552 8.50174)"/><path class="cls-3" d="M198.86013,176.12445c14.9377,8.91522,41.76161,16.33354,55.51172,3.0847,12.58283-12.1241,8.9225-36.45348,1.364-51.57813-9.92631-19.86262-26.62578-23.95032-57.4329-45.24974a342.71316,342.71316,0,0,1-47.20137-39.30651,215.7521,215.7521,0,0,0,9.29684,68.7886C168.33246,137.68278,175.94208,162.44638,198.86013,176.12445Z" transform="translate(6.50552 8.50174)"/><path class="cls-4" d="M248.91486,176.89609c-2.3997-2.7331-4.86778-5.66935-7.37109-8.81182-2.59787-3.26126-4.987-6.43479-7.17917-9.48608q2.1147-2.27783,4.23829-4.64634,3.27777-3.65723,6.352-7.2819a16.9896,16.9896,0,0,0-6.48066,3.189c-1.39148,1.13039-2.37761,2.34662-4.55374,3.35731a13.4812,13.4812,0,0,1-3.57424,1.07514q-9.90092-11.82225-19.80184-23.64454,0.94583-1.094,1.9422-2.17482a89.1723,89.1723,0,0,1,7.82764-7.51527,56.21711,56.21711,0,0,0-9.78375,5.16718q-1.26213.83763-2.432,1.71259-9.63428-11.75355-19.26864-23.507,1.21014-.836,2.42025-1.67189,1.57375-2.05687,3.14759-4.11374-2.5583,1.15356-5.11662,2.3071-1.38672.28258-2.77348,0.56524l-20.28391-24.104q9.86664,12.47528,19.73323,24.95057-1.14594,1.36191-2.33694,2.72247-1.384,1.58042-2.77149,3.09249a19.39443,19.39443,0,0,0,3.34136-1.04823,17.00688,17.00688,0,0,0,3.80329-2.19686q9.62018,11.8622,19.24041,23.72439-1.64951,1.25121-3.3003,2.65676c-1.86051,1.58837-3.57453,3.21249-5.15408,4.84754q3.25014-1.299,6.54378-2.82043,2.00919-.93117,3.91861-1.8966,9.87269,12.03968,19.74545,24.07933c-0.60548.38062-1.48424,0.96117-2.49155,1.736a34.871,34.871,0,0,0-6.68933,6.92546,38.5029,38.5029,0,0,0-2.93821,4.65621,28.58717,28.58717,0,0,1,10.437-7.287,29.88379,29.88379,0,0,1,5.06759-1.53721c2.20906,2.65506,4.5048,5.58356,6.82469,8.78881,2.62781,3.6307,4.925,7.11678,6.92692,10.3795Z" transform="translate(6.50552 8.50174)"/><path class="cls-3" d="M359.661,133.93039c6.16714,16.266,22.57855,38.74307,41.58411,36.903,17.39212-1.6839,29.638-23.02295,33.11087-39.57062,4.56079-21.73141-5.98593-35.3089-16.89529-71.13808A342.71317,342.71317,0,0,1,404.891,0a215.7521,215.7521,0,0,0-35.44849,59.68C359.62,84.84171,350.19913,108.97446,359.661,133.93039Z" transform="translate(6.50552 8.50174)"/><path class="cls-4" d="M398.40587,165.63071c-0.18258-3.6325-.29254-7.46668-0.302-11.48434-0.00976-4.16949.08958-8.14055,0.26728-11.89348q3.0722-.47125,6.2077-1.008,4.84054-.82964,9.50133-1.76024a16.9896,16.9896,0,0,0-7.05956-1.527c-1.79264.02137-3.321,0.36182-5.65411-.19806a13.48121,13.48121,0,0,1-3.46878-1.37793q-0.41425-15.415-.82847-30.83,1.42078-.26967,2.873-0.49769a89.17228,89.17228,0,0,1,10.80268-1.02638,56.2171,56.2171,0,0,0-10.87683-2.02885q-1.5094-.12769-2.96967-0.16879-0.248-15.19552-.4961-30.391,1.46763,0.09669,2.9352.1934,2.511-.63415,5.02212-1.26825-2.72138-.68534-5.44276-1.37071-1.26221-.64-2.52452-1.28l-0.9208-31.48957q-0.0183,15.90543-.03664,31.81085-1.74405.35534-3.52258,0.68161-2.06634.37869-4.093,0.70162A19.39443,19.39443,0,0,0,391.089,70.6722a17.00688,17.00688,0,0,0,4.34512.64122q0.16944,15.27191.33892,30.54383-2.06989-.04425-4.23667.03165c-2.44469.08888-4.7968,0.29678-7.05032,0.59677q3.35388,1.00116,6.88,1.85505,2.15293,0.51848,4.249.94814,0.25705,15.56784.51418,31.13571c-0.71092-.07789-1.7602-0.16886-3.03088-0.1875a34.871,34.871,0,0,0-9.54425,1.27134,38.50291,38.50291,0,0,0-5.19505,1.82341,28.58717,28.58717,0,0,1,12.70561.77356,29.8838,29.8838,0,0,1,4.92606,1.94356c0.08167,3.45292.06139,7.17395-.11189,11.12686-0.19629,4.47759-.5618,8.63649-1.02,12.43688Z" transform="translate(6.50552 8.50174)"/><path class="cls-3" d="M280.49749,500.44776c-1.84122-17.29815-12.01705-43.20193-30.86808-46.241-17.25071-2.78105-34.5071,14.75559-42.06227,29.88191-9.92193,19.86481-3.16256,35.67279-1.69451,73.09723a342.71317,342.71317,0,0,1-3.08616,61.34694,215.75211,215.75211,0,0,0,49.42241-48.74143C268.09034,547.94264,283.3224,526.98728,280.49749,500.44776Z" transform="translate(6.50552 8.50174)"/><path class="cls-4" d="M251.05673,459.95932c-0.74444,3.56009-1.61026,7.29684-2.61983,11.1856-1.04777,4.0357-2.15076,7.8518-3.27424,11.437q-3.09129-.32313-6.26042-0.59893-4.89271-.42483-9.63715-0.70643a16.9896,16.9896,0,0,0,6.44167,3.26709c1.73947,0.43387,3.30417.49206,5.41911,1.62523a13.4812,13.4812,0,0,1,3.006,2.21243q-3.50789,15.01627-7.01582,30.03258-1.44273-.09939-2.90533-0.24706a89.1723,89.1723,0,0,1-10.70989-1.74628,56.21711,56.21711,0,0,0,10.00694,4.72046q1.4277,0.50624,2.82982.91626-3.61308,14.76181-7.226,29.5236-1.39516-.46566-2.79024-0.93133-2.58976-.02327-5.17957-0.0466,2.45867,1.353,4.91734,2.706,1.05868,0.93917,2.11745,1.87832l-7.09374,30.694q4.05066-15.381,8.10135-30.762,1.77715,0.0985,3.58029.23384,2.09483,0.15763,4.13711.35912a19.39443,19.39443,0,0,0-2.84468-2.04238,17.00688,17.00688,0,0,0-4.04053-1.722q3.70842-14.81578,7.4168-29.63159,1.991,0.56764,4.10624,1.04363c2.38733,0.5339,4.71529.92919,6.97124,1.2104q-2.99042-1.81885-6.18482-3.53892-1.95111-1.04743-3.86969-1.99452,3.6987-15.12426,7.39735-30.24857c0.66794,0.2556,1.65986.60965,2.88428,0.94988a34.871,34.871,0,0,0,9.55471,1.19024,38.50291,38.50291,0,0,0,5.48762-.44657,28.58717,28.58717,0,0,1-12.09425-3.96989,29.88379,29.88379,0,0,1-4.27227-3.12909c0.79651-3.36078,1.75963-6.95507,2.92954-10.73486,1.3252-4.28149,2.73329-8.2118,4.14012-11.77182Z" transform="translate(6.50552 8.50174)"/><path class="cls-3" d="M378.1854,511.41072c-4.02663-16.92343-17.41481-41.32241-36.49928-41.93887-17.46434-.56413-32.34985,19.0251-37.91956,34.98958-7.31449,20.96553,1.40078,35.7853,7.61737,72.719a342.71317,342.71317,0,0,1,4.74236,61.24118,215.75211,215.75211,0,0,0,42.82094-54.63213C371.92048,560.098,384.36324,537.37532,378.1854,511.41072Z" transform="translate(6.50552 8.50174)"/><path class="cls-4" d="M343.83358,474.9961c-0.28554,3.62586-.669,7.4424-1.17572,11.428-0.52591,4.1362-1.13452,8.0616-1.79283,11.76062q-3.10728.07271-6.28575,0.20228-4.907.201-9.64872,0.52517a16.9896,16.9896,0,0,0,6.80492,2.42116c1.78053,0.20908,3.33992.06777,5.58182,0.92271a13.4812,13.4812,0,0,1,3.263,1.81209q-1.5693,15.3405-3.13862,30.681-1.44365.08494-2.91316,0.12451a89.1723,89.1723,0,0,1-10.845-.36977,56.21712,56.21712,0,0,0,10.5261,3.40921q1.4805,0.32052,2.92338.54885-1.706,15.10149-3.41184,30.20294-1.44306-.28441-2.886-0.56884-2.57168.30635-5.14343,0.61263,2.6108,1.02923,5.2216,2.05849,1.16954,0.79687,2.33918,1.59372l-3.13178,31.347q2.06126-15.77131,4.12256-31.54261,1.77525-.12836,3.58095-0.22348,2.09786-.11012,4.14919-0.17a19.39443,19.39443,0,0,0-3.08136-1.66394,17.00687,17.00687,0,0,0-4.22675-1.194q1.7937-15.16715,3.58736-30.33432,2.04705,0.30977,4.20563.51283c2.43585,0.22589,4.79518.32184,7.06857,0.31381q-3.19749-1.42369-6.58473-2.72345-2.06849-.79074-4.092-1.48608,1.74482-15.47189,3.48958-30.94382c0.695,0.16856,1.72393.39356,2.98168,0.57527a34.871,34.871,0,0,0,9.62849-.03481,38.50291,38.50291,0,0,0,5.38624-1.141,28.58717,28.58717,0,0,1-12.501-2.39923,29.8838,29.8838,0,0,1-4.63559-2.56023c0.36255-3.4348.86064-7.1224,1.54025-11.0203,0.76982-4.41528,1.66653-8.49277,2.60909-12.20283Z" transform="translate(6.50552 8.50174)"/><path class="cls-3" d="M193.90535,478.78881c9.29006-14.70751,17.38423-41.33528,4.48729-55.416-11.80208-12.88535-36.21623-9.84134-51.52715-2.66765-20.10724,9.42093-24.61587,26.0117-46.68742,56.27044a342.71317,342.71317,0,0,1-40.48739,46.19245,215.75211,215.75211,0,0,0,69.00167-7.5546C154.70409,508.33475,179.65219,501.35369,193.90535,478.78881Z" transform="translate(6.50552 8.50174)"/><path class="cls-4" d="M195.94234,428.76959c-2.7929,2.32983-5.79062,4.72288-8.99538,7.14594-3.3259,2.51458-6.55883,4.82269-9.66457,6.937q-2.22364-2.17161-4.53769-4.35442-3.57318-3.3692-7.119-6.53406a16.9896,16.9896,0,0,0,3.02417,6.55922c1.09485,1.41962,2.28575,2.43618,3.2411,4.63717a13.4812,13.4812,0,0,1,.98442,3.60028q-12.0688,9.59883-24.13766,19.19768-1.0697-.97319-2.125-1.99657a89.1723,89.1723,0,0,1-7.315-8.01516,56.21711,56.21711,0,0,0,4.91815,9.91127q0.80545,1.28291,1.65055,2.47449-11.99339,9.334-23.98665,18.66812-0.80511-1.23089-1.61016-2.46175-2.01642-1.62525-4.03284-3.25059,1.08851,2.58665,2.177,5.17332,0.24742,1.39342.49493,2.78689l-24.60917,19.668q12.72076-9.54806,25.44153-19.09607,1.3325,1.18,2.66251,2.405,1.54493,1.4235,3.02143,2.84879a19.39443,19.39443,0,0,0-.96341-3.3668,17.00688,17.00688,0,0,0-2.1-3.85762q12.10165-9.31718,24.20328-18.63441,1.2091,1.68061,2.57246,3.36642c1.54082,1.90007,3.12109,3.65461,4.71567,5.275q-1.21641-3.28195-2.65407-6.613-0.88007-2.03209-1.79692-3.96531,12.28545-9.56512,24.57088-19.13031c0.36519,0.61491.92334,1.50807,1.6724,2.53465a34.871,34.871,0,0,0,6.75411,6.86229,38.50292,38.50292,0,0,0,4.58043,3.055,28.58717,28.58717,0,0,1-7.02074-10.61792,29.8838,29.8838,0,0,1-1.40859-5.10484c2.71006-2.14123,5.69567-4.36218,8.95855-6.60029,3.696-2.53517,7.239-4.74352,10.55133-6.66227Z" transform="translate(6.50552 8.50174)"/><path class="cls-3" d="M128.92772,402.04651c16.03987-6.73341,37.928-23.92247,35.42293-42.85186-2.29239-17.32242-24.0475-28.81293-40.70671-31.70374-21.8779-3.79639-35.07743,7.21969-70.50227,19.378a342.71316,342.71316,0,0,1-59.6472,14.66914,215.75211,215.75211,0,0,0,60.8857,33.33517C79.87063,403.80789,104.31872,412.37722,128.92772,402.04651Z" transform="translate(6.50552 8.50174)"/><path class="cls-4" d="M159.25072,362.21452c-3.62387.30977-7.45184,0.554-11.4667,0.70428-4.16658.15587-8.13869,0.19577-11.89554,0.1497q-0.57863-3.05379-1.225-6.16856-0.99877-4.80849-2.09214-9.4338a16.9896,16.9896,0,0,0-1.27863,7.10873c0.08418,1.79079.478,3.30623,0.00022,5.65757a13.4812,13.4812,0,0,1-1.25551,3.51493q-15.391.95423-30.78206,1.90843-0.3193-1.41046-.59807-2.85382A89.1723,89.1723,0,0,1,97.253,352.04192a56.21711,56.21711,0,0,0-1.64642,10.94125q-0.07471,1.513-.06461,2.97376-15.17749.78037-30.35493,1.56088,0.04519-1.47012.09042-2.94017-0.72176-2.48726-1.44347-4.97459-0.58954,2.74373-1.17912,5.48746-0.59541,1.28387-1.19078,2.56783l-31.438,2.02381q15.8963-.53913,31.79259-1.07822,0.41624,1.73053.80464,3.49652,0.45087,2.05179.84463,4.06586a19.39443,19.39443,0,0,0,1.139-3.31153,17.00688,17.00688,0,0,0,.48854-4.36492q15.25659-.70455,30.51319-1.40915,0.02832,2.07017.18011,4.233c0.1745,2.44007.46471,4.78345,0.84349,7.02508q0.883-3.3869,1.6128-6.94081,0.44271-2.16978.79865-4.27958,15.54927-.80249,31.09857-1.605c-0.05292.71322-.10707,1.765-0.08116,3.03558a34.871,34.871,0,0,0,1.605,9.49383,38.50292,38.50292,0,0,0,2.00436,5.128,28.58717,28.58717,0,0,1,.3278-12.72492,29.8838,29.8838,0,0,1,1.76973-4.99115c3.44793-.20263,7.16739-0.31277,11.12394-0.27813,4.48172,0.03924,8.65087.25878,12.465,0.58349Z" transform="translate(6.50552 8.50174)"/><path class="cls-3" d="M143.45442,321.96833c17.29416-1.87832,43.17606-12.1097,46.17465-30.9672,2.744-17.25664-14.82958-34.47536-29.97207-41.99808-19.886-9.87929-35.67949-3.086-73.1007-1.5377a342.71316,342.71316,0,0,1-61.35342-2.95456,215.75211,215.75211,0,0,0,48.84734,49.31774C95.933,309.66309,116.921,324.85016,143.45442,321.96833Z" transform="translate(6.50552 8.50174)"/><path class="cls-4" d="M183.87961,292.44079c-3.56168-.7368-7.30028-1.59461-11.1912-2.59583-4.03794-1.03911-7.8564-2.13391-11.444-3.2497q0.3165-3.092.5855-6.26169,0.41434-4.89361.68576-9.63864a16.9896,16.9896,0,0,0-3.25326,6.44866c-0.43014,1.7404-.485,3.30522-1.6136,5.42258a13.48121,13.48121,0,0,1-2.206,3.01077q-15.02376-3.47567-30.04756-6.95138,0.09629-1.44294.24083-2.90586a89.17229,89.17229,0,0,1,1.7233-10.71361,56.21711,56.21711,0,0,0-4.699,10.017q-0.50317,1.42878-.91018,2.83178-14.76953-3.5814-29.539-7.16266,0.46266-1.39615.92534-2.79223,0.01771-2.5898.03549-5.17966-1.34769,2.46157-2.69542,4.92313-0.93689,1.06069-1.87378,2.12147l-30.70911-7.02788q15.38966,4.01765,30.77929,8.03535-0.09468,1.77736-.22616,3.58078-0.15313,2.09516-.35024,4.13787a19.39443,19.39443,0,0,0,2.03627-2.84905,17.00688,17.00688,0,0,0,1.71333-4.04422q14.8237,3.67663,29.64743,7.35322-0.56337,1.99224-1.03482,4.10847c-0.52878,2.38847-.91907,4.71727-1.19544,6.97382q1.81243-2.99431,3.52564-6.1924,1.04325-1.95335,1.98621-3.874,15.13216,3.66625,30.26437,7.33245c-0.25417.66849-.60609,1.66117-0.94369,2.88632a34.871,34.871,0,0,0-1.16974,9.55724,38.50291,38.50291,0,0,0,.45835,5.48665,28.58717,28.58717,0,0,1,3.94394-12.10274,29.8838,29.8838,0,0,1,3.11992-4.279c3.36248,0.7893,6.95883,1.74471,10.74112,2.90651,4.28433,1.316,8.21764,2.71567,11.78067,4.11486Z" transform="translate(6.50552 8.50174)"/><path class="cls-3" d="M606.53826,176.34357c-6.58565,16.1011-9.917,43.7318,5.23589,55.35026,13.86647,10.63214,37.37692,3.38126,51.20389-6.35019,18.15843-12.77993,19.70767-29.90247,36.17-63.54375a342.71316,342.71316,0,0,1,31.82058-52.53972,215.75211,215.75211,0,0,0-66.63025,19.46052C639.99252,140.41985,616.6422,151.6406,606.53826,176.34357Z" transform="translate(6.50552 8.50174)"/><path class="cls-4" d="M613.24676,225.95272c2.34429-2.78078,4.87924-5.65949,7.61285-8.60382,2.83695-3.05556,5.61832-5.89161,8.3082-8.5147q2.568,1.751,5.22692,3.49727,4.10552,2.69515,8.14846,5.19387a16.9896,16.9896,0,0,0-4.12066-5.932c-1.32543-1.20717-2.67523-2.0007-3.99942-4.00159a13.48121,13.48121,0,0,1-1.59661-3.37371q10.21193-11.55466,20.4239-23.10934,1.22289,0.77194,2.44036,1.59581a89.17229,89.17229,0,0,1,8.59948,6.61817,56.21711,56.21711,0,0,0-6.56968-8.90286q-1.01664-1.123-2.05641-2.14909,10.1838-11.28076,20.36747-22.56157,1.00724,1.0718,2.01442,2.14358,2.26873,1.2491,4.53748,2.49828-1.52251-2.35745-3.045-4.71492-0.4864-1.329-.97289-2.658l20.80627-23.65459q-10.86276,11.61824-21.72554,23.23644-1.51771-.92981-3.04079-1.90439-1.7693-1.13257-3.47154-2.27883a19.39443,19.39443,0,0,0,1.53524,3.14746,17.00688,17.00688,0,0,0,2.73995,3.43276q-10.29334,11.283-20.58666,22.56612-1.4834-1.44426-3.11962-2.86676c-1.84828-1.60257-3.71006-3.055-5.56256-4.37277q1.76958,3.01983,3.7656,6.04948,1.22065,1.84769,2.46027,3.59161Q641.93511,191.48375,631.504,203.043c-0.46673-.54189-1.172-1.32414-2.08841-2.20452a34.871,34.871,0,0,0-7.84636-5.58065,38.50291,38.50291,0,0,0-5.04262-2.21028,28.58717,28.58717,0,0,1,8.76322,9.23238,29.8838,29.8838,0,0,1,2.27641,4.78137c-2.29557,2.58063-4.84859,5.28777-7.67165,8.06011-3.19778,3.14031-6.30191,5.93215-9.22927,8.39863Z" transform="translate(6.50552 8.50174)"/><path class="cls-3" d="M155.57087,238.759c17.19849,2.61306,44.83743-.64922,52.56513-18.11,7.07168-15.97851-5.50652-37.12338-18.21763-48.273-16.693-14.64235-33.69947-12.12005-70.26936-20.2063a342.71316,342.71316,0,0,1-58.551-18.56763,215.75211,215.75211,0,0,0,34.58905,60.18222C112.78527,214.69465,129.18424,234.75,155.57087,238.759Z" transform="translate(6.50552 8.50174)"/><path class="cls-4" d="M202.20958,220.56829c-3.25423-1.62432-6.6485-3.41091-10.15327-5.37515-3.63719-2.03851-7.048-4.07464-10.23023-6.072q1.09775-2.90782,2.16949-5.903,1.65369-4.62433,3.13119-9.14163a16.9896,16.9896,0,0,0-4.79618,5.40053c-0.86148,1.57221-1.31521,3.07081-2.94843,4.82855a13.48121,13.48121,0,0,1-2.90343,2.34546Q162.846,199.444,149.21324,192.23686q0.4626-1.37016.97694-2.74729a89.17228,89.17228,0,0,1,4.40941-9.91506,56.2171,56.2171,0,0,0-7.10749,8.47969q-0.85228,1.25229-1.605,2.50427-13.35989-7.24421-26.71981-14.48827,0.80477-1.23112,1.60953-2.46216,0.68033-2.49891,1.36073-4.99786-1.93312,2.03437-3.86627,4.06872-1.17728.7854-2.35457,1.57089L88.03132,159.59217q13.84763,7.82472,27.69523,15.64947-0.54668,1.69385-1.1356,3.40346-0.68456,1.98608-1.3982,3.9102a19.39443,19.39443,0,0,0,2.698-2.23259,17.00688,17.00688,0,0,0,2.69186-3.47061q13.38788,7.35014,26.77579,14.70024-1.05476,1.78153-2.05242,3.70647c-1.12279,2.17342-2.09644,4.32462-2.94146,6.43514q2.51879-2.43033,4.99385-5.083,1.50868-1.62105,2.912-3.23615,13.68871,7.4191,27.37748,14.83815c-0.41688.58111-1.01128,1.45057-1.65136,2.54841a34.871,34.871,0,0,0-3.57818,8.939,38.50293,38.50293,0,0,0-.962,5.42107,28.58717,28.58717,0,0,1,6.91174-10.68919,29.8838,29.8838,0,0,1,4.11165-3.33733c3.04823,1.62406,6.28,3.46857,9.63865,5.56021,3.80446,2.36928,7.24819,4.72952,10.3341,6.99448Z" transform="translate(6.50552 8.50174)"/><path class="cls-3" d="M551.11523,492.21127c-8.14428-15.37162-27.2264-35.6306-45.855-31.4386-17.04716,3.83612-26.541,26.53376-27.9267,43.38505-1.81974,22.13015,10.33532,34.28893,25.62055,68.48113a342.71317,342.71317,0,0,1,19.95747,58.09192,215.75211,215.75211,0,0,0,27.74251-63.629C557.26751,540.91291,563.61054,515.795,551.11523,492.21127Z" transform="translate(6.50552 8.50174)"/><path class="cls-4" d="M508.72516,465.58133c0.63341,3.58151,1.21986,7.37216,1.72944,11.35739,0.52878,4.13583.92462,8.08836,1.21554,11.83422q-2.98962.85007-6.0339,1.773-4.69959,1.42583-9.20825,2.92946a16.9896,16.9896,0,0,0,7.19474.63618c1.776-.24439,3.25007-0.77247,5.63477-0.50742a13.4812,13.4812,0,0,1,3.61334.93534q2.33019,15.24348,4.66037,30.487-1.37615.44446-2.78871,0.85151a89.1723,89.1723,0,0,1-10.59084,2.36333,56.21711,56.21711,0,0,0,11.04479.6589q1.51356-.06123,2.96758-0.20225,2.1379,15.04642,4.27593,30.09277-1.46825.08679-2.93644,0.17353-2.41254.94184-4.82515,1.88364,2.78553,0.34119,5.57107.68242,1.33208,0.47791,2.66424.95578l4.83409,31.12992q-1.96207-15.784-3.9241-31.56791,1.68624-.56971,3.41031-1.11487,2.00311-.633,3.97377-1.20574a19.39443,19.39443,0,0,0-3.4003-.83752,17.00688,17.00688,0,0,0-4.39114-.09526q-2.06947-15.132-4.139-30.264,2.05929-.2138,4.19976-0.55887c2.4146-.39255,4.72253-0.89167,6.92117-1.4699q-3.45243-.57582-7.05745-0.98406-2.20073-.24641-4.33394-0.41177-2.19325-15.41471-4.38658-30.82945c0.71509-.01123,1.76753-0.0516,3.03064-0.1913a34.871,34.871,0,0,0,9.31171-2.44971,38.50291,38.50291,0,0,0,4.92762-2.456,28.58717,28.58717,0,0,1-12.70306.81431,29.8838,29.8838,0,0,1-5.12971-1.31514c-0.51092-3.41588-.95407-7.11049-1.27428-11.05422-0.3627-4.46719-.51782-8.63924-0.53636-12.4671Z" transform="translate(6.50552 8.50174)"/><path class="cls-3" d="M465.901,493.56324c-6.02914-16.31765-22.24956-38.93294-41.27-37.25388-17.40576,1.53651-29.832,22.77106-33.44488,39.28872-4.74471,21.692,5.68662,35.35834,16.29209,71.27864a342.71316,342.71316,0,0,1,12.06,60.229A215.75211,215.75211,0,0,0,455.491,567.72807C465.52625,542.65051,475.15121,518.59843,465.901,493.56324Z" transform="translate(6.50552 8.50174)"/><path class="cls-4" d="M427.42613,461.53586c0.1518,3.63392.22928,7.46889,0.20469,11.48648-0.02556,4.16942-.15853,8.1395-0.368,11.89079q-3.07608.44521-6.216,0.95541-4.84739.78861-9.5159,1.67969a16.9896,16.9896,0,0,0,7.04637,1.58673c1.79275-.00618,3.3239-0.33368,5.65222.24594a13.4812,13.4812,0,0,1,3.457,1.40726q0.28366,15.41795.56729,30.83594-1.423.25763-2.87714,0.47333a89.1723,89.1723,0,0,1-10.811.93483,56.21711,56.21711,0,0,0,10.85925,2.12091q1.50827,0.14047,2.96813.19394,0.11925,15.19708.23865,30.3941-1.46676-.10911-2.93345-0.21826-2.51631.61286-5.03268,1.22566,2.71548,0.70836,5.431,1.41676,1.25675,0.65071,2.51358,1.30138l0.654,31.49624q0.153-15.90471.3061-31.8094,1.747-.34055,3.52822-0.65175,2.06947-.36117,4.09876-0.66692a19.39443,19.39443,0,0,0-3.25883-1.282,17.00687,17.00687,0,0,0-4.33953-.678q-0.04006-15.27279-.08017-30.5456,2.06944,0.06178,4.23678.00424c2.44535-.06817,4.79914-0.25614,7.05513-0.537q-3.34528-1.02954-6.86406-1.91327-2.14846-.5367-4.24077-0.9841-0.12517-15.56946-.25041-31.139c0.71024,0.08391,1.75871.18376,3.02918,0.21317a34.871,34.871,0,0,0,9.55468-1.19044,38.5029,38.5029,0,0,0,5.21031-1.77934,28.58717,28.58717,0,0,1-12.6986-.88116,29.8838,29.8838,0,0,1-4.90942-1.98522c-0.05242-3.45348-.00062-7.17421.20614-11.12551,0.23421-4.47577.63493-8.63142,1.12529-12.42779Z" transform="translate(6.50552 8.50174)"/><path class="cls-3" d="M633.30759,471.6382c-10.73269-13.69035-33.09478-30.25809-50.6893-22.83989-16.10088,6.78845-21.434,30.80666-19.81977,47.63759,2.11992,22.10342,16.23246,31.92267,37.31981,62.87534a342.71317,342.71317,0,0,1,29.9098,53.65049,215.7521,215.7521,0,0,0,16.06079-67.53039C647.97,518.486,649.77414,492.64247,633.30759,471.6382Z" transform="translate(6.50552 8.50174)"/><path class="cls-4" d="M586.8785,452.91894c1.25639,3.4132,2.50353,7.04054,3.70939,10.873,1.25138,3.97728,2.33951,7.79764,3.28785,11.43313q-2.79233,1.365-5.62558,2.8115-4.37363,2.23394-8.5456,4.5107a16.9896,16.9896,0,0,0,7.19392-.64534c1.70489-.55441,3.0624-1.33469,5.4564-1.49526a13.4812,13.4812,0,0,1,3.72177.282q4.98747,14.59174,9.97493,29.18352-1.27594.68067-2.59433,1.33095a89.1723,89.1723,0,0,1-10.00648,4.19783,56.21711,56.21711,0,0,0,10.98739-1.3034q1.47891-.32775,2.88512-0.72352,4.76337,14.43176,9.52686,28.86342-1.4298.3449-2.85955,0.68975-2.20811,1.35338-4.41631,2.70673,2.802-.15646,5.604-0.31289,1.39557,0.235,2.79122.46989L628.229,575.57658q-4.72066-15.18876-9.44127-30.37752,1.559-.85875,3.1596-1.7,1.85971-.977,3.69814-1.889a19.39443,19.39443,0,0,0-3.49479-.22341,17.00687,17.00687,0,0,0-4.33886.68228q-4.71115-14.52807-9.42234-29.05615,1.98909-.57437,4.03489-1.29229c2.30722-.8131,4.49061-1.71224,6.55246-2.66993q-3.49985.04339-7.12027,0.27868-2.20964.1464-4.3385,0.36064-4.88294-14.78447-9.766-29.569c0.70185-.13743,1.73059-0.36316,2.94913-0.72389a34.871,34.871,0,0,0,8.73221-4.05679,38.50292,38.50292,0,0,0,4.416-3.2882,28.58717,28.58717,0,0,1-12.3592,3.04648,29.88379,29.88379,0,0,1-5.28139-.38788c-1.10656-3.27182-2.19567-6.83-3.20781-10.655-1.14647-4.33278-2.03646-8.41174-2.7312-12.17608Z" transform="translate(6.50552 8.50174)"/><path class="cls-3" d="M678.00809,226.52617c-13.6388,10.79812-30.09927,33.23929-22.5969,50.79809,6.86547,16.06819,30.90894,21.28625,47.732,19.59143,22.093-2.22574,31.84458-16.38514,62.69591-37.62047a342.71315,342.71315,0,0,1,53.50665-30.16637,215.75211,215.75211,0,0,0-67.60652-15.73723C724.78512,211.63962,698.93326,209.95923,678.00809,226.52617Z" transform="translate(6.50552 8.50174)"/><path class="cls-4" d="M659.51137,273.04437c3.40714-1.27272,7.02847-2.53722,10.85509-3.76141,3.97124-1.27041,7.78635-2.37682,11.41725-3.34256q1.3784,2.78576,2.8384,5.612,2.25486,4.36288,4.55157,8.5239a16.9896,16.9896,0,0,0-.67978-7.19075c-0.56257-1.70221-1.34933-3.056-1.52137-5.44918a13.48121,13.48121,0,0,1,.26422-3.72307q14.56769-5.05729,29.13542-10.11456,0.68678,1.27267,1.34336,2.58793a89.17229,89.17229,0,0,1,4.24569,9.98626,56.21711,56.21711,0,0,0-1.356-10.981q-0.33483-1.47733-.73733-2.88162,14.40878-4.83242,28.81747-9.665,0.35175,1.42814.70344,2.85622,1.36394,2.20161,2.72784,4.4033-0.16988-2.8012-.33972-5.60242,0.22829-1.39668.45652-2.79344l29.73614-10.402q-15.166,4.79334-30.332,9.58663-0.8662-1.55489-1.71513-3.15142-0.98594-1.855-1.90672-3.689a19.39443,19.39443,0,0,0-.20667,3.49582,17.00687,17.00687,0,0,0,.703,4.33554q-14.50535,4.78066-29.01069,9.56137-0.58388-1.98632-1.31159-4.02866c-0.82414-2.3033-1.73373-4.48236-2.70127-6.5396q0.06015,3.4996.31278,7.11885,0.157,2.20891.38141,4.33672-14.76092,4.95368-29.52185,9.90744c-0.14079-.70118-0.37144-1.72883-0.738-2.94563a34.871,34.871,0,0,0-4.09856-8.71269,38.50292,38.50292,0,0,0-3.30931-4.40021,28.58717,28.58717,0,0,1,3.10563,12.34447,29.88379,29.88379,0,0,1-.36258,5.28318c-3.26648,1.12222-6.81936,2.22835-10.63954,3.25879-4.32724,1.16721-8.40189,2.07672-12.16286,2.78948Z" transform="translate(6.50552 8.50174)"/><path class="cls-1" d="M536.10053,499.01287c-6.74772-26.01571-4.71262-63.17808,9.7901-68.17085,13.80267-4.75178,38.812,19.66515,47.47827,45.84272,5.67045,17.12832,1.3771,26.04837,3.30576,49.29988a172.04475,172.04475,0,0,0,17.33394,61.565,174.16315,174.16315,0,0,1-46.33514-36.18013C557.11213,539.737,542.4844,523.62576,536.10053,499.01287Z" transform="translate(6.50552 8.50174)"/><path class="cls-2" d="M545.2349,436.73261c1.20772,3.43072,2.55908,7.02054,4.073,10.74207,1.57117,3.86214,3.16808,7.49932,4.75485,10.90494q3.02161-.72823,6.12664-1.41982,4.79386-1.06677,9.45965-1.972a16.9896,16.9896,0,0,1-5.95421,4.08857c-1.667.65962-3.21034,0.92378-5.15725,2.32613a13.48121,13.48121,0,0,0-2.68779,2.58977q5.45878,14.422,10.9176,28.84412,1.417-.28891,2.84732-0.62829a89.17232,89.17232,0,0,0,10.38579-3.1443,56.21711,56.21711,0,0,1-9.29651,5.99971q-1.34841.69021-2.68416,1.28167,5.52947,14.15593,11.05878,28.31186,1.32151-.64569,2.64294-1.29139,2.564-.36481,5.12813-0.7297-2.25863,1.66559-4.51725,3.33121-0.92548,1.07066-1.85107,2.14132l11.08212,29.48944q-6.04493-14.712-12.0899-29.4239-1.74862.33215-3.51812,0.70426-2.05571.43268-4.05354,0.90191a19.39444,19.39444,0,0,1,2.55028-2.3999,17.00688,17.00688,0,0,1,3.778-2.24014q-5.6311-14.19685-11.26216-28.39373-1.8987.82541-3.93261,1.57637c-2.296.84426-4.55144,1.5433-6.75055,2.11975q2.72425-2.19756,5.66373-4.32413,1.79582-1.29574,3.57265-2.48773-5.66218-14.50391-11.3243-29.00788c-0.62837.34151-1.5649,0.82336-2.73371,1.32218a34.871,34.871,0,0,1-9.31408,2.44068,38.50292,38.50292,0,0,1-5.49856.28148,28.58717,28.58717,0,0,0,11.46461-5.53115,29.88379,29.88379,0,0,0,3.822-3.6655c-1.233-3.22628-2.662-6.662-4.32051-10.2544-1.8786-4.06918-3.793-7.7793-5.65734-11.12254Z" transform="translate(6.50552 8.50174)"/><path class="cls-1" d="M146.7897,210.9263c25.49306,8.51191,55.55005,30.461,51.83751,45.343-3.53333,14.16364-37.63271,21.83733-64.30654,14.8462-17.453-4.57438-22.59507-13.03368-43.145-24.08134a172.04475,172.04475,0,0,0-61.07209-18.99768,174.16315,174.16315,0,0,1,55.58053-19.15075C101.19217,206.36483,122.67127,202.87336,146.7897,210.9263Z" transform="translate(6.50552 8.50174)"/><path class="cls-2" d="M194.04436,252.51073c-3.535-.85588-7.28157-1.678-11.22719-2.43547-4.09473-.78608-8.01481-1.428-11.73519-1.95236q-1.03515,2.93069-2.14647,5.91137-1.71659,4.60135-3.49891,9.00729a16.9896,16.9896,0,0,1-.18554-7.22043c0.35484-1.7573.974-3.19547,0.85839-5.59207a13.48121,13.48121,0,0,0-.70782-3.66471q-15.06817-3.27779-30.13639-6.55556-0.52955,1.3457-1.024,2.73008a89.17231,89.17231,0,0,0-3.02024,10.42254,56.21711,56.21711,0,0,1,.03227-11.06438q0.15565-1.50678.38722-2.94915-14.8835-3.07356-29.76692-6.14724-0.17833,1.46-.35661,2.91987-1.09069,2.349-2.18135,4.69807-0.16654-2.8014-.3331-5.60282-0.39377-1.35933-.7875-2.71874l-30.76719-6.7691q15.63058,2.94415,31.26116,5.88824,0.67392-1.64736,1.32571-3.334,0.75688-1.95966,1.45159-3.8907a19.39442,19.39442,0,0,1,.62349,3.446,17.00687,17.00687,0,0,1-.17921,4.38852q14.97318,3.01061,29.94636,6.02127,0.342-2.04192.8201-4.15665c0.54261-2.38537,1.18491-4.65761,1.89934-6.81584q0.359,3.48165.54131,7.10513,0.10847,2.21182.14026,4.3512,15.24762,3.15181,30.49525,6.30369c0.05587-.713.16191-1.76085,0.38023-3.01277a34.871,34.871,0,0,1,3.02656-9.14052,38.50292,38.50292,0,0,1,2.759-4.76459,28.58717,28.58717,0,0,0-1.60619,12.6274,29.88379,29.88379,0,0,0,.99216,5.20184c3.3773,0.72329,7.037,1.39634,10.953,1.96226,4.43581,0.641,8.59,1.05643,12.40926,1.314Z" transform="translate(6.50552 8.50174)"/><path class="cls-1" d="M468.91264,102.95659c-3.61534,26.63228-19.58279,60.25108-34.89583,59.375-14.57388-.83377-28.46376-32.9075-26.5625-60.41667,1.244-17.9996,8.5977-24.62709,15.625-46.875A172.04475,172.04475,0,0,0,430.371-8.50174a174.16315,174.16315,0,0,1,29.16667,51.04167C464.90252,57.30727,472.333,77.76038,468.91264,102.95659Z" transform="translate(6.50552 8.50174)"/><path class="cls-2" d="M436.8561,157.129c0.18258-3.6325.29254-7.46668,0.302-11.48434,0.00976-4.16949-.08958-8.14055-0.26728-11.89348q-3.0722-.47125-6.2077-1.008-4.84054-.82964-9.50133-1.76024a16.9896,16.9896,0,0,1,7.05956-1.527c1.79264,0.02137,3.321.36182,5.65411-.19806a13.4812,13.4812,0,0,0,3.46878-1.37793q0.41425-15.415.82847-30.83-1.42078-.26967-2.873-0.49769A89.1723,89.1723,0,0,0,424.517,95.52583,56.21711,56.21711,0,0,1,435.39381,93.497q1.5094-.12769,2.96967-0.16879,0.248-15.19552.4961-30.391-1.46763.09669-2.9352,0.1934-2.511-.63415-5.02212-1.26825,2.72138-.68534,5.44276-1.37071,1.26221-.64,2.52452-1.28l0.9208-31.48957q0.0183,15.90543.03664,31.81085,1.74405,0.35534,3.52258.68161,2.06634,0.37869,4.093.70162a19.39443,19.39443,0,0,1-3.26957,1.25434,17.00688,17.00688,0,0,1-4.34512.64122q-0.16944,15.27191-.33892,30.54383,2.06989-.04425,4.23667.03165c2.44469,0.08888,4.7968.29678,7.05032,0.59677q-3.35388,1.00116-6.88,1.85505-2.15293.51848-4.249,0.94814-0.25705,15.56784-.51418,31.13571c0.71092-.07789,1.7602-0.16886,3.03088-0.1875a34.871,34.871,0,0,1,9.54425,1.27134,38.50291,38.50291,0,0,1,5.19505,1.82341,28.58717,28.58717,0,0,0-12.70561.77356,29.88379,29.88379,0,0,0-4.92606,1.94356c-0.08167,3.45292-.06139,7.17395.11189,11.12686,0.19629,4.47759.5618,8.63649,1.02,12.43688Z" transform="translate(6.50552 8.50174)"/><path class="cls-1" d="M357.39515,502.29564c2.40151-26.769,16.82492-61.07864,32.16195-60.89926,14.59672,0.17071,29.92959,31.5802,29.28024,59.14734-0.42488,18.03754-7.46983,24.99231-13.479,47.53654a172.04475,172.04475,0,0,0-4.397,63.80736,174.16315,174.16315,0,0,1-31.45574-49.6637C363.47531,547.71561,355.12314,527.62125,357.39515,502.29564Z" transform="translate(6.50552 8.50174)"/><path class="cls-2" d="M386.95714,446.72265c-0.01734,3.637.047,7.47226,0.22014,11.4862,0.1797,4.16562.45937,8.12807,0.80741,11.86905q3.09044,0.33117,6.24709.72493,4.87324,0.60884,9.5715,1.3267a16.9896,16.9896,0,0,1-6.98288,1.84617c-1.79176.06011-3.334-.21055-5.63927,0.45476a13.4812,13.4812,0,0,0-3.40258,1.53412q0.2866,15.4179.57322,30.83584,1.43157,0.20484,2.89268.36663a89.1723,89.1723,0,0,0,10.83816.53447,56.21711,56.21711,0,0,1-10.77341,2.521q-1.502.19614-2.95893,0.30355,0.44272,15.19109.88529,30.38214,1.46173-.16327,2.92338-0.32657,2.53725,0.5194,5.07456,1.03875-2.68743.80828-5.37486,1.6166-1.23183.69673-2.46375,1.39343l0.511,31.49888q-0.741-15.88817-1.482-31.77633-1.7584-.27572-3.54991-0.52085-2.08141-.28441-4.12062-0.51492a19.39442,19.39442,0,0,1,3.2092-1.40161,17.00688,17.00688,0,0,1,4.31149-.838q-0.52465-15.26383-1.04926-30.52768-2.06574.13825-4.23373,0.16089c-2.4462.02229-4.80533-.07852-7.07016-0.27581q3.30492-1.15252,6.78863-2.16575,2.12715-.61577,4.20149-1.14023-0.45057-15.56344-.90108-31.12692c-0.70665.11011-1.75071,0.24866-3.01923,0.325a34.871,34.871,0,0,1-9.59216-.83636,38.50291,38.50291,0,0,1-5.27254-1.58548,28.58717,28.58717,0,0,0,12.65734-1.35007,29.88379,29.88379,0,0,0,4.83266-2.16538c-0.0753-3.45306-.26464-7.16933-0.61735-11.11028-0.39953-4.464-.95363-8.602-1.584-12.37769Z" transform="translate(6.50552 8.50174)"/></svg>