<svg id="Layer_2" data-name="Layer 2" xmlns="http://www.w3.org/2000/svg" viewBox="0 0 843.89001 599.7305"><defs><style>.cls-1{fill:#360031;}.cls-2{fill:#375000;}.cls-3{fill:#515f00;}.cls-4{fill:#fff;opacity:0.66;}.cls-5,.cls-6,.cls-7{fill:none;stroke-miterlimit:10;stroke-width:2px;}.cls-5{stroke:#375000;}.cls-6{stroke:#fff;}.cls-7{stroke:#515f00;}</style></defs><title>trees</title><rect class="cls-1" x="2" y="3.58956" width="841.89001" height="595.28003"/><path class="cls-2" d="M307.11832-.14737c-40.32257,84.41226-82.13258,134.86163-114,165.81427-34.41891,33.43094-57.77623,44.63953-68,84.31235-11.51449,44.68137,10.2817,60.8515,8,153.16743-1.07672,43.56288-6.3903,56.51318-6,109.60606a783.32872,783.32872,0,0,0,5.02776,83.14514L69,595.35015,70.336-.243,118.24758-.0784c-1.065,13.42133-2.41626,30.12152-4.03187,49.33563-2.16035,25.69257-4.96708,51.45651-4.2877,77.2308,0.788,29.89636,1.18206,44.84454,6.62644,48.74854,13.66414,9.7981,30.38358-55.23679,85.754-94.75833,9.11931-6.50909,20.89835-13.4762,32.36163-26.14417a126.33594,126.33594,0,0,0,16.752-24.24756A132.52089,132.52089,0,0,0,263.13477-.0784" transform="translate(2 3.58959)"/><path class="cls-2" d="M529.82388-.76526c40.32257,84.41226,82.13258,134.86163,114,165.81427,34.41891,33.43094,57.77623,44.63953,68,84.31235,11.51449,44.68137-10.2817,60.8515-8,153.16743,1.07672,43.56288,6.3903,56.51318,6,109.60606A783.32869,783.32869,0,0,1,704.79611,595.28l63.14609-.54774L766.60616-.8609l-47.91155.16461c1.065,13.42133,2.41626,30.12152,4.03187,49.33563,2.16035,25.69257,4.96708,51.45651,4.2877,77.2308-0.788,29.89636-1.18206,44.84454-6.62644,48.74854-13.66414,9.7981-30.38358-55.23679-85.754-94.75833-9.11931-6.50909-20.89835-13.4762-32.36163-26.14417a126.33594,126.33594,0,0,1-16.752-24.24756A132.52089,132.52089,0,0,1,573.80743-.69629" transform="translate(2 3.58959)"/><path class="cls-3" d="M251.93893-.243c-55.5256,80.88593-95.39439,135.1333-122.95236,171.34891-0.00006.00009-53.44757,70.48785-47.51688,77.05188,0.96268,1.06549,4.17394-1.75934-5.5811,11.44476-5.96507,8.07413-17.14262,22.63464-20.22781,44.24832-2.41706,16.933,1.0905,31.48569,4.374,40.99663a70.16442,70.16442,0,0,0,19.6465,13.3656c33.04192,14.9295,66.93012-1.76129,73.32578-5.057l42.98407,12.64238c-18.43829-.70885-70.95148-0.20042-113.78138,36.6629a144.55748,144.55748,0,0,0-26.549,30.34171c0.55971,10.06363,1.20963,25.22734,1.22554,43.73559,0.01523,17.70971-.81392,29.96561-0.768,36.214a783.32907,783.32907,0,0,0,5.02776,83.14514L-2,595.35015Q-0.90127,297.55356.19746-.243L47.45044-.0784c-0.79687,9.30743-3.41523,39.812-4.23473,49.33563-4.14357,48.15366-4.762,59.23517-4.2877,77.2308a261.37965,261.37965,0,0,0,6.62644,48.74854C51.42937,201.087,55.045,216.99628,61.982,217.88269c11.779,1.50516,16.11462-42.47845,51.83374-93.55359,15.83179-22.638,21.18649-22.59076,55.62646-63.21188,21.44185-25.29016,37.76738-46.95,48.2507-61.36023" transform="translate(2 3.58959)"/><path class="cls-3" d="M587.95107,0c55.5256,80.88593,95.39439,135.1333,122.95236,171.34891,0.00006,0.00009,53.44757,70.48785,47.51688,77.05188-0.96268,1.06549-4.17394-1.75934,5.5811,11.44476,5.96507,8.07413,17.14262,22.63464,20.22781,44.24832,2.41706,16.933-1.0905,31.48569-4.374,40.99663a70.16442,70.16442,0,0,1-19.6465,13.3656c-33.04192,14.9295-66.93012-1.76129-73.32578-5.057l-42.98407,12.64238c18.43829-.70885,70.95148-0.20042,113.78138,36.6629a144.55749,144.55749,0,0,1,26.549,30.34171c-0.55971,10.06363-1.20963,25.22734-1.22554,43.73559-0.01523,17.70971.81392,29.96561,0.768,36.214a783.32907,783.32907,0,0,1-5.02776,83.14514l63.14608-.54774Q840.79127,297.79657,839.69254,0l-47.253.16461c0.79688,9.30743,3.41523,39.812,4.23473,49.33563,4.14357,48.15366,4.762,59.23517,4.2877,77.2308a261.37966,261.37966,0,0,1-6.62644,48.74854C788.46063,201.33,784.845,217.23929,777.908,218.1257c-11.779,1.50516-16.11462-42.47845-51.83374-93.55359-15.83179-22.638-21.18649-22.59076-55.62646-63.21188C649.006,36.07007,632.68045,14.41028,622.19713,0" transform="translate(2 3.58959)"/><path class="cls-4" d="M192,249.97925c3.98724,32.6987-10.04984,42.78448-10.35956,82.94907-0.30334,39.33688-.455,59.00533,2.52847,77.11852,3.98042,24.1658,9.35091,37.19762,10.59908,66.49187,0.62924,14.768-.87975,21.01189-0.768,36.214a783.3291,783.3291,0,0,0,5.02776,83.14514l-63.14609-.54774L137.11974-.21158,185.09679,0.103c-0.78336,11.20215-2.068,28.31732-3.9994,49.15424-7.77315,83.85861-14.26567,101.15567-7.04237,106.6778,11.38362,8.70267,53.95792-14.03711,193.04-155.832l41.84229-.31458C354.59808,71.24216,301.10336,117.94333,260.02319,148.34961c-18.28552,13.53439-70.43912,30.37891-74.59,65.74036C184.01,226.21356,189.35333,228.27438,192,249.97925Z" transform="translate(2 3.58959)"/><path class="cls-4" d="M643.035,250.19083c-3.98724,32.69867,10.0498,42.78445,10.35956,82.94907,0.30334,39.33688.455,59.00533-2.52844,77.11852-3.98041,24.1658-9.35089,37.19762-10.59906,66.49187-0.62927,14.768.8797,21.01189,0.76794,36.214a783.32308,783.32308,0,0,1-5.02771,83.14514l63.14606-.54774Q698.53439,297.78087,697.91534,0l-47.97705.31458c0.78333,11.20215,2.06793,28.31732,3.99939,49.15424,7.77313,83.85864,14.26569,101.1557,7.04236,106.67783C649.59644,164.84927,607.02216,142.1095,467.94009.31455L426.09781,0C480.437,71.45371,533.9317,118.15491,575.01184,148.56119c18.28558,13.53442,70.43921,30.37894,74.59009,65.74036C651.02509,226.42514,645.6817,228.486,643.035,250.19083Z" transform="translate(2 3.58959)"/><path class="cls-5" d="M51.99336-.00436c-5.908,38.89331-1.62531,67.66229,3.79644,87.318,4.83583,17.53159,12.7654,35.7439,7.59287,59.79385-3.05414,14.20038-7.74448,16.80508-10.4402,30.37149-4.58917,23.09534,4.87388,36.332,10.4402,58.84476C75.896,286.93326,47.128,297.10758,59.58623,350.21687c5.75817,24.54706,13.8881,30.8326,12.33842,51.25189-1.76576,23.26659-14.31852,41.42528-24.67684,53.1501" transform="translate(2 3.58959)"/><path class="cls-6" d="M67.37188,454.61887c5.908-38.89331,1.62531-67.66229-3.79644-87.318-4.83583-17.53159-12.7654-35.7439-7.59287-59.79385,3.05414-14.20038,7.74448-16.80508,10.4402-30.37149,4.58917-23.09534-4.87388-36.332-10.4402-58.84476-12.51328-50.6095,16.25464-60.78381,3.79644-113.89311C54.02084,79.85057,45.89091,73.565,47.44058,53.14574,49.20635,29.87915,61.75911,11.72046,72.11742-.00436" transform="translate(2 3.58959)"/><path class="cls-7" d="M119.3801,0c19.45715,35.24994,22.53851,63.46185,21.82951,82.56812-1.29259,34.83325-15.322,43.12924-15.18574,81.62341,0.143,40.40866,15.6451,43.27716,10.44019,73.08139-6.481,37.11124-32.319,42.98755-28.47327,70.23407,3.21658,22.78918,23.29219,32.84773,18.03307,52.201-2.73412,10.0614-8.67632,9.24255-13.28753,18.98218C100.94881,403.58728,130.6,428.32408,134.56586,467.9064c1.33659,13.34027.28079,33.60765-13.28754,59.79387" transform="translate(2 3.58959)"/><path class="cls-7" d="M129.52311,527.70027c-19.45715-35.24994-22.53851-63.46185-21.82951-82.56812,1.29259-34.83325,15.322-43.12924,15.18574-81.62341-0.143-40.40866-15.6451-43.27716-10.44019-73.08139,6.481-37.11124,32.319-42.98755,28.47327-70.23407-3.21658-22.78918-23.29219-32.84773-18.03307-52.201,2.73412-10.0614,8.67632-9.24255,13.28753-18.98218,11.78754-24.89714-17.86365-49.63394-21.82951-89.21626C113.00077,46.45357,114.05657,26.18619,127.6249,0" transform="translate(2 3.58959)"/><path class="cls-6" d="M210.49458,0c-3.95724,14.20557-8.00279,36.57312-1.89822,61.68774,7.04326,28.97647,20.42186,32.08585,20.8804,55.04831,0.57713,28.90082-20.37634,35.97418-17.084,67.38675,1.31543,12.5506,5.16884,16.27347,5.69466,32.26971a108.54373,108.54373,0,0,1-5.69466,37.96436" transform="translate(2 3.58959)"/><path class="cls-7" d="M224.46422,254.35684c3.95724-14.20557,8.00279-36.57312,1.89822-61.68774-7.04326-28.97647-20.42186-32.08585-20.8804-55.04831C204.90491,108.72,225.85839,101.64661,222.566,70.234c-1.31543-12.5506-5.16884-16.27347-5.69466-32.26971A108.54373,108.54373,0,0,1,222.566,0" transform="translate(2 3.58959)"/><path class="cls-7" d="M284.52509,0c13.72513,21.3443,14.5556,36.85828,12.33841,47.45111-4.14795,19.8172-19.1572,23.34094-20.8804,42.7099-1.5256,17.14783,9.49707,22.72171,13.28754,44.60812,3.22839,18.64105-1.209,35.14621-5.69464,46.50635" transform="translate(2 3.58959)"/><path class="cls-7" d="M289.116,181.27545c-13.72513-21.3443-14.5556-36.85828-12.33841-47.45111,4.14795-19.8172,19.1572-23.34094,20.8804-42.7099,1.5256-17.14783-9.49707-22.72171-13.28754-44.60812C281.14208,27.86527,285.57943,11.36011,290.06511,0" transform="translate(2 3.58959)"/><path class="cls-7" d="M385.13065,0a48.72716,48.72716,0,0,0-1.89822,19.92694c1.20758,10.07507,5.00092,12.863,9.49109,25.62592,4.33429,12.3197,7.77838,22.10919,4.74554,32.26971-3.0701,10.28534-9.8298,11.07626-15.18573,21.82953-5.61874,11.281-4.54678,23.1947-2.84732,31.32059" transform="translate(2 3.58959)"/><path class="cls-7" d="M391.56246,130.97266a48.72716,48.72716,0,0,0,1.89822-19.92694c-1.20758-10.07507-5.00092-12.863-9.49109-25.62592-4.33429-12.3197-7.77838-22.10919-4.74554-32.26971,3.0701-10.28534,9.8298-11.07626,15.18573-21.82953C400.02852,20.03958,398.95656,8.12586,397.2571,0" transform="translate(2 3.58959)"/><path class="cls-7" d="M480.04156,0c4.3226,5.18439,9.69049,13.32788,10.44019,23.72339,1.69376,23.486-22.08344,32.13458-20.8804,55.04828,0.96893,18.45514,17.77094,22.42645,15.18576,38.91351-2.10739,13.43994-13.992,16.0025-16.13486,29.42236-1.97025,12.339,5.869,24.00046,13.28754,32.26971" transform="translate(2 3.58959)"/><path class="cls-6" d="M478.8708,179.37723c-4.3226-5.18439-9.69049-13.32788-10.44019-23.72339-1.69376-23.486,22.08344-32.13458,20.8804-55.04828-0.96893-18.45514-17.77094-22.42645-15.18576-38.91351,2.10739-13.43994,13.992-16.0025,16.13486-29.42236C492.23036,19.9307,484.39106,8.26923,476.97257,0" transform="translate(2 3.58959)"/><path class="cls-7" d="M577.7998-2.85171c-24.13214,22.07343-29.81128,40.82489-30.37152,54.09924-0.54181,12.838,3.87286,16.55786,22.77863,75.92871,5.78033,18.15237,9.146,29.67,4.74554,42.7099-4.68738,13.89008-12.98236,14.08557-15.18573,25.62595-3.3396,17.49136,13.93634,26.36316,20.88037,51.25189,2.6001,9.31931,4.63977,24.06738-.9491,44.60812" transform="translate(2 3.58959)"/><path class="cls-7" d="M552.84228,291.3721c24.13214-22.07343,29.81128-40.82489,30.37152-54.09924,0.54181-12.838-3.87286-16.55786-22.77863-75.92871-5.78033-18.15237-9.146-29.67-4.74554-42.7099,4.68738-13.89008,12.98236-14.08557,15.18573-25.62595C574.215,75.51694,556.939,66.64514,549.995,41.75641c-2.6001-9.31931-4.63977-24.06738.9491-44.60812" transform="translate(2 3.58959)"/><path class="cls-7" d="M678.40533,0c-5.49506,17.468-10.04913,42.53076.94916,65.48419,9.53326,19.89587,22.66058,21.32117,27.52417,37.96436,8.42419,28.82755-25.77728,42.28519-30.37152,79.72516-6.30432,51.37653,51.8465,76.98334,38.91345,114.84219-8.58295,25.12494-37.59509,23.80237-47.45544,53.1501-7.50061,22.32431,1.80164,45.36835,9.49109,59.79388" transform="translate(2 3.58959)"/><path class="cls-6" d="M704.09688,410.95986c5.49506-17.468,10.04913-42.53076-.94916-65.48419-9.53326-19.89587-22.66058-21.32117-27.52417-37.96436-8.42419-28.82755,25.77728-42.28519,30.37152-79.72516,6.30432-51.37653-51.8465-76.98334-38.91345-114.84219,8.58295-25.12494,37.59509-23.80237,47.45544-53.1501C722.03767,37.46954,712.73543,14.42551,705.046,0" transform="translate(2 3.58959)"/><path class="cls-6" d="M780.90912,0a190.44128,190.44128,0,0,1-6.64374,54.09485c-8.35779,30.55331-18.86279,38.30228-17.084,57.89566,2.32629,25.62387,21.68231,27.675,25.626,51.25189,5.56244,33.25452-30.76794,42.18985-33.21881,78.77606-3.16248,47.20956,54.82654,69.69016,44.60809,110.09665-4.56805,18.06331-17.4472,18.6731-26.575,37.96437-15.4057,32.55933.84119,74.02217,22.77856,110.09665" transform="translate(2 3.58959)"/><path class="cls-7" d="M763.96041,500.1761a190.44128,190.44128,0,0,1,6.64374-54.09485c8.35779-30.55331,18.86279-38.30228,17.084-57.89566-2.32629-25.62387-21.68231-27.675-25.626-51.25189-5.56244-33.25452,30.76794-42.18985,33.21881-78.77606,3.16248-47.20956-54.82654-69.69016-44.60809-110.09665,4.56805-18.06331,17.4472-18.6731,26.575-37.96437C792.65359,77.53729,776.4067,36.07445,754.46932,0" transform="translate(2 3.58959)"/></svg>