<svg id="Layer_1" data-name="Layer 1" xmlns="http://www.w3.org/2000/svg" viewBox="0 0 844.296 673.74651"><defs><style>.cls-1,.cls-3{fill:#941a1d;stroke:#941a1d;}.cls-1,.cls-2,.cls-3,.cls-4,.cls-5,.cls-6{stroke-miterlimit:10;}.cls-2{fill:#6b140f;stroke:#6b140f;}.cls-3{opacity:0.69;}.cls-4{fill:#52602b;stroke:#52602b;}.cls-5{fill:#3c5124;stroke:#3c5124;}.cls-6{fill:#52602c;stroke:#52602c;}</style></defs><title>trees2</title><path class="cls-1" d="M135.27669,669.45836H7v-444.249l111.33334-93.25106C86.04191,239.598,90.55771,308.50291,101.66666,352.36988c3.71774,14.68058,11.7421,40.64705,17.70834,81.14054,5.93719,40.29644,5.41786,64.9908,7.29166,111.41681C127.84545,574.13339,130.16951,616.84989,135.27669,669.45836Z" transform="translate(1.2966 0.5)"/><path class="cls-1" d="M705,669.45836H833.27669v-444.249L721.94335,131.95833C754.23478,239.598,749.719,308.50291,738.61,352.36988c-3.71774,14.68058-11.7421,40.64705-17.70834,81.14054-5.93719,40.29644-5.41786,64.9908-7.29166,111.41681C712.43124,574.13339,710.10718,616.84989,705,669.45836Z" transform="translate(1.2966 0.5)"/><path class="cls-2" d="M713.61331,670.391H841.89V226.43876L730.55666,133.25c32.29143,107.56781,27.77563,176.42665,16.66667,220.26432-3.71774,14.67078-11.7421,40.6199-17.70834,81.08634-5.93719,40.26952-5.41786,64.94739-7.29166,111.34239C721.04455,575.12969,718.72049,617.81765,713.61331,670.391Z" transform="translate(1.2966 0.5)"/><path class="cls-2" d="M128.27669,670.45836H0v-444.249l111.33334-93.25106C79.04191,240.598,83.55771,309.50291,94.66666,353.36988c3.71774,14.68058,11.7421,40.64705,17.70834,81.14054,5.93719,40.29644,5.41786,64.9908,7.29166,111.41681C120.84545,575.13339,123.16951,617.84989,128.27669,670.45836Z" transform="translate(1.2966 0.5)"/><path class="cls-1" d="M85.98993,493.30686c4.46838,34.71229,1.3439,85.57946-35.606,152.49966H13.5286c8.9495-66.29755,5.18094-117.99209,0-153.1627C9.55966,465.70081,2.37153,432.22844-.21406,379.26363c-1.51477-31.02937-1.0616-60.7957,13.74267-91.49982a140.08109,140.08109,0,0,1,19.98933-30.49992A601.2179,601.2179,0,0,0,49.75927,369.981C65.01591,432.76888,80.77366,452.78461,85.98993,493.30686Z" transform="translate(1.2966 0.5)"/><path class="cls-1" d="M749.37444,476.99609c-4.46838,38.70935-1.3439,95.43379,35.606,170.05972h36.85533c-8.9495-73.93159-5.18094-131.57867,0-170.79911,3.96894-30.04545,11.15707-67.37211,13.74267-126.43572,1.51477-34.60235,1.0616-67.79622-13.74267-102.03586a158.7254,158.7254,0,0,0-19.98933-34.01193A743.133,743.133,0,0,1,785.6051,339.46953C770.34846,409.48727,754.59071,431.80778,749.37444,476.99609Z" transform="translate(1.2966 0.5)"/><path class="cls-3" d="M75.99526,250.00389c6.37458,42.0284-3.36885,51.58888,3.748,86.204,4.70876,22.90256,9.461,21.08594,14.992,47.47467,5.60863,26.75919,7.98119,63.2612,1.24933,64.9653-7.34357,1.85895-28.05619-37.0498-33.732-79.95731-1.72131-13.01266-.81763-17.00394,0-49.97333,1.8224-73.48442-1.312-108.29153,2.49866-108.692C67.82434,209.70227,73.26177,231.98164,75.99526,250.00389Z" transform="translate(1.2966 0.5)"/><path class="cls-3" d="M760.62988,207.52657c-7.50305,34.26508,4.65356,45.79965,1.87054,89.952-0.2102,3.33463-2.42938,17.63153-6.86786,46.22534-8.55566,55.11832-11.05084,65.73157-9.37347,66.21463,3.36053,0.9678,20.70026-39.5231,30.61212-84.95465a415.36832,415.36832,0,0,0,8.7453-73.71065c0.80383-24.54539.55585-78.90372-8.12408-79.95732C772.02417,170.63214,764.19531,191.24388,760.62988,207.52657Z" transform="translate(1.2966 0.5)"/><path class="cls-4" d="M841.89,304.25c-1.84521-.5072-22.73352-6.62836-29.515-27.08334-4.35583-13.13841-.36481-24.56839,1.04169-28.125-13.23938-.60246-25.04877-7.76968-30.20837-18.75-6.96521-14.82281-.90118-34.65575,15.625-44.79167-4.12634.865-31.80078,6.18027-56.25-12.5-20.92731-15.9894-25.20679-38.64491-26.04163-43.75-3.0506,2.14627-35.97589,24.46433-75,10.41666-34.94745-12.58017-47.29034-44.42729-48.95837-48.95833-16.84253,36.35641-55.23334,57.47213-93.75,52.08334-35.31561-4.94095-64.649-31.31228-73.95834-66.66667-9.20666,40.66244-46.15332,66.32779-81.25,61.45834-26.70029-3.7045-49.6441-24.70873-58.33334-53.125-0.80032,38.08685-27.58173,70.52766-63.54166,78.125-38.70612,8.17754-78.95465-14.34857-92.70833-53.125,16.87708,24.38427,17.50114,55.85217,2.08333,78.125-19.084,27.569-59.76092,36.73778-92.70833,17.70834,1.3012,1.53922,18.1317,22.16028,10.41666,47.91666-6.26538,20.91676-24.10724,29.82506-27.08333,31.25,3.6928,7.00742,1.73155,15.50272-4.16667,19.79166A15.42036,15.42036,0,0,1,0,304.25V14H841.89V304.25Z" transform="translate(1.2966 0.5)"/><path class="cls-5" d="M841.89,290.25c-1.84521-.5072-22.73352-6.62836-29.515-27.08334-4.35583-13.13841-.36481-24.56839,1.04169-28.125-13.23938-.60246-25.04877-7.76968-30.20837-18.75-6.96521-14.82281-.90118-34.65575,15.625-44.79167-4.12634.865-31.80078,6.18027-56.25-12.5-20.92731-15.9894-25.20679-38.64491-26.04163-43.75-3.0506,2.14627-35.97589,24.46433-75,10.41666-34.94745-12.58017-47.29034-44.42729-48.95837-48.95833-16.84253,36.35641-55.23334,57.47213-93.75,52.08334-35.31561-4.94095-64.649-31.31228-73.95834-66.66667-9.20666,40.66244-46.15332,66.32779-81.25,61.45834-26.70029-3.7045-49.6441-24.70872-58.33334-53.125-0.80032,38.08685-27.58173,70.52766-63.54166,78.125-38.70612,8.17754-78.95465-14.34857-92.70833-53.125,16.87708,24.38427,17.50114,55.85217,2.08333,78.125-19.084,27.569-59.76092,36.73778-92.70833,17.70834,1.3012,1.53922,18.1317,22.16028,10.41666,47.91666-6.26538,20.91676-24.10724,29.82506-27.08333,31.25,3.6928,7.00742,1.73155,15.50272-4.16667,19.79166A15.42036,15.42036,0,0,1,0,290.25V0H841.89V290.25Z" transform="translate(1.2966 0.5)"/><path class="cls-6" d="M842.49941,672.74651H0.37947V640.90759q2.53635-3.6902,5.07271-7.38032-0.69786,28.56537,1.1319,28.83078,1.95423,0.2831,6.7914-31.71385,0.566,11.292,1.1319,22.5841,3.3957-9.61021,6.7914-19.2205-1.30344,25.62664.3773,25.94771,1.88869,0.36122,7.546-31.23339,0.46942,17.76143,3.0184,18.2595,2.11439,0.41311,5.6595-11.05174-2.85947,28.37065-1.1319,28.83078,2.00475,0.53437,10.1871-36.519-1.16183,23.73811.3773,24.02564,1.14243,0.21337,3.773-12.49336,2.45873,16.48469,3.773,16.33743,1.53633-.1714,1.5092-23.06464,3.825,20.90689,6.4141,20.66211,2.10746-.19973,3.3957-14.41543,2.60211,19.83664,3.773,19.701,1.39874-.16254.7546-28.83078,4.40844,26.66809,7.546,26.42825,2.75324-.21093,4.5276-21.14257,2.08349,23.12516,2.6411,23.06464,0.6459-.06891-0.7546-31.23339Q91.80354,661.00086,94.495,660.436q2.09388-.43852,1.50919-21.623,3.71262,20.87179,6.41411,20.662,3.13234-.24369,4.9049-28.83078c-1.27179,11.26691.80612,19.29963,3.773,20.18157,3.14671,0.93542,7.03693-6.24924,7.546-7.20775q-0.21541,17.9516,1.5092,18.25958,2.19771,0.39188,7.546-27.86979,0.19723,23.85214,1.8865,24.02564,1.797,0.18364,5.28221-26.42825,3.76147,23.30763,5.6595,23.06464,2.23231-.28648,1.88649-33.15539,4.86395,37.23906,7.92331,36.99953,2.47865-.19355,3.773-24.98671,3.93736,26.61562,6.79141,26.42825,2.486-.163,4.1503-20.66211,2.32519,12.40715,4.90489,12.49336,3.86451,0.12954,8.3006-27.38925,0.56614,31.97666,4.5276,32.67493,2.6412,0.465,6.79141-12.97389,1.10916,14.34209,2.6411,14.41543,2.20372,0.10587,5.2822-29.31132c0.17242,5.633,1.05934,30.13015,5.2822,30.75286,3.51183,0.51785,7.75954-15.70757,9.43251-22.5841q0.12252,18.68045,2.6411,19.2205,2.0422,0.43747,5.6595-11.05182,2.127,15.87885,4.1503,15.857,2.53377-.02682,4.90491-24.98671c0.65791,5.28591,2.69185,20.12452,5.6595,20.18157,2.23167,0.04291,4.15359-8.28924,5.2822-14.41543q2.71362,20.69176,5.2822,20.66211,2.92351-.03311,5.6595-26.90871,1.25739,17.21424,3.0184,17.29842,2.23544,0.10657,5.28221-27.38925,2.17744,24.05316,4.1503,24.02564,1.57425-.02169,3.0184-15.37643,0.96483,28.22071,3.0184,28.35032,1.831,0.11508,4.52759-22.10364,2.42606,16.40517,4.52762,16.3375,2.725-.0871,4.90488-27.86979,1.91336,30.09664,4.90491,30.27232,2.75107,0.16067,6.41409-24.98671c0.0918,1.9541,1.10965,22.30318,4.1503,22.58418,2.85376,0.26374,5.99094-17.28793,6.41412-19.701q1.28874,19.69334,2.64108,19.701,1.65051,0.00863,3.39572-29.31132,2.75793,24.39141,6.0368,24.50618,2.32178,0.0808,4.90488-12.01282,1.65578,18.24683,3.39572,18.2595,2.01837,0.01516,4.1503-24.50618,1.849,29.67071,4.52759,29.79178,2.32791,0.1061,5.2822-22.10357,3.67456,23.27825,6.0368,23.06464,2.82527-.256,3.773-34.11646c0.24335,8.71769,1.00607,24.09117,3.773,24.50618,2.25717,0.33852,5.07364-9.39365,7.1687-18.2595,0.52948,9.18867,1.59268,22.985,3.39569,23.06464,1.72623,0.07625,3.46686-12.45029,4.52759-21.62311-0.37582,11.49956,2.5748,20.08689,5.65952,20.662,3.19672,0.596,8.32-7.08027,10.1871-19.701q0.11151,19.62326,1.1319,19.701,1.13525,0.08558,3.39569-24.02564,1.88466,27.38808,3.773,27.38925,1.69643,0.00035,3.39569-22.10357,1.77681,14.924,3.39572,14.89589,2.00789-.0344,3.773-23.06464,0.84924,22.13081,3.773,22.5841,2.104,0.32659,5.2822-10.57128,2.52425,18.38675,4.1503,18.2595,2.00066-.15741,2.64111-28.35025,2.065,19.13775,4.52759,19.2205,2.11693,0.07171,4.52762-13.93489,1.54747,15.8,3.39569,15.857,2.07426,0.06425,4.52759-19.701c-0.79791,6.95862.58255,12.06016,2.26379,12.49336,1.58563,0.40856,4.10031-3.16493,5.65952-8.64929q0.36667,19.55517,1.88651,19.701,1.817,0.17513,5.2822-27.38925,0.11124,31.28582,3.0184,31.71393,2.52768,0.37148,7.1687-22.58418,0.54048,11.376,1.88651,11.53236,1.54477,0.17991,4.1503-14.41543c-0.3017,16.26374.489,19.12007,1.1319,19.22057,0.64978,0.10152,1.99454-2.48026,4.90491-19.22057,0.662,11.331,3.23062,19.12605,5.65948,19.22057,2.29718,0.08939,4.9556-6.69037,6.41412-15.857,0.32919,2.58225,1.83939,13.71561,4.52759,13.93489,3.41721,0.27875,6.61191-17.25217,6.79141-18.2595,0.49072,4.13525,2.50232,20.17419,5.2822,20.18157,2.33627,0.00622,4.17874-11.31362,4.90491-16.3375q2.15652,12.60432,3.773,12.49336,1.87111-.129,3.01843-17.29842,4.8912,24.83133,8.3006,24.5061,2.74384-.26211,4.52759-16.818,0.42645,16.18433,1.88647,16.3375,1.72824,0.18073,4.90491-22.10364,1.22379,24.76394,3.773,24.98671,2.16376,0.18959,5.28223-17.2985,2.31116,18.33533,4.15027,18.2595,2.23526-.09293,3.773-27.38925,3.108,26.55091,5.28223,26.42825,1.56125-.08861,2.64105-13.93489,2.70383,12.6948,4.52765,12.49336,2.08365-.23063,3.01837-17.2985,3.26541,20.29043,6.0368,20.18157,2.236-.0878,4.15027-13.45435,1.72229,14.42418,3.39575,14.41535,2.11414-.01166,4.15027-23.06464,3.96194,22.35281,5.28223,22.10364,1.09113-.20684.37726-15.857c0.549,2.643,3.01935,14.10171,5.65955,13.93489,3.23944-.20467,4.78436-17.7879,4.90491-19.2205q1.53113,16.53308,4.15027,16.818,3.16663,0.34385,7.92328-23.06464,1.26837,23.96921,3.01843,24.02564,1.36313,0.04454,3.01837-14.41535c1.59155,9.692,3.22821,14.37952,4.90491,14.41535,2.01923,0.04314,4.155-6.659,6.41412-20.662q0.88852,22.958,2.64111,23.06464,1.27908,0.07847,3.01837-12.0129,3.19,9.54223,4.90491,9.12975,2.45773-.59068,1.88654-21.623,3.912,12.48632,5.65948,12.01282,2.03851-.55221,1.1319-18.74,7.25638,27.63294,10.18707,26.90871,2.42752-.60059,1.88654-20.662c0.20282,0.54855,4.06482,10.82881,6.79138,10.09075,2.09381-.56674,3.25531-7.56011,2.64111-17.29842q4.39481,24.761,7.546,24.50618,2.73065-.22014,4.52759-19.22057c0.31842,1.06236,2.88635,9.46011,5.28217,9.12975,1.97949-.273,3.53571-6.46207,3.773-15.37643q1.049,28.5684,3.773,28.83078,2.37946,0.2283,6.0368-21.14257,2.06113,19.99882,4.90491,20.18157,2.36929,0.15181,5.28217-13.45435,3.98676,12.0225,6.41412,11.53228,3.651-.73806,3.773-29.79178,5.24689,33.42,9.05518,33.15539,3.40457-.23576,5.65955-27.38925,4.356,27.09659,5.28217,26.90871,0.75119-.15321-0.75458-18.2595c3.48151,9.09314,7.90387,15.33329,10.56439,14.41543,2.87488-.99178,4.4024-10.586,2.64111-23.54518,0.533,2.12534,5.30505,20.86623,8.67786,20.18157,2.86481-.58151,3.31348-14.89231,3.39575-18.2595q2.58215,27.90566,4.90491,27.86979,1.77347-.0267,3.39569-16.33743,3.455,16.08056,6.0368,15.85689,3.39743-.29523,5.28217-28.83078,6.42883,32.65946,10.56439,32.19439,3.42929-.385,5.28223-23.54518,3.21176,15.63761,4.90491,15.37643,1.90192-.29464,1.88647-20.662c2.71606,11.09831,6.6347,24.52289,9.80981,24.02564,1.30579-.20451,3.329-2.89566,4.52759-18.74q5.90488,19.41945,8.3006,18.74,2.83759-.80347.75464-29.79178,5.38,5.61219,10.76007,11.22439v31.83892Z" transform="translate(1.2966 0.5)"/><path class="cls-5" d="M841.99493,672.45831H-0.125v-25q2.53635-2.89755,5.07271-5.795-0.69786,22.4296,1.1319,22.638,1.95423,0.22229,6.7914-24.90179,0.566,8.86652,1.1319,17.73309,3.3957-7.546,6.7914-15.092-1.30344,20.1221.3773,20.37421,1.88869,0.28363,7.546-24.52454,0.46942,13.94632,3.0184,14.3374,2.11439,0.32437,5.6595-8.67786-2.85947,22.2767-1.1319,22.638,2.00475,0.41959,10.1871-28.6748-1.16183,18.63922.3773,18.865,1.14243,0.16754,3.773-9.80981,2.45873,12.94382,3.773,12.82819,1.53633-.13458,1.5092-18.11041,3.825,16.41614,6.4141,16.22394,2.10746-.15683,3.3957-11.319,2.60211,15.57578,3.773,15.4693,1.39874-.12762.7546-22.638,4.40844,20.93985,7.546,20.75153,2.75324-.16562,4.5276-16.6012,2.08349,18.15793,2.6411,18.11041,0.6459-.05411-0.7546-24.52454,7.11835,26.47723,9.80981,26.03369,2.09388-.34433,1.50919-16.97845,3.71262,16.38858,6.41411,16.22388,3.13234-.19135,4.9049-22.638c-1.27179,8.8468.80612,15.15411,3.773,15.84662,3.14671,0.7345,7.03693-4.90692,7.546-5.65955q-0.21541,14.09564,1.5092,14.33746,2.19771,0.30771,7.546-21.88342,0.19723,18.72876,1.8865,18.865,1.797,0.1442,5.28221-20.75153,3.76147,18.30121,5.6595,18.11041,2.23231-.22494,1.88649-26.03369,4.86395,29.2402,7.92331,29.05212,2.47865-.152,3.773-19.61963,3.93736,20.89865,6.79141,20.75153,2.486-.128,4.1503-16.22394,2.32519,9.74213,4.90489,9.80981,3.86451,0.10172,8.3006-21.5061,0.56614,25.10815,4.5276,25.65643,2.6412,0.36511,6.79141-10.18713,1.10916,11.26144,2.6411,11.319,2.20372,0.08313,5.2822-23.01532c0.17242,4.423,1.05934,23.65826,5.2822,24.14722,3.51183,0.40662,7.75954-12.33362,9.43251-17.73309q0.12252,14.66794,2.6411,15.092,2.0422,0.34351,5.6595-8.67792,2.127,12.46811,4.1503,12.45093,2.53377-.02106,4.90491-19.61963c0.65791,4.15051,2.69185,15.80182,5.6595,15.84662,2.23167,0.03369,4.15359-6.50873,5.2822-11.319q2.71362,16.24722,5.2822,16.22394,2.92351-.026,5.6595-21.12878,1.25739,13.51666,3.0184,13.58276,2.23544,0.08368,5.28221-21.5061,2.17744,18.8866,4.1503,18.865,1.57425-.017,3.0184-12.07361,0.96483,22.159,3.0184,22.26074,1.831,0.09036,4.52759-17.35584,2.42606,12.88138,4.52762,12.82825,2.725-.06839,4.90488-21.88342,1.91336,23.632,4.90491,23.7699,2.75107,0.12616,6.41409-19.61963c0.0918,1.53436,1.10965,17.51251,4.1503,17.73315,2.85376,0.20709,5.99094-13.57452,6.41412-15.4693q1.28874,15.46326,2.64108,15.4693,1.65051,0.00677,3.39572-23.01532,2.75793,19.15219,6.0368,19.24231,2.32178,0.06345,4.90488-9.4325,1.65578,14.32745,3.39572,14.3374,2.01837,0.0119,4.1503-19.24231,1.849,23.29752,4.52759,23.39258,2.32791,0.08331,5.2822-17.35577,3.67456,18.27814,6.0368,18.11041,2.82527-.201,3.773-26.78833c0.24335,6.84515,1.00607,18.91644,3.773,19.24231,2.25717,0.26581,5.07364-7.37592,7.1687-14.3374,0.52948,7.215,1.59268,18.04791,3.39569,18.11041,1.72623,0.05988,3.46686-9.776,4.52759-16.97852-0.37582,9.02948,2.5748,15.77228,5.65952,16.22388,3.19672,0.468,8.32-5.55945,10.1871-15.4693q0.11151,15.40823,1.1319,15.4693,1.13525,0.0672,3.39569-18.865,1.88466,21.50519,3.773,21.5061,1.69643,0.00027,3.39569-17.35577,1.77681,11.71838,3.39572,11.69629,2.00789-.027,3.773-18.11041,0.84924,17.37717,3.773,17.73309,2.104,0.25644,5.2822-8.3006,2.52425,14.43732,4.1503,14.3374,2.00066-.1236,2.64111-22.26068,2.065,15.027,4.52759,15.092,2.11693,0.0563,4.52762-10.94171,1.54747,12.40622,3.39569,12.45093,2.07426,0.05045,4.52759-15.4693c-0.79791,5.46393.58255,9.46967,2.26379,9.80981,1.58563,0.3208,4.10031-2.48511,5.65952-6.79144q0.36667,15.35477,1.88651,15.4693,1.817,0.13751,5.2822-21.5061,0.11124,24.5657,3.0184,24.90186,2.52768,0.29169,7.1687-17.73315,0.54048,8.93243,1.88651,9.05524,1.54477,0.14127,4.1503-11.319c-0.3017,12.77032.489,15.01312,1.1319,15.092,0.64978,0.07971,1.99454-1.94751,4.90491-15.092,0.662,8.89716,3.23062,15.01782,5.65948,15.092,2.29718,0.07019,4.9556-5.2533,6.41412-12.45093,0.32919,2.02759,1.83939,10.76953,4.52759,10.94171,3.41721,0.21887,6.61191-13.54645,6.79141-14.3374,0.49072,3.247,2.50232,15.84082,5.2822,15.84662,2.33627,0.00488,4.17874-8.88348,4.90491-12.82825q2.15652,9.89694,3.773,9.80981,1.87111-.10126,3.01843-13.58276,4.8912,19.49762,8.3006,19.24225,2.74384-.20581,4.52759-13.20551,0.42645,12.708,1.88647,12.82825,1.72824,0.14191,4.90491-17.35583,1.22379,19.4447,3.773,19.61963,2.16376,0.14886,5.28223-13.58282,2.31116,14.39694,4.15027,14.3374,2.23526-.073,3.773-21.5061,3.108,20.84784,5.28223,20.75153,1.56125-.06958,2.64105-10.94171,2.70383,9.968,4.52765,9.80981,2.08365-.18109,3.01837-13.58282,3.26541,15.9321,6.0368,15.84662,2.236-.06894,4.15027-10.56439,1.72229,11.3259,3.39575,11.319,2.11414-.00916,4.15027-18.11041,3.96194,17.55148,5.28223,17.35583,1.09113-.16241.37726-12.45093c0.549,2.07526,3.01935,11.07269,5.65955,10.94171,3.23944-.16071,4.78436-13.9671,4.90491-15.092q1.53113,12.98181,4.15027,13.20551,3.16663,0.27,7.92328-18.11041,1.26837,18.82068,3.01843,18.865,1.36313,0.035,3.01837-11.319c1.59155,7.61017,3.22821,11.29083,4.90491,11.319,2.01923,0.03387,4.155-5.2287,6.41412-16.22388q0.88852,18.02664,2.64111,18.11041,1.27908,0.06162,3.01837-9.43256,3.19,7.49258,4.90491,7.1687,2.45773-.46381,1.88654-16.97845,3.912,9.80429,5.65948,9.4325,2.03851-.43359,1.1319-14.71472,7.25638,21.69745,10.18707,21.12878,2.42752-.47159,1.88654-16.22388c0.20282,0.43073,4.06482,8.50281,6.79138,7.92328,2.09381-.445,3.25531-5.93622,2.64111-13.58276q4.39481,19.44241,7.546,19.24231,2.73065-.17285,4.52759-15.092c0.31842,0.83417,2.88635,7.4281,5.28217,7.1687,1.97949-.21436,3.53571-5.074,3.773-12.07361q1.049,22.432,3.773,22.638,2.37946,0.17926,6.0368-16.6012,2.06113,15.70313,4.90491,15.84662,2.36929,0.1192,5.28217-10.56439,3.98676,9.44009,6.41412,9.05518,3.651-.57953,3.773-23.39258,5.24689,26.24149,9.05518,26.03369,3.40457-.18512,5.65955-21.5061,4.356,21.27631,5.28217,21.12878,0.75119-.1203-0.75458-14.3374c3.48151,7.14,7.90387,12.03973,10.56439,11.319,2.87488-.77875,4.4024-8.31213,2.64111-18.48773,0.533,1.66882,5.30505,16.38422,8.67786,15.84662,2.86481-.4566,3.31348-11.69348,3.39575-14.3374q2.58215,21.91159,4.90491,21.88342,1.77347-.021,3.39569-12.82819,3.455,12.6265,6.0368,12.45087,3.39743-.23181,5.28217-22.638,6.42883,25.64429,10.56439,25.27911,3.42929-.30231,5.28223-18.48773,3.21176,12.27869,4.90491,12.07361,1.90192-.23135,1.88647-16.22388c2.71606,8.71442,6.6347,19.25543,9.80981,18.865,1.30579-.16058,3.329-2.27368,4.52759-14.71472q5.90488,15.2482,8.3006,14.71472,2.83759-.63089.75464-23.39258,5.38,4.40671,10.76007,8.81342v25Z" transform="translate(1.2966 0.5)"/></svg>